<?xml version="1.0" standalone="no"?>
<!DOCTYPE svg PUBLIC "-//W3C//DTD SVG 1.1//EN" "http://www.w3.org/Graphics/SVG/1.1/DTD/svg11.dtd" >
<svg xmlns="http://www.w3.org/2000/svg" xmlns:xlink="http://www.w3.org/1999/xlink" version="1.1">
<metadata>
Created by FontForge 20170731 at Fri Oct 21 17:44:07 2011
 By Aleksey,,,
2007 Erik Spiekermann, Christian Schwartz, Kris Sowersby published by FSI FontShop International GmbH
</metadata>
<defs>
<font id="MetaSerifPro-BoldIta" horiz-adv-x="1" >
  <font-face 
    font-family="MetaSerifPro-BoldIta"
    font-weight="700"
    font-style="italic"
    font-stretch="normal"
    units-per-em="1000"
    panose-1="2 1 8 4 5 1 1 2 1 2"
    ascent="763"
    descent="-237"
    x-height="515"
    cap-height="695"
    bbox="-769 -286 1579 1152"
    underline-thickness="73"
    underline-position="-232"
    unicode-range="U+000D-FEFF"
  />
<missing-glyph horiz-adv-x="553" 
d="M71 0v689h411v-689h-411zM121 50h311v589h-311v-589z" />
    <glyph glyph-name="f_b" unicode="fb" horiz-adv-x="880" 
d="M349 143l90 427q4 17 4 36q0 65 -62 65q-70 0 -86 -82l-17 -80h106l-30 -73h-91l-94 -470q-16 -75 -63.5 -114.5t-119.5 -39.5q-47 0 -81 17v38q62 4 85.5 25t34.5 81l91 463h-63l12 50l66 22l15 60q41 165 226 165q64 0 126 -31l82 28h13q6 -18 6 -50q0 -52 -15 -119
l-35 -160q76 120 180 120q58 0 92 -41t34 -114q0 -162 -83.5 -271t-221.5 -109q-86 0 -115 62q-10 -29 -33 -48h-94q21 49 41 143zM534 56q73 0 117.5 90.5t44.5 196.5q0 73 -45 73q-27 0 -60 -28.5t-60 -69.5l-50 -236q15 -26 53 -26z" />
    <glyph glyph-name="f_f" unicode="ff" horiz-adv-x="648" 
d="M653 733q82 0 132 -24l-18 -95h-90q0 30 -6.5 43t-25.5 13q-37 0 -50 -59l-21 -102h123l-32 -73h-106l-91 -456q-16 -76 -62 -115t-118 -39q-44 0 -78 17v38q60 4 81.5 24.5t33.5 81.5l87 449h-149l-94 -470q-16 -75 -63.5 -114.5t-119.5 -39.5q-47 0 -81 17v38
q62 4 85.5 25t34.5 81l91 463h-63l12 50l66 22l12 47q41 173 237 173q71 0 141 -34q54 39 132 39zM428 509l9 43q9 39 9 57q0 56 -65 56q-37 0 -57.5 -21.5t-31.5 -73.5l-14 -61h150z" />
    <glyph glyph-name="f_f_b" unicode="ffb" horiz-adv-x="1176" 
d="M278 509h150l8 39q10 46 10 61q0 56 -65 56q-37 0 -57.5 -21.5t-31.5 -73.5zM645 143l91 427q4 17 4 35q0 66 -63 66q-36 0 -56.5 -20t-30.5 -67l-16 -75h106l-30 -73h-91l-91 -456q-16 -76 -62 -115t-118 -39q-44 0 -78 17v38q60 4 81.5 24.5t33.5 81.5l87 449h-149
l-94 -470q-16 -75 -63.5 -114.5t-119.5 -39.5q-47 0 -81 17v38q62 4 85.5 25t34.5 81l91 463h-63l12 50l66 22l12 47q41 173 237 173q76 0 142 -35q57 40 147 40q63 0 125 -31l82 28h13q7 -23 7 -53q0 -49 -15 -116l-36 -160q76 120 181 120q57 0 91.5 -41t34.5 -114
q0 -162 -83.5 -271t-222.5 -109q-86 0 -115 62q-10 -28 -32 -48h-95q21 49 41 143zM830 56q73 0 118 90.5t45 196.5q0 73 -46 73q-27 0 -60 -28.5t-60 -69.5l-49 -236q13 -26 52 -26z" />
    <glyph glyph-name="f_f_h" unicode="ffh" horiz-adv-x="1175" 
d="M278 509h150l9 43q9 40 9 57q0 56 -65 56q-37 0 -57.5 -21.5t-31.5 -73.5zM876 730h13q6 -18 6 -52q0 -53 -14 -117l-38 -171q38 61 87.5 96.5t104.5 35.5q49 0 74 -28t25 -74q0 -25 -5 -45l-55 -237q-6 -25 -6 -41q0 -18 9.5 -25t32.5 -7q21 0 34 2l3 -41
q-67 -35 -132 -35q-94 0 -94 90q0 25 8 60l48 208q3 13 3 25q0 30 -29 30q-56 0 -129 -110l-64 -294h-146l124 570q4 22 4 35q0 66 -63 66q-36 0 -56.5 -20t-30.5 -67l-16 -75h106l-30 -73h-91l-91 -456q-16 -76 -62 -115t-118 -39q-44 0 -78 17v38q60 4 81.5 24.5
t33.5 81.5l87 449h-149l-94 -470q-16 -75 -63.5 -114.5t-119.5 -39.5q-47 0 -81 17v38q62 4 85.5 25t34.5 81l91 463h-63l12 50l66 22l12 47q41 173 237 173q76 0 142 -35q57 40 147 40q63 0 125 -31z" />
    <glyph glyph-name="f_f_i" unicode="ffi" horiz-adv-x="890" 
d="M429 509l9 43q9 43 9 57q0 56 -66 56q-36 0 -57 -21.5t-32 -73.5l-13 -61h150zM643 436h-83l-91 -456q-16 -76 -62.5 -115t-118.5 -39q-43 0 -77 17v38q59 4 80.5 24.5t33.5 81.5l88 449h-149l-95 -470q-15 -75 -62.5 -114.5t-119.5 -39.5q-47 0 -81 17v38q62 4 85.5 25
t34.5 81l91 463h-63l12 50l66 22l11 47q41 173 238 173q82 0 143 -36q62 41 161 41q95 0 165 -35l-24 -109h-105q0 44 -10 62.5t-42 18.5q-60 0 -77 -76l-18 -85h185q89 0 89 -78q0 -16 -7 -51l-56 -242q-7 -30 -7 -41q0 -32 41 -32q9 0 35 2l4 -41q-68 -35 -135 -35
q-93 0 -93 90q0 25 8 60l53 224q5 22 5 33q0 21 -12.5 29.5t-40.5 8.5z" />
    <glyph glyph-name="f_f_j" unicode="ffj" horiz-adv-x="874" 
d="M429 509l9 43q9 40 9 57q0 56 -66 56q-36 0 -57 -21.5t-32 -73.5l-13 -61h150zM841 380l-78 -384q-18 -89 -77 -134t-179 -66l-16 55q64 21 89.5 52.5t41.5 110.5l70 351q4 20 4 32q0 22 -12 30.5t-40 8.5h-84l-91 -456q-16 -76 -62.5 -115t-118.5 -39q-43 0 -77 17v38
q59 4 80.5 24.5t33.5 81.5l88 449h-149l-95 -470q-15 -75 -62.5 -114.5t-119.5 -39.5q-47 0 -81 17v38q62 4 85.5 25t34.5 81l91 463h-63l12 50l66 22l11 47q41 173 238 173q82 0 143 -36q62 41 161 41q95 0 165 -35l-24 -109h-105q0 44 -10 62.5t-42 18.5q-25 0 -46.5 -17
t-29.5 -55l-19 -89h185q45 0 66.5 -18.5t21.5 -59.5q0 -21 -6 -51z" />
    <glyph glyph-name="f_f_k" unicode="ffk" horiz-adv-x="1141" 
d="M278 509h150l11 51q7 35 7 49q0 56 -65 56q-37 0 -57.5 -21.5t-31.5 -73.5zM876 730h13q6 -18 6 -50q0 -54 -14 -119l-122 -561h-146l123 570q4 17 4 35q0 66 -63 66q-36 0 -56.5 -20t-30.5 -67l-16 -75h106l-30 -73h-91l-91 -456q-16 -76 -62 -115t-118 -39
q-44 0 -78 17v38q60 4 81.5 24.5t33.5 81.5l87 449h-149l-94 -470q-16 -75 -63.5 -114.5t-119.5 -39.5q-47 0 -81 17v38q62 4 85.5 25t34.5 81l91 463h-63l12 50l66 22l12 47q41 173 237 173q76 0 142 -35q57 40 147 40q63 0 125 -31zM883 92l-56 177l198 240h143l-9 -43
q-66 0 -156 -98l-48 -51l67 -189q13 -38 25.5 -51t39.5 -13q14 0 30 2l3 -38q-57 -36 -121 -36q-48 0 -73 21.5t-43 78.5z" />
    <glyph glyph-name="f_f_l" unicode="ffl" horiz-adv-x="899" 
d="M428 509l8 39q10 45 10 61q0 56 -65 56q-37 0 -57.5 -21.5t-31.5 -73.5l-14 -61h150zM678 671q-36 0 -57 -20.5t-31 -66.5l-16 -75h106l-30 -73h-91l-91 -456q-16 -76 -62 -115t-118 -39q-44 0 -78 17v38q60 4 81.5 24.5t33.5 81.5l87 449h-149l-94 -470
q-16 -75 -63.5 -114.5t-119.5 -39.5q-47 0 -81 17v38q62 4 85.5 25t34.5 81l91 463h-63l12 50l66 22l12 47q41 173 237 173q76 0 142 -35q57 40 147 40q64 0 126 -31l82 28h13q6 -18 6 -52q0 -49 -15 -119l-91 -421q-6 -25 -6 -41q0 -17 9.5 -24.5t33.5 -7.5q21 0 34 2
l4 -41q-67 -35 -135 -35q-93 0 -93 92q0 29 8 64l91 423q4 17 4 36q0 65 -62 65z" />
    <glyph glyph-name="f_f_t" unicode="fft" horiz-adv-x="952" 
d="M428 509l10 47q8 34 8 53q0 56 -65 56q-37 0 -57.5 -21.5t-31.5 -73.5l-14 -61h150zM574 509h155q36 94 94 142l90 8q-24 -59 -45 -150h119l-29 -73h-106l-58 -273q-6 -30 -6 -49q0 -27 12 -39t39 -12q30 0 66 13l8 -47q-62 -43 -147 -43q-62 0 -94 27.5t-32 76.5
q0 29 9 71l58 275h-148l-91 -456q-16 -76 -62 -115t-118 -39q-44 0 -78 17v38q60 4 81.5 24.5t33.5 81.5l87 449h-149l-94 -470q-16 -75 -63.5 -114.5t-119.5 -39.5q-47 0 -81 17v38q62 4 85.5 25t34.5 81l91 463h-63l12 50l66 22l12 47q41 173 237 173q71 0 141 -34
q54 39 132 39q65 0 116 -24l-18 -95h-88q0 31 -4.5 43.5t-19.5 12.5q-17 0 -27 -12.5t-17 -46.5z" />
    <glyph glyph-name="f_h" unicode="fh" horiz-adv-x="879" 
d="M372 733q64 0 126 -31l82 28h13q6 -18 6 -52q0 -53 -14 -117l-38 -171q38 61 87.5 96.5t104.5 35.5q49 0 74 -28t25 -74q0 -25 -5 -45l-55 -237q-6 -25 -6 -41q0 -18 9.5 -25t32.5 -7q21 0 34 2l3 -41q-67 -35 -132 -35q-94 0 -94 90q0 25 8 60l48 208q3 13 3 25
q0 30 -29 30q-56 0 -129 -110l-64 -294h-146l124 570q4 22 4 35q0 66 -63 66q-36 0 -56.5 -19.5t-30.5 -67.5l-16 -75h106l-30 -73h-91l-94 -470q-16 -75 -63.5 -114.5t-119.5 -39.5q-47 0 -81 17v38q62 4 85.5 25t34.5 81l91 463h-63l12 50l66 22l15 60q41 165 226 165z
" />
    <glyph glyph-name="f_i" unicode="fi" horiz-adv-x="594" 
d="M545 380l-56 -242q-7 -30 -7 -41q0 -32 41 -32q9 0 35 2l4 -41q-68 -35 -135 -35q-93 0 -93 90q0 25 8 60l53 224q5 22 5 33q0 21 -12.5 29.5t-40.5 8.5h-84l-94 -470q-16 -75 -63.5 -114.5t-119.5 -39.5q-47 0 -81 17v38q62 4 85.5 25t34.5 81l91 463h-63l12 50l66 22
l14 58q40 167 245 167q94 0 164 -35l-25 -109h-104q0 44 -10 62.5t-42 18.5q-62 0 -78 -77l-17 -84h185q89 0 89 -78q0 -16 -7 -51z" />
    <glyph glyph-name="f_j" unicode="fj" horiz-adv-x="578" 
d="M348 436h-85l-94 -470q-16 -75 -63.5 -114.5t-119.5 -39.5q-47 0 -81 17v38q62 4 85.5 25t34.5 81l91 463h-63l12 50l66 22l14 58q40 167 245 167q94 0 164 -35l-25 -109h-104q0 44 -10 62.5t-42 18.5q-62 0 -78 -77l-17 -84h185q45 0 66.5 -18.5t21.5 -59.5
q0 -21 -6 -51l-78 -384q-18 -89 -77 -134t-179 -66l-16 55q64 21 89.5 52.5t41.5 110.5l69 351q4 20 4 32q0 22 -11.5 30.5t-39.5 8.5z" />
    <glyph glyph-name="f_k" unicode="fk" horiz-adv-x="845" 
d="M380 671q-36 0 -56 -20t-30 -67l-16 -75h106l-30 -73h-91l-94 -470q-16 -75 -63.5 -114.5t-119.5 -39.5q-47 0 -81 17v38q62 4 85.5 25t34.5 81l91 463h-63l12 50l66 22l15 60q41 165 226 165q63 0 125 -31l82 28h13q6 -18 6 -50q0 -54 -14 -119l-121 -561h-146l122 570
q4 17 4 35q0 66 -63 66zM586 92l-55 177l198 240h143l-9 -43q-66 0 -156 -98l-48 -51l67 -189q13 -38 25.5 -51t39.5 -13q13 0 29 2l4 -38q-57 -36 -121 -36q-48 0 -73.5 21.5t-43.5 78.5z" />
    <glyph glyph-name="f_l" unicode="fl" horiz-adv-x="603" 
d="M580 730h13q6 -18 6 -52q0 -49 -15 -119l-91 -421q-6 -25 -6 -41q0 -17 9.5 -24.5t33.5 -7.5q21 0 34 2l4 -41q-67 -35 -135 -35q-93 0 -93 92q0 29 8 64l91 423q4 17 4 36q0 65 -62 65q-36 0 -57 -19.5t-30 -65.5l-16 -77h106l-30 -73h-91l-94 -470
q-16 -75 -63.5 -114.5t-119.5 -39.5q-47 0 -81 17v38q62 4 85.5 25t34.5 81l91 463h-63l12 50l66 22l15 60q41 165 226 165q64 0 126 -31z" />
    <glyph glyph-name="f_t" unicode="ft" horiz-adv-x="656" 
d="M432 509q36 94 94 142l91 8q-22 -50 -45 -150h119l-29 -73h-106l-59 -273q-6 -30 -6 -49q0 -51 52 -51q30 0 66 13l8 -47q-62 -43 -147 -43q-62 0 -94 27.5t-32 76.5q0 29 9 71l57 275h-147l-94 -470q-16 -75 -63.5 -114.5t-119.5 -39.5q-47 0 -81 17v38q62 4 85.5 25
t34.5 81l91 463h-63l12 50l66 22l15 65q18 77 74 118.5t137 41.5q65 0 115 -24l-17 -95h-88q0 31 -4.5 43.5t-19.5 12.5q-17 0 -27 -12.5t-17 -46.5l-21 -102h154z" />
    <glyph glyph-name=".notdef" horiz-adv-x="553" 
d="M71 0v689h411v-689h-411zM121 50h311v589h-311v-589z" />
    <glyph glyph-name=".null" horiz-adv-x="0" 
 />
    <glyph glyph-name=".null" horiz-adv-x="0" 
 />
    <glyph glyph-name="nonmarkingreturn" horiz-adv-x="333" 
 />
    <glyph glyph-name="CR" unicode="&#xd;" horiz-adv-x="225" 
 />
    <glyph glyph-name="space" unicode=" " horiz-adv-x="225" 
 />
    <glyph glyph-name="exclam" unicode="!" horiz-adv-x="307" 
d="M335 703l-152 -480h-93l56 464zM206 81q0 -38 -27 -65.5t-65 -27.5q-37 0 -63.5 27.5t-26.5 65.5q0 37 26.5 63.5t63.5 26.5q38 0 65 -26.5t27 -63.5z" />
    <glyph glyph-name="quotedbl" unicode="&#x22;" horiz-adv-x="440" 
d="M390 453h-99l49 256h99zM211 453h-99l49 256h99z" />
    <glyph glyph-name="numbersign" unicode="#" horiz-adv-x="574" 
d="M583 422h-109l-43 -128h97l-15 -83h-109l-70 -211h-83l70 211h-118l-70 -211h-83l70 211h-94l16 83h105l43 128h-93l16 84h105l67 203h83l-68 -203h119l67 203h83l-68 -203h98zM392 422h-119l-43 -128h118z" />
    <glyph glyph-name="dollar" unicode="$" horiz-adv-x="535" 
d="M144 -101l17 89q-123 8 -181 60l26 138h98q0 -59 15.5 -92.5t53.5 -44.5l48 240l-42 18q-124 53 -124 177q0 99 67.5 159.5t180.5 62.5l17 86h55l-18 -88q106 -8 172 -52l-25 -135h-97q0 96 -63 119l-42 -214l38 -16q71 -31 107 -72.5t36 -113.5q0 -109 -72 -169.5
t-195 -64.5l-17 -87h-55zM344 161q0 68 -73 106l-44 -222q53 4 85 33.5t32 82.5zM184 539q0 -62 67 -94l39 198q-48 -2 -77 -30.5t-29 -73.5z" />
    <glyph glyph-name="percent" unicode="%" horiz-adv-x="1033" 
d="M1013 253q0 -117 -66.5 -189.5t-169.5 -72.5q-75 0 -117.5 43t-42.5 121q0 108 63.5 182t172.5 74q76 0 118 -41.5t42 -116.5zM784 37q72 0 102 194q5 37 5 59q0 72 -47 72q-38 0 -65 -53.5t-36 -138.5q-5 -38 -5 -59q0 -74 46 -74zM448 503q0 -117 -67 -189.5
t-170 -72.5q-75 0 -117.5 43t-42.5 121q0 108 64 182t172 74q77 0 119 -41.5t42 -116.5zM219 287q72 0 102 194q5 37 5 59q0 72 -47 72q-39 0 -65.5 -53t-36.5 -139q-4 -29 -4 -57q0 -76 46 -76zM858 730l-611 -853h-73l612 853h72z" />
    <glyph glyph-name="ampersand" unicode="&#x26;" horiz-adv-x="718" 
d="M624 286q-28 -76 -74 -138l53 -66q19 -22 36 -30t45 -8l-8 -44h-196l-41 49q-99 -63 -216 -63q-100 0 -158 43t-58 122q0 71 54 118t147 70l-30 34q-56 64 -56 137q0 82 64 139t175 57q90 0 141.5 -38t51.5 -107q0 -120 -182 -188l142 -178q38 55 38 106q0 20 -14 28
t-51 11l7 43h219l-7 -43q-36 -1 -53 -12t-29 -42zM282 51q66 0 124 39l-169 211q-75 -44 -75 -137q0 -55 32 -84t88 -29zM329 427l14 -17q88 64 88 147q0 42 -20 65.5t-56 23.5q-39 0 -65 -25.5t-26 -68.5q0 -51 65 -125z" />
    <glyph glyph-name="quotesingle" unicode="'" horiz-adv-x="261" 
d="M211 453h-99l49 256h99z" />
    <glyph glyph-name="parenleft" unicode="(" horiz-adv-x="397" 
d="M290 -122l-38 -36q-86 40 -139 128t-53 219q0 435 374 586l32 -42q-133 -83 -196 -235t-63 -332q0 -206 83 -288z" />
    <glyph glyph-name="parenright" unicode=")" horiz-adv-x="421" 
d="M141 740l38 35q86 -40 139 -127t53 -216q0 -439 -374 -590l-32 42q133 83 196 234.5t63 332.5q0 207 -83 289z" />
    <glyph glyph-name="asterisk" unicode="*" horiz-adv-x="460" 
d="M431 465l-124 -10l7 -129l-62 -16l-46 125l-118 -52l-31 55l98 82l-79 100l42 48l107 -73l67 109l55 -23l-35 -124l125 -30z" />
    <glyph glyph-name="plus" unicode="+" horiz-adv-x="584" 
d="M298 507h80l-39 -201h195l-13 -70h-196l-39 -203h-80l40 203h-194l13 70h194z" />
    <glyph glyph-name="comma" unicode="," horiz-adv-x="274" 
d="M212 60q0 -75 -59 -131.5t-144 -75.5l-22 38q51 15 81.5 39.5t30.5 50.5q0 22 -28 34q-45 21 -45 66q0 35 24.5 58.5t63.5 23.5q46 0 72 -30t26 -73z" />
    <glyph glyph-name="hyphen" unicode="-" horiz-adv-x="354" 
d="M291 222h-252l23 115h252z" />
    <glyph glyph-name="period" unicode="." horiz-adv-x="275" 
d="M207 81q0 -39 -27.5 -66.5t-66.5 -27.5q-38 0 -65 27.5t-27 66.5q0 38 27 65t65 27q39 0 66.5 -27t27.5 -65z" />
    <glyph glyph-name="slash" unicode="/" horiz-adv-x="392" 
d="M466 761l-437 -910h-93l436 910h94z" />
    <glyph glyph-name="zero" unicode="0" horiz-adv-x="590" 
d="M552 316q0 -88 -31 -161t-100 -121t-167 -48q-101 0 -158.5 56.5t-57.5 152.5q0 84 30.5 157.5t99 124.5t163.5 51q102 0 161.5 -53.5t59.5 -158.5zM399 369q0 94 -71 94q-58 0 -88 -67q-24 -50 -38.5 -124t-14.5 -137q0 -85 70 -85q55 0 86 62q56 110 56 257z" />
    <glyph glyph-name="one" unicode="1" horiz-adv-x="408" 
d="M358 515l-84 -391q-5 -23 -5 -36q0 -23 17 -32t63 -11l-9 -45h-341l9 45q65 3 85 18.5t31 66.5l58 273q-59 -28 -119 -43l-10 48l206 107h99z" />
    <glyph glyph-name="two" unicode="2" horiz-adv-x="472" 
d="M268 528q86 0 130.5 -37t44.5 -102q0 -43 -18.5 -79.5t-60 -70t-83.5 -58.5t-111 -60l-36 -19h287l-36 -102h-407l16 77l110 73q96 65 136 107.5t40 103.5q0 72 -72 72q-67 0 -135 -61l-32 51q38 46 96.5 75.5t130.5 29.5z" />
    <glyph glyph-name="three" unicode="3" horiz-adv-x="454" 
d="M191 439q-74 0 -138 -56l-31 49q88 96 226 96q84 0 128.5 -40t44.5 -111q0 -67 -45.5 -109.5t-119.5 -64.5q59 -7 92 -42t33 -85q0 -65 -32.5 -114t-86 -75t-111.5 -38.5t-119 -12.5q-70 0 -119 18l-16 59q61 -14 112 -14q102 0 159.5 45.5t57.5 133.5q0 89 -102 89
q-18 0 -50 -2l15 70q32 -2 54 -2q59 0 94 32t35 95q0 79 -81 79z" />
    <glyph glyph-name="four" unicode="4" horiz-adv-x="568" 
d="M237 -179l40 187h-296l15 67l310 440h150l-353 -441h188q19 88 42.5 145.5t63.5 114.5l106 16l-58 -276h80l-14 -66h-80l-36 -168z" />
    <glyph glyph-name="five" unicode="5" horiz-adv-x="451" 
d="M397 102q0 -65 -29.5 -117.5t-79.5 -84t-111.5 -48t-129.5 -16.5q-67 0 -120 20l-10 57q51 -15 106 -15q35 0 70 9t69.5 28t56 56.5t21.5 87.5q0 99 -97 99q-68 0 -118 -21l105 356h338l-41 -121h-261l-45 -151q39 15 105 15q82 0 126.5 -42t44.5 -112z" />
    <glyph glyph-name="six" unicode="6" horiz-adv-x="572" 
d="M544 693l7 -53q-247 -90 -330 -265q63 48 150 48q65 0 113 -45.5t48 -122.5q0 -127 -74.5 -198t-201.5 -71q-107 0 -164 56t-57 159q0 100 38.5 183t108.5 142.5t160.5 101t201.5 65.5zM382 238q0 109 -75 109q-56 0 -107 -34q-24 -59 -24 -138q0 -57 19 -94.5t62 -37.5
q60 0 92.5 58t32.5 137z" />
    <glyph glyph-name="seven" unicode="7" horiz-adv-x="465" 
d="M489 513l-41 -113q-202 -212 -303 -543l-165 -27q59 158 159.5 302.5t219.5 256.5h-330l41 124h419z" />
    <glyph glyph-name="eight" unicode="8" horiz-adv-x="558" 
d="M547 539q0 -125 -163 -168q69 -40 99 -79t30 -99q0 -96 -73 -151.5t-192 -55.5q-112 0 -173.5 43t-61.5 113q0 72 48 114t129 68q-45 29 -66.5 64.5t-21.5 87.5q0 93 68 148.5t173 55.5q93 0 148.5 -38.5t55.5 -102.5zM371 148q0 41 -28.5 71t-110.5 77q-84 -63 -84 -145
q0 -50 27 -78.5t78 -28.5q57 0 87.5 29t30.5 75zM421 539q0 37 -21.5 59t-65.5 22q-43 0 -68.5 -27.5t-25.5 -73.5q0 -61 96 -118q85 45 85 138z" />
    <glyph glyph-name="nine" unicode="9" horiz-adv-x="575" 
d="M540 311q0 -140 -70 -244.5t-188 -164t-278 -82.5l-27 49q132 34 233 102t142 156q-64 -42 -142 -42q-75 0 -123.5 45t-48.5 130q0 119 75.5 193.5t197.5 74.5q110 0 169.5 -58.5t59.5 -158.5zM374 193q22 52 22 128q0 62 -21.5 103.5t-68.5 41.5q-40 0 -68 -29
t-39.5 -71.5t-11.5 -93.5q0 -112 80 -112q60 0 107 33z" />
    <glyph glyph-name="colon" unicode=":" horiz-adv-x="303" 
d="M213 81q0 -39 -27.5 -66.5t-66.5 -27.5q-38 0 -65 27.5t-27 66.5q0 38 27 65t65 27q39 0 66.5 -27t27.5 -65zM266 373q0 -39 -27.5 -66.5t-66.5 -27.5q-38 0 -65 27.5t-27 66.5q0 38 27 65.5t65 27.5q39 0 66.5 -27.5t27.5 -65.5z" />
    <glyph glyph-name="semicolon" unicode=";" horiz-adv-x="299" 
d="M262 373q0 -39 -27.5 -66.5t-65.5 -27.5q-39 0 -66 27.5t-27 66.5q0 38 27 65.5t66 27.5q38 0 65.5 -27.5t27.5 -65.5zM215 60q0 -75 -59 -131.5t-144 -75.5l-22 38q51 15 81.5 39.5t30.5 50.5q0 22 -28 34q-45 21 -45 66q0 35 24.5 58.5t63.5 23.5q46 0 72 -30t26 -73z
" />
    <glyph glyph-name="less" unicode="&#x3c;" horiz-adv-x="537" 
d="M403 47l-334 201l16 82l419 235l-18 -94l-330 -182l263 -161z" />
    <glyph glyph-name="equal" unicode="=" horiz-adv-x="613" 
d="M52 159l14 71h466l-14 -71h-466zM82 315l14 72h467l-15 -72h-466z" />
    <glyph glyph-name="greater" unicode="&#x3e;" horiz-adv-x="530" 
d="M35 47l16 89l325 161l-258 182l17 86l328 -235l-16 -82z" />
    <glyph glyph-name="question" unicode="?" horiz-adv-x="479" 
d="M286 81q0 -39 -28 -66.5t-66 -27.5t-64.5 27.5t-26.5 66.5q0 37 26.5 64t64.5 27t66 -27t28 -64zM280 637q-40 0 -58.5 -22t-32.5 -74h-102l25 122q81 43 184 43q197 0 197 -141q0 -68 -39.5 -112t-108.5 -80q-68 -36 -89 -63t-21 -77v-11h-64q-18 25 -18 61
q0 81 103 155q45 33 64 60.5t19 73.5q0 65 -59 65z" />
    <glyph glyph-name="at" unicode="@" horiz-adv-x="907" 
d="M601 7q-70 0 -100.5 22t-30.5 68q-26 -45 -59 -68.5t-83 -23.5q-51 0 -79.5 32.5t-28.5 93.5q0 130 84 225t207 95q102 0 156 -33q-17 -46 -27 -92l-44 -201q-4 -17 -4 -32q0 -36 47 -36q57 0 96 58t39 168q0 148 -79.5 221.5t-217.5 73.5q-155 0 -250.5 -103.5
t-95.5 -281.5q0 -145 81.5 -233.5t222.5 -88.5q89 0 161 24l15 -36q-88 -35 -188 -35q-169 0 -275 97.5t-106 272.5q0 189 124 310t313 121q175 0 281 -94t106 -249q0 -138 -76 -206.5t-189 -68.5zM484 181l48 199q-15 16 -39 16q-62 0 -104.5 -81.5t-42.5 -174.5
q0 -56 35 -56q41 0 103 97z" />
    <glyph glyph-name="A" unicode="A" horiz-adv-x="648" 
d="M394 101l-10 86h-213l-39 -80q-10 -23 -10 -33q0 -27 55 -28l-9 -46h-221l8 46q35 4 52.5 16.5t37.5 50.5l300 582h125l87 -582q6 -38 16.5 -50.5t39.5 -16.5l-9 -46h-284l8 46q39 1 53 10t14 31q0 5 -1 14zM301 452l-94 -191h167l-21 183q-5 39 -5 84v15h-6
q-8 -23 -41 -91z" />
    <glyph glyph-name="B" unicode="B" horiz-adv-x="641" 
d="M117 695h307q211 0 211 -156q0 -79 -52 -127t-133 -54v-4q75 -7 115 -45.5t40 -97.5q0 -128 -118 -179q-47 -20 -91.5 -26t-116.5 -6h-297l8 46q41 0 58.5 14.5t25.5 56.5l89 458q4 20 4 31q0 23 -13.5 31.5t-45.5 9.5zM283 387h44q72 0 102 28q42 40 42 121
q0 52 -22.5 70t-74.5 18h-45zM343 318h-73l-49 -251h54q85 0 117 23q49 36 49 129q0 53 -22.5 76t-75.5 23z" />
    <glyph glyph-name="C" unicode="C" horiz-adv-x="617" 
d="M318 -14q-135 0 -201.5 70.5t-66.5 201.5q0 88 26.5 168t75.5 142.5t125.5 100t169.5 37.5q125 0 196 -51l-27 -135h-107q-2 63 -17.5 89.5t-60.5 26.5q-69 0 -119 -60.5t-73.5 -153.5t-23.5 -204q0 -89 28.5 -125.5t85.5 -36.5q53 0 84 29t53 92h108l-27 -138
q-35 -23 -99.5 -38t-129.5 -15z" />
    <glyph glyph-name="D" unicode="D" horiz-adv-x="697" 
d="M-18 0l8 46q41 0 58.5 14.5t25.5 56.5l89 458q4 18 4 31q0 23 -13.5 31.5t-45.5 9.5l9 48h277q136 0 207 -66t71 -194q0 -221 -120 -347q-84 -88 -258 -88h-312zM377 625h-47l-108 -558h48q56 0 93 13.5t65 53.5q33 49 55.5 143t22.5 191q0 86 -27 121.5t-102 35.5z" />
    <glyph glyph-name="E" unicode="E" horiz-adv-x="593" 
d="M-18 0l8 46q41 0 58.5 14.5t25.5 56.5l89 458q4 20 4 31q0 23 -13.5 31.5t-45.5 9.5l9 48h500l-21 -169h-74q-6 61 -20 79.5t-65 18.5h-108l-46 -238h61q47 0 66 14t30 57h66l-41 -209h-66q2 14 2 23q0 27 -15 37.5t-54 10.5h-62l-49 -252h123q51 0 76.5 24t44.5 92h76
l-35 -183h-524z" />
    <glyph glyph-name="F" unicode="F" horiz-adv-x="565" 
d="M269 314l-38 -196q-3 -16 -3 -29q0 -25 16 -34t58 -9l-8 -46h-312l8 46q41 0 58.5 14.5t25.5 56.5l89 458q4 22 4 31q0 23 -13.5 31.5t-45.5 9.5l9 48h499l-21 -171h-74q-7 63 -21.5 81.5t-66.5 18.5h-104l-47 -243h59q47 0 66 14t30 57h66l-41 -210h-66q2 14 2 24
q0 26 -15 37t-54 11h-60z" />
    <glyph glyph-name="G" unicode="G" horiz-adv-x="691" 
d="M340 54q50 0 82 20l30 156q4 20 4 31q0 23 -15.5 31.5t-55.5 9.5l10 47h296l-10 -47q-38 -1 -54.5 -15.5t-24.5 -56.5l-37 -190q-44 -25 -106 -39.5t-119 -14.5q-290 0 -290 272q0 86 25.5 164.5t74.5 142.5t128.5 102.5t178.5 38.5q131 0 206 -51l-27 -135h-105
q-1 62 -20 88.5t-70 26.5q-106 0 -166 -119t-60 -299q0 -86 31 -124.5t94 -38.5z" />
    <glyph glyph-name="H" unicode="H" horiz-adv-x="750" 
d="M712 575l-89 -458q-8 -42 3.5 -56.5t51.5 -14.5l-8 -46h-295l8 46q40 0 57.5 14.5t25.5 56.5l39 202h-235l-39 -202q-8 -42 3.5 -56.5t51.5 -14.5l-8 -46h-296l8 46q41 0 58.5 14.5t25.5 56.5l89 458q8 42 -3.5 56.5t-51.5 15.5l9 48h295l-9 -48q-40 -1 -57.5 -15.5
t-25.5 -56.5l-36 -181h235l36 181q8 42 -3.5 56.5t-51.5 15.5l9 48h295l-9 -48q-40 -1 -57.5 -15.5t-25.5 -56.5z" />
    <glyph glyph-name="I" unicode="I" horiz-adv-x="358" 
d="M320 575l-89 -458q-8 -42 3.5 -56.5t51.5 -14.5l-8 -46h-296l8 46q41 0 58.5 14.5t25.5 56.5l89 458q4 20 4 31q0 23 -13.5 31.5t-45.5 9.5l9 48h295l-9 -48q-40 -1 -57.5 -15.5t-25.5 -56.5z" />
    <glyph glyph-name="J" unicode="J" horiz-adv-x="357" 
d="M321 575l-93 -480q-24 -120 -93 -175t-205 -67l-15 47q79 25 108.5 66.5t47.5 133.5l93 475q4 18 4 31q0 23 -13.5 31.5t-45.5 9.5l9 48h295l-9 -48q-40 -1 -57.5 -15.5t-25.5 -56.5z" />
    <glyph glyph-name="K" unicode="K" horiz-adv-x="665" 
d="M602 576l-171 -175l131 -306q12 -26 28.5 -36.5t48.5 -12.5l-8 -46h-204l-135 347l222 240q19 20 19 36q0 25 -39 25l9 47h225l-9 -47q-32 -4 -55.5 -19t-61.5 -53zM320 575l-89 -458q-4 -24 -4 -31q0 -23 13.5 -31.5t45.5 -8.5l-8 -46h-296l8 46q41 0 58.5 14.5
t25.5 56.5l89 458q4 22 4 31q0 23 -13.5 31.5t-45.5 9.5l9 48h295l-9 -48q-40 -1 -57.5 -15.5t-25.5 -56.5z" />
    <glyph glyph-name="L" unicode="L" horiz-adv-x="561" 
d="M221 67h93q50 0 82.5 27.5t59.5 97.5h77l-52 -192h-499l8 46q41 0 58.5 14.5t25.5 56.5l89 458q8 42 -3.5 56.5t-51.5 15.5l9 48h296l-8 -48q-42 -1 -59.5 -15.5t-25.5 -56.5z" />
    <glyph glyph-name="M" unicode="M" horiz-adv-x="889" 
d="M928 695l-9 -47q-51 -3 -66.5 -18.5t-21.5 -57.5l-57 -448q-5 -45 5 -61t51 -17l-8 -46h-293l8 46q47 1 61 14.5t20 56.5l43 315q9 70 22 137h-6q-22 -65 -56 -135l-217 -434h-92l-38 417q-4 44 -4 100q0 15 0.5 33t0.5 19h-6q-12 -78 -30 -142l-86 -309q-7 -26 -7 -37
q0 -19 14 -27t47 -8l-9 -46h-224l8 46q42 1 58.5 16.5t29.5 61.5l124 448q7 22 7 40t-14.5 26t-50.5 10l9 47h258l29 -353q5 -57 5 -103q0 -12 -0.5 -26t-0.5 -15h6q13 55 50 135l173 362h267z" />
    <glyph glyph-name="N" unicode="N" horiz-adv-x="698" 
d="M558 0h-99l-170 386q-46 102 -51 167h-6q-9 -105 -22 -171l-51 -265q-4 -20 -4 -31q0 -23 13 -31.5t45 -8.5l-8 -46h-223l8 46q41 0 58.5 14.5t25.5 56.5l89 458q4 24 4 31q0 23 -13.5 31.5t-45.5 9.5l9 48h217l146 -337q33 -76 37 -141h6q4 62 23 159l39 199q4 22 4 31
q0 23 -13.5 31.5t-45.5 9.5l9 48h219l-8 -48q-39 -1 -56 -15.5t-25 -56.5z" />
    <glyph glyph-name="O" unicode="O" horiz-adv-x="703" 
d="M679 423q0 -63 -13 -124t-41.5 -118t-70 -100t-102 -69t-133.5 -26q-130 0 -199.5 77.5t-69.5 206.5q0 61 13.5 121.5t42.5 117.5t70.5 100.5t101.5 70t131 26.5q125 0 197.5 -74t72.5 -209zM513 472q0 85 -23.5 124.5t-80.5 39.5q-72 0 -111 -63q-42 -67 -62.5 -167
t-20.5 -194q0 -159 103 -159q72 0 113 63q40 60 61 162.5t21 193.5z" />
    <glyph glyph-name="P" unicode="P" horiz-adv-x="610" 
d="M260 267l-29 -149q-3 -16 -3 -29q0 -25 16 -34t58 -9l-8 -46h-312l8 46q41 0 58.5 14.5t25.5 56.5l89 458q4 24 4 31q0 23 -13.5 31.5t-45.5 9.5l9 48h282q121 0 179 -43.5t58 -141.5q0 -74 -35.5 -131t-103.5 -86q-59 -26 -163 -26h-74zM475 513q0 58 -22.5 84.5
t-76.5 26.5h-47l-55 -283h47q68 0 101 28q53 45 53 144z" />
    <glyph glyph-name="Q" unicode="Q" horiz-adv-x="703" 
d="M679 423q0 -97 -30 -185t-98.5 -156t-165.5 -85q100 -31 181 -31q45 0 80 8l-44 -112q-27 -15 -84 -15q-35 0 -70 12.5t-56.5 26.5t-57.5 41t-53 38q-15 10 -73 38t-84 55q-74 77 -74 214q0 60 13.5 120.5t42.5 117t70.5 100t102 70t131.5 26.5q125 0 197 -74t72 -209z
M513 472q0 85 -23.5 124.5t-80.5 39.5q-72 0 -111 -63q-42 -67 -62.5 -167t-20.5 -194q0 -159 102 -159q38 0 64 13.5t50 49.5q40 61 61 163.5t21 192.5z" />
    <glyph glyph-name="R" unicode="R" horiz-adv-x="656" 
d="M329 624l-50 -262h52q69 0 106.5 44t37.5 120q0 53 -23.5 75.5t-77.5 22.5h-45zM265 292l-34 -175q-4 -24 -4 -31q0 -23 13.5 -31.5t45.5 -8.5l-8 -46h-296l8 46q41 0 58.5 14.5t25.5 56.5l89 458q4 20 4 31q0 23 -13.5 31.5t-45.5 9.5l9 48h291q228 0 228 -167
q0 -96 -61 -150.5t-162 -65.5v-4q64 -20 93 -71q23 -39 54 -133q11 -32 23.5 -45t41.5 -13l-8 -46h-193q-36 130 -63 207q-17 47 -37 63.5t-59 21.5z" />
    <glyph glyph-name="S" unicode="S" horiz-adv-x="537" 
d="M235 45q54 0 86.5 29.5t32.5 86.5q0 43 -20 68t-69 47l-64 29q-121 55 -121 180q0 102 70 161.5t184 59.5q130 0 210 -54l-26 -135h-98v8q0 60 -23.5 89t-76.5 29q-50 0 -79.5 -28t-29.5 -74q0 -38 21 -61.5t60 -41.5l66 -29q70 -31 106 -72.5t36 -116.5q0 -110 -75 -172
t-199 -62q-83 0 -141.5 18.5t-86.5 43.5l25 138h102v-9q0 -66 25.5 -99t84.5 -33z" />
    <glyph glyph-name="T" unicode="T" horiz-adv-x="615" 
d="M113 695h557l-27 -186h-75q-3 71 -14 93t-54 22h-43l-98 -507q-4 -17 -4 -30q0 -23 15 -32t52 -9l-9 -46h-312l8 46q46 0 65 14.5t27 56.5l98 507h-42q-46 0 -65.5 -22t-47.5 -93h-76z" />
    <glyph glyph-name="U" unicode="U" horiz-adv-x="685" 
d="M353 68q65 0 103 40t54 123l66 344q4 20 4 32q0 22 -13.5 30.5t-46.5 9.5l9 48h220l-9 -48q-39 -1 -56 -15.5t-25 -56.5l-67 -349q-24 -120 -87.5 -180t-177.5 -60q-242 0 -245 184q0 40 9 91l61 314q8 42 -3.5 56.5t-51.5 15.5l9 48h295l-8 -48q-41 -1 -58.5 -15.5
t-25.5 -56.5l-63 -324q-9 -48 -9 -83q1 -51 28.5 -75.5t87.5 -24.5z" />
    <glyph glyph-name="V" unicode="V" horiz-adv-x="662" 
d="M295 588l36 -323q6 -58 6 -116h6q12 36 53 118l161 321q10 20 10 31q0 27 -54 28l9 48h223l-10 -48q-35 -5 -51 -16t-36 -49l-307 -582h-126l-82 581q-5 38 -15 50t-39 16l9 48h283l-9 -48q-39 -1 -54.5 -15.5t-12.5 -43.5z" />
    <glyph glyph-name="W" unicode="W" horiz-adv-x="927" 
d="M635 695l19 -408q1 -21 1 -69q0 -64 -1 -74h6q17 66 49 145l115 294q8 22 8 33q0 17 -12.5 23.5t-41.5 7.5l8 48h223l-8 -48q-35 -5 -53 -18.5t-34 -51.5l-244 -577h-147l-17 329q-1 17 -1 55q0 57 3 90h-6q-19 -72 -47 -137l-146 -337h-149l-28 581q-2 38 -12.5 50
t-40.5 16l9 48h279l-9 -48q-37 -1 -52.5 -13.5t-15.5 -40.5v-3l9 -304v-18q0 -65 -4 -125h6q16 62 50 145l167 407h117z" />
    <glyph glyph-name="X" unicode="X" horiz-adv-x="671" 
d="M602 584l-178 -206l115 -267q15 -35 30.5 -48t44.5 -17l-8 -46h-291l8 46q56 0 56 35q0 13 -6 28l-68 166h-5l-127 -161q-51 -66 25 -68l-8 -46h-221l8 46q31 4 53 18t51 51l190 233l-101 238q-15 34 -28 45.5t-39 15.5l10 48h280l-9 -48q-56 -1 -56 -33q0 -11 6 -26
l56 -142h6l109 138q20 26 20 41q0 21 -41 22l9 48h218l-8 -48q-31 -4 -52 -17t-49 -46z" />
    <glyph glyph-name="Y" unicode="Y" horiz-adv-x="627" 
d="M207 117l28 144l-93 322q-10 36 -23 48t-40 16l9 48h271l-9 -48q-65 -1 -48 -64l59 -238h5l148 239q14 23 14 37q0 25 -45 26l9 48h217l-8 -48q-31 -4 -48 -15.5t-41 -46.5l-219 -322l-28 -146q-8 -43 4.5 -57t58.5 -14l-8 -46h-312l8 46q46 0 65 14.5t26 56.5z" />
    <glyph glyph-name="Z" unicode="Z" horiz-adv-x="571" 
d="M-23 0l10 56l433 574h-121q-48 0 -75.5 -25.5t-55.5 -87.5h-78l45 178h484l-11 -56l-430 -572h138q56 0 87 26.5t60 96.5h75l-48 -190h-513z" />
    <glyph glyph-name="bracketleft" unicode="[" horiz-adv-x="373" 
d="M263 -155h-245l181 928h245l-11 -56h-106l-159 -816h106z" />
    <glyph glyph-name="backslash" unicode="\" horiz-adv-x="438" 
d="M379 -149h-90l-173 910h90z" />
    <glyph glyph-name="bracketright" unicode="]" horiz-adv-x="373" 
d="M128 773h245l-181 -928h-245l11 56h106l159 816h-106z" />
    <glyph glyph-name="asciicircum" unicode="^" horiz-adv-x="556" 
d="M513 310h-100l-80 291l-189 -291h-105l266 398h96z" />
    <glyph glyph-name="underscore" unicode="_" horiz-adv-x="496" 
d="M438 -125h-500v73h500v-73z" />
    <glyph glyph-name="grave" unicode="`" horiz-adv-x="472" 
d="M360 593l-25 -35l-240 96l77 125z" />
    <glyph glyph-name="a" unicode="a" horiz-adv-x="579" 
d="M344 522q82 0 97 -57q12 21 40 45h90q-25 -53 -43 -132l-54 -240q-6 -24 -6 -39q0 -19 10.5 -26.5t35.5 -7.5q7 0 29 2l3 -41q-62 -35 -130 -35q-92 0 -92 98v5.5v5.5l1 3q-74 -116 -176 -116q-59 0 -91.5 37.5t-32.5 106.5q0 152 97 271.5t222 119.5zM347 450
q-45 0 -85.5 -45.5t-63.5 -114.5t-23 -138q0 -71 39 -71q51 0 128 120l54 228q-15 21 -49 21z" />
    <glyph glyph-name="b" unicode="b" horiz-adv-x="582" 
d="M261 -14q-97 0 -124 62q-12 -29 -33 -48h-94q21 51 40 143l91 429q5 27 5 40q0 26 -13.5 36t-45.5 11l10 45l185 26h13q6 -18 6 -50q0 -49 -15 -119l-36 -160q76 120 181 120q58 0 92 -43t34 -125q0 -150 -84 -258.5t-212 -108.5zM237 56q73 0 117 90.5t44 196.5
q0 73 -46 73q-27 0 -59.5 -28.5t-59.5 -69.5l-50 -236q13 -26 54 -26z" />
    <glyph glyph-name="c" unicode="c" horiz-adv-x="475" 
d="M333 522q99 0 149 -42l-21 -109h-100v17q0 36 -9 53t-35 17q-58 0 -96 -82.5t-38 -192.5t89 -110q36 0 62 11.5t59 36.5l32 -46q-74 -89 -200 -89q-92 0 -142.5 54t-50.5 152q0 80 35 154.5t105.5 125t160.5 50.5z" />
    <glyph glyph-name="d" unicode="d" horiz-adv-x="595" 
d="M351 201l50 231q-16 18 -47 18q-70 0 -124.5 -92t-54.5 -204q0 -73 41 -73q60 0 135 120zM337 103q-32 -52 -80.5 -84t-103.5 -32q-60 0 -94 38t-34 107q0 154 100 272t228 118q40 0 66 -16l14 66q5 27 5 40q0 26 -14 36t-46 11l11 45l183 26h13q6 -18 6 -52
q0 -53 -14 -117l-91 -423q-5 -27 -5 -39q0 -19 10 -26.5t34 -7.5q6 0 30 2l3 -41q-67 -35 -131 -35q-91 0 -91 94v11z" />
    <glyph glyph-name="e" unicode="e" horiz-adv-x="515" 
d="M180 172q0 -98 92 -98q82 0 147 58l31 -43q-89 -103 -223 -103q-97 0 -146 51.5t-49 146.5q0 136 87 237t211 101q81 0 127 -33.5t46 -104.5q0 -47 -24 -80.5t-66.5 -52t-93.5 -27t-113 -8.5h-24q-2 -19 -2 -44zM367 403q0 25 -12.5 39.5t-33.5 14.5q-43 0 -77.5 -49.5
t-50.5 -130.5h4q170 0 170 126z" />
    <glyph glyph-name="f" unicode="f" horiz-adv-x="351" 
d="M169 -34q-16 -75 -63.5 -114.5t-119.5 -39.5q-47 0 -81 17v38q62 4 85.5 25t34.5 81l91 463h-63l12 50l66 22l15 65q18 77 75 118.5t136 41.5q81 0 131 -24l-17 -95h-90q0 30 -7 43t-26 13q-18 0 -30 -13t-19 -46l-21 -102h122l-31 -73h-106z" />
    <glyph glyph-name="g" unicode="g" horiz-adv-x="528" 
d="M178 -202q-224 0 -224 101q0 50 58 77l98 2q-21 -28 -21 -62q0 -31 23 -44t72 -13q137 0 137 85q0 28 -21.5 40t-69.5 16q-101 9 -122 12q-40 5 -59.5 22.5t-19.5 53.5q0 87 128 119q-105 25 -105 130q0 84 64.5 134.5t165.5 50.5q39 0 97 -13t76 -13q50 0 99 39l32 -96
q-33 -19 -77 -19q-39 0 -62 11q32 -27 32 -84q0 -63 -56.5 -108.5t-175.5 -45.5q-5 0 -13 0.5t-13 0.5q-58 -15 -58 -39q0 -21 24 -23l121 -13q73 -8 111.5 -35.5t38.5 -91.5q0 -67 -39.5 -112t-100.5 -63.5t-140 -18.5zM254 253q44 0 65.5 39t21.5 100q0 68 -60 68
q-41 0 -64 -39.5t-23 -98.5q0 -34 17 -51.5t43 -17.5z" />
    <glyph glyph-name="h" unicode="h" horiz-adv-x="579" 
d="M333 141l48 208q3 13 3 25q0 30 -29 30q-56 0 -129 -110l-64 -294h-146l124 572q5 27 5 40q0 26 -14 36t-46 11l11 45l184 26h13q6 -18 6 -52q0 -53 -14 -117l-38 -171q38 61 87.5 96.5t104.5 35.5q49 0 74 -28t25 -74q0 -25 -5 -45l-55 -237q-6 -25 -6 -41
q0 -18 9.5 -25t32.5 -7q21 0 34 2l3 -41q-67 -35 -132 -35q-94 0 -94 90q0 25 8 60z" />
    <glyph glyph-name="i" unicode="i" horiz-adv-x="300" 
d="M251 380l-56 -242q-7 -30 -7 -41q0 -32 41 -32q9 0 35 2l4 -41q-68 -35 -135 -35q-93 0 -93 90q0 25 8 60l53 215q6 22 6 38q0 26 -17 37.5t-54 11.5l9 39q64 33 127 33q86 0 86 -81q0 -25 -7 -54zM304 655q0 -34 -25 -58.5t-60 -24.5t-59.5 24.5t-24.5 58.5
q0 35 25 59.5t61 24.5q34 0 58.5 -24.5t24.5 -59.5z" />
    <glyph glyph-name="j" unicode="j" horiz-adv-x="284" 
d="M175 -4q-18 -89 -76.5 -134t-178.5 -66l-16 55q64 21 89.5 52.5t41.5 110.5l68 342q5 25 5 37q0 27 -16 38.5t-54 11.5l9 39q64 33 127 33q86 0 86 -83q0 -22 -6 -52zM306 655q0 -34 -25 -58.5t-60 -24.5t-59.5 24.5t-24.5 58.5q0 35 25 59.5t61 24.5q35 0 59 -24.5
t24 -59.5z" />
    <glyph glyph-name="k" unicode="k" horiz-adv-x="544" 
d="M283 561l-121 -561h-146l123 572q5 25 5 39q0 26 -14 36.5t-46 11.5l11 45l184 26h13q6 -18 6 -50q0 -49 -15 -119zM285 92l-55 177l198 240h143l-9 -43q-66 0 -156 -98l-48 -51l67 -189q13 -38 25.5 -51t39.5 -13q13 0 29 2l4 -38q-57 -36 -121 -36q-48 0 -73.5 21.5
t-43.5 78.5z" />
    <glyph glyph-name="l" unicode="l" horiz-adv-x="298" 
d="M280 561l-91 -423q-6 -26 -6 -41q0 -17 9.5 -24.5t33.5 -7.5q7 0 33 2l4 -41q-67 -35 -134 -35q-94 0 -94 92q0 27 7 58l93 431q5 27 5 40q0 26 -13.5 36t-45.5 11l10 45l185 26h13q6 -18 6 -50q0 -49 -15 -119z" />
    <glyph glyph-name="m" unicode="m" horiz-adv-x="860" 
d="M701 -9q-95 0 -95 90q0 25 8 60l48 205q3 14 3 24q0 31 -30 31q-45 0 -118 -105l-61 -296h-146l73 345q3 13 3 26q0 30 -30 30q-47 0 -118 -107l-63 -294h-145l79 369q3 15 3 26q0 25 -16 36t-53 12l9 39q66 33 126 33q76 0 76 -94q0 -17 -3 -38q86 139 186 139
q48 0 73 -31t25 -79q0 -8 -2 -26q90 136 187 136q49 0 74 -28t25 -74q0 -25 -5 -45l-55 -237q-6 -25 -6 -41q0 -18 9.5 -25t33.5 -7q19 0 33 2l3 -41q-67 -35 -131 -35z" />
    <glyph glyph-name="n" unicode="n" horiz-adv-x="591" 
d="M345 141l49 208q3 13 3 24q0 31 -30 31q-56 0 -129 -110l-63 -294h-145l79 369q3 15 3 26q0 25 -16 36t-53 12l9 39q66 33 126 33q76 0 76 -94q0 -17 -3 -38q86 139 200 139q49 0 74 -28t25 -74q0 -25 -5 -45l-54 -237q-6 -25 -6 -41q0 -17 9.5 -24.5t32.5 -7.5q7 0 33 2
l3 -41q-67 -35 -131 -35q-95 0 -95 90q0 25 8 60z" />
    <glyph glyph-name="o" unicode="o" horiz-adv-x="552" 
d="M527 314q0 -137 -75.5 -232.5t-213.5 -95.5q-95 0 -151 56t-56 149q0 134 77 232.5t209 98.5q96 0 153 -53.5t57 -154.5zM376 364q0 93 -63 93q-52 0 -82 -66q-22 -50 -36 -121.5t-14 -135.5q0 -85 62 -85q53 0 80 62q22 43 37.5 114.5t15.5 138.5z" />
    <glyph glyph-name="p" unicode="p" horiz-adv-x="595" 
d="M246 318l-52 -248q13 -23 48 -23q53 0 93 49.5t58 115.5t18 131q0 73 -46 73q-27 0 -60 -28t-59 -70zM178 -4l-17 -77q-5 -23 -5 -35q0 -20 12 -27t43 -8l-11 -45h-272l10 45q38 1 52 14t23 56l96 450q3 15 3 27q0 24 -15.5 35t-52.5 12l8 39q66 33 126 33q81 0 81 -97
q0 -14 -1 -21q80 124 186 124q57 0 91.5 -41t34.5 -114q0 -158 -93 -269t-232 -111q-44 0 -67 10z" />
    <glyph glyph-name="q" unicode="q" horiz-adv-x="573" 
d="M280 -81l47 184q-74 -116 -178 -116q-60 0 -93 37.5t-33 106.5q0 99 46 190t121.5 146t157.5 55t97 -57q12 21 40 45h90q-25 -53 -43 -132l-105 -459q-5 -25 -5 -36q0 -19 11.5 -26t40.5 -8l-11 -45h-274l11 45q40 1 54.5 14.5t25.5 55.5zM351 450q-70 0 -123.5 -93.5
t-53.5 -204.5q0 -71 40 -71q55 0 132 120l54 228q-15 21 -49 21z" />
    <glyph glyph-name="r" unicode="r" horiz-adv-x="420" 
d="M30 0l79 369q3 15 3 26q0 25 -16 36t-53 12l9 39q66 33 126 33q72 0 72 -102q0 -17 -3 -40q29 67 71 108t89 41q26 0 46 -10l-36 -151q-28 11 -55 11q-54 0 -88.5 -35t-53.5 -127l-45 -210h-145z" />
    <glyph glyph-name="s" unicode="s" horiz-adv-x="456" 
d="M177 -14q-112 0 -175 46l17 108h91v-4q0 -43 19 -64.5t61 -21.5q92 0 92 70q0 26 -15.5 40.5t-49.5 26.5l-43 15q-55 18 -84 52t-29 91q0 84 60.5 130.5t154.5 46.5t165 -39l-18 -106h-88q-1 41 -18 62t-56 21q-35 0 -58 -18t-23 -50q0 -37 58 -57l44 -15
q67 -22 97.5 -56.5t30.5 -93.5q0 -85 -62.5 -134.5t-170.5 -49.5z" />
    <glyph glyph-name="t" unicode="t" horiz-adv-x="356" 
d="M391 509l-29 -73h-106l-58 -273q-6 -30 -6 -49q0 -27 12 -39t39 -12q30 0 66 13l8 -47q-62 -43 -147 -43q-62 0 -94 27.5t-32 76.5q0 29 9 71l58 275h-59l10 50l71 23q39 103 87 142l97 8q-24 -59 -45 -150h119z" />
    <glyph glyph-name="u" unicode="u" horiz-adv-x="575" 
d="M325 99q-74 -113 -183 -113q-52 0 -78 27.5t-26 75.5q0 24 6 51l51 216q5 19 5 38q0 27 -16 38t-52 11l8 39q66 33 127 33q85 0 85 -85q0 -23 -7 -53l-51 -221q-4 -17 -4 -32q0 -33 32 -33q53 0 122 110l65 308h143l-77 -371q-5 -25 -5 -38q0 -19 11 -27t36 -8q6 0 28 2
l3 -41q-62 -35 -131 -35q-93 0 -93 93v9z" />
    <glyph glyph-name="v" unicode="v" horiz-adv-x="491" 
d="M120 -1l-37 361q-6 54 -17.5 69.5t-57.5 15.5l8 39q50 31 118 31q39 0 58.5 -24t24.5 -79l15 -165q4 -54 4 -70q0 -37 -3 -55h6l58 121q82 172 85 273l128 -14v-43l-275 -460h-115z" />
    <glyph glyph-name="w" unicode="w" horiz-adv-x="765" 
d="M117 -2l-33 352q-6 61 -17.5 78t-58.5 17l8 39q50 31 118 31q39 0 58 -23.5t24 -79.5l15 -146q3 -33 3 -59q0 -37 -5 -67h6l155 369h109l21 -237q6 -60 6 -109q0 -5 -0.5 -13.5t-0.5 -9.5h6l54 114q69 148 72 262l127 -14v-43l-264 -461h-109l-18 213q-3 34 -3 67
q0 39 3 60h-4l-154 -340h-118z" />
    <glyph glyph-name="x" unicode="x" horiz-adv-x="518" 
d="M192 251l-49 136q-15 41 -31.5 52t-57.5 11l7 39q54 26 116 26q40 0 60.5 -15.5t32.5 -55.5l32 -102l109 167h138l-9 -45q-63 -6 -121 -78l-93 -116l51 -149q12 -35 24.5 -47.5t40.5 -12.5q7 0 29 2l6 -42q-66 -30 -128 -30q-43 0 -65.5 18.5t-36.5 66.5l-31 104
l-117 -180h-133l9 49q38 7 63.5 24.5t60.5 61.5z" />
    <glyph glyph-name="y" unicode="y" horiz-adv-x="492" 
d="M182 13l-61 -3q-4 100 -20 214l-20 144q-7 50 -20.5 63.5t-52.5 13.5l7 40q62 30 118 30q45 0 62.5 -29t27.5 -105l14 -110q6 -52 6 -92q0 -42 -6 -81h6l43 88q95 194 97 330l128 -14v-43l-254 -470q-49 -91 -108 -137.5t-137 -58.5l-55 98q88 15 142 39.5t83 82.5z" />
    <glyph glyph-name="z" unicode="z" horiz-adv-x="481" 
d="M492 444l-348 -320q30 3 54 3q29 0 66.5 -4.5t48.5 -4.5q40 0 61 13.5t40 53.5l40 -12q-19 -107 -55 -146.5t-98 -39.5q-48 0 -102 23t-87 23q-44 0 -71 -33h-57l12 64l336 314q-35 1 -78.5 4.5t-58.5 3.5q-69 0 -90 -65l-46 9q17 186 149 186q43 0 102 -22.5t77 -22.5
t31 8t35 30h53z" />
    <glyph glyph-name="braceleft" unicode="{" horiz-adv-x="388" 
d="M28 284l9 49q54 0 84.5 21t39.5 70l41 210q28 139 166 139h94l-10 -50h-31q-75 0 -93 -95l-36 -186q-7 -36 -22 -62t-33 -40t-33 -20.5t-29 -8.5l-1 -4q26 -4 48 -25.5t22 -66.5q0 -18 -4 -37l-36 -188q-4 -24 -4 -35q0 -60 60 -60h32l-11 -50h-94q-117 0 -117 97
q0 18 5 43l41 208q3 15 3 27q0 64 -91 64z" />
    <glyph glyph-name="bar" unicode="|" horiz-adv-x="265" 
d="M103 -149h-88l176 910h88z" />
    <glyph glyph-name="braceright" unicode="}" horiz-adv-x="398" 
d="M380 334l-10 -49q-54 0 -83.5 -21t-39.5 -70l-41 -209q-28 -140 -166 -140h-95l11 50h30q75 0 94 95l36 186q7 36 21.5 62t32.5 40t33 20.5t29 8.5l1 4q-26 4 -48 25.5t-22 66.5q0 18 4 37l37 188q4 24 4 35q0 60 -61 60h-31l10 50h95q117 0 117 -97q0 -18 -5 -43
l-41 -208q-3 -15 -3 -27q0 -64 91 -64z" />
    <glyph glyph-name="asciitilde" unicode="~" horiz-adv-x="577" 
d="M383 342q62 0 88 52l38 -18q-17 -61 -54 -101.5t-79 -40.5q-34 0 -96.5 17.5t-85.5 17.5q-55 0 -85 -55l-35 17q11 62 47.5 105t79.5 43q33 0 94 -18.5t88 -18.5z" />
    <glyph glyph-name="uni00A0" unicode="&#xa0;" horiz-adv-x="225" 
 />
    <glyph glyph-name="exclamdown" unicode="&#xa1;" horiz-adv-x="307" 
d="M-36 -193l152 481h93l-56 -465zM93 429q0 39 27 66t65 27t64.5 -27t26.5 -66q0 -37 -27 -63.5t-64 -26.5q-38 0 -65 26.5t-27 63.5z" />
    <glyph glyph-name="cent" unicode="&#xa2;" horiz-adv-x="511" 
d="M182 -101l17 88q-82 8 -128 61t-46 144q0 118 77 216.5t202 111.5l17 85h55l-17 -84q88 -5 138 -44l-21 -109h-94v10q0 38 -7.5 56.5t-27.5 24.5l-77 -390q67 1 133 53l32 -44q-68 -80 -181 -90l-17 -89h-55zM167 183q0 -77 51 -103l73 376q-53 -20 -88.5 -98t-35.5 -175
z" />
    <glyph glyph-name="sterling" unicode="&#xa3;" horiz-adv-x="594" 
d="M38 307l12 60h79l17 90q22 115 96 169t185 54q109 0 167 -50l-23 -115h-104v9q0 50 -11.5 71.5t-45.5 21.5q-40 0 -64 -31t-37 -96l-24 -123h179l-12 -60h-178l-47 -240h98q51 0 83 27.5t59 97.5h77l-51 -192h-519l9 46q46 0 67.5 14.5t29.5 56.5l37 190h-79z" />
    <glyph glyph-name="currency" unicode="&#xa4;" horiz-adv-x="496" 
d="M76 31l-51 39l64 76q-35 37 -35 97q0 57 25 105.5t67 77.5l-35 74l66 39l35 -78q28 11 73 11q36 0 67 -11l64 77l51 -39l-60 -72q36 -39 36 -98t-27 -109t-70 -78l34 -74l-66 -38l-36 79q-29 -8 -66 -8q-41 0 -70 11zM271 409q-54 0 -82.5 -47t-28.5 -120q0 -81 63 -81
q42 0 69 31.5t35.5 67.5t8.5 74q0 75 -65 75z" />
    <glyph glyph-name="yen" unicode="&#xa5;" horiz-adv-x="624" 
d="M67 319l11 56h112l-60 208q-10 36 -23 48t-40 16l9 48h271l-9 -48q-52 -1 -52 -40q0 -11 3 -24l60 -238h5l148 239q39 62 -31 63l9 48h217l-8 -48q-30 -4 -47 -15t-41 -46l-144 -211h128l-12 -56h-154l-38 -56l-3 -10h183l-11 -56h-182l-15 -80q-8 -43 4.5 -57t58.5 -14
l-8 -46h-312l8 46q46 0 65 14.5t26 56.5l15 80h-167l12 56h166l1 8l-17 58h-138z" />
    <glyph glyph-name="brokenbar" unicode="&#xa6;" horiz-adv-x="266" 
d="M202 356h-88l78 401h88zM103 -150h-88l78 401h88z" />
    <glyph glyph-name="section" unicode="&#xa7;" horiz-adv-x="493" 
d="M20 266q0 130 153 176q-67 46 -67 128q0 79 58.5 124t146.5 45q101 0 172 -39l-18 -106h-88q-2 82 -74 82q-35 0 -57.5 -17.5t-22.5 -49.5q0 -36 51 -59l82 -38q65 -30 93 -68t28 -93q0 -133 -153 -176q40 -24 58.5 -55t18.5 -78q0 -76 -61 -125.5t-164 -49.5
q-117 0 -180 47l18 107h91v-4q0 -43 18 -64.5t61 -21.5q90 0 90 69q0 25 -13.5 40t-44.5 30l-81 38q-58 27 -86.5 64.5t-28.5 93.5zM137 314q0 -52 60 -79l65 -30q87 22 87 93q0 36 -16.5 56.5t-49.5 35.5l-50 22q-45 -12 -70.5 -38t-25.5 -60z" />
    <glyph glyph-name="dieresis" unicode="&#xa8;" horiz-adv-x="534" 
d="M238 646q0 -33 -24.5 -56.5t-58.5 -23.5t-58 23.5t-24 56.5q0 34 24.5 57.5t59.5 23.5q34 0 57.5 -23.5t23.5 -57.5zM461 646q0 -33 -24.5 -56.5t-58.5 -23.5t-58 23.5t-24 56.5q0 34 24.5 57.5t59.5 23.5q34 0 57.5 -23.5t23.5 -57.5z" />
    <glyph glyph-name="copyright" unicode="&#xa9;" horiz-adv-x="801" 
d="M335 355q0 -79 19 -121t68 -42q32 0 47 15t20 51h74v-83q-58 -32 -141 -32q-213 0 -213 203q0 101 52.5 154.5t157.5 53.5q87 0 141 -33v-82h-80q-4 37 -16 54.5t-44 17.5q-49 0 -67 -38.5t-18 -117.5zM411 31q129 0 215 86t86 226q0 142 -86 228t-215 86t-215 -86
t-86 -228q0 -140 86 -226t215 -86zM411 -12q-154 0 -255 98t-101 258q0 157 103 257t253 100t253 -100t103 -257q0 -160 -101 -258t-255 -98z" />
    <glyph glyph-name="ordfeminine" unicode="&#xaa;" horiz-adv-x="476" 
d="M310 742q62 0 74 -43q12 20 29 33h81q-18 -36 -33 -99l-41 -181q-4 -16 -4 -29q0 -26 33 -26q6 0 24 2l3 -31q-45 -27 -106 -27q-75 0 -75 72q0 2 1 7v6q-56 -88 -138 -88q-46 0 -71.5 29t-25.5 83q0 117 75 204.5t174 87.5zM313 687q-50 0 -88 -71.5t-38 -152.5
q0 -53 29 -53q37 0 93 90l40 172q-11 15 -36 15z" />
    <glyph glyph-name="guillemotleft" unicode="&#xab;" horiz-adv-x="599" 
d="M183 250l76 -188l-51 -39l-175 229l254 227l41 -42zM424 250l76 -188l-51 -39l-175 229l254 227l41 -42z" />
    <glyph glyph-name="logicalnot" unicode="&#xac;" horiz-adv-x="512" 
d="M52 228l14 73h396l-45 -232h-80l30 159h-315z" />
    <glyph glyph-name="uni00AD" unicode="&#xad;" horiz-adv-x="354" 
d="M291 222h-252l23 115h252z" />
    <glyph glyph-name="registered" unicode="&#xae;" horiz-adv-x="801" 
d="M231 150v35q30 0 37 10.5t7 45.5v214q0 35 -7 45.5t-37 10.5v37h182q75 0 114 -24t39 -84q0 -57 -28.5 -79.5t-84.5 -25.5v-3q49 -9 69 -47q19 -30 35 -66q11 -23 19 -28.5t32 -5.5v-35h-133q-6 16 -13.5 34t-16.5 37.5t-13 28.5q-20 48 -29.5 60.5t-28.5 13.5v-83
q0 -35 7.5 -45.5t37.5 -10.5v-35h-188zM374 363h27q35 0 48 15.5t13 57.5q0 38 -14.5 52t-56.5 14h-17v-139zM411 31q129 0 215 86t86 226q0 142 -86 228t-215 86t-215 -86t-86 -228q0 -140 86 -226t215 -86zM411 -12q-154 0 -255 98t-101 258q0 157 103 257t253 100
t253 -100t103 -257q0 -160 -101 -258t-255 -98z" />
    <glyph glyph-name="macron" unicode="&#xaf;" horiz-adv-x="448" 
d="M367 601h-302l16 78h302z" />
    <glyph glyph-name="degree" unicode="&#xb0;" horiz-adv-x="383" 
d="M398 549q0 -79 -49.5 -135.5t-132.5 -56.5q-68 0 -108.5 38.5t-40.5 105.5q0 89 49.5 142t130.5 53q70 0 110.5 -39t40.5 -108zM222 425q45 0 68 34.5t23 90.5q0 42 -17.5 60.5t-53.5 18.5q-42 0 -66.5 -33t-24.5 -89q0 -45 17 -63.5t54 -18.5z" />
    <glyph glyph-name="plusminus" unicode="&#xb1;" horiz-adv-x="567" 
d="M302 507h80l-27 -142h157l-14 -73h-158l-29 -151h-80l29 151h-161l15 73h161zM47 24l14 74h399l-14 -74h-399z" />
    <glyph glyph-name="twosuperior" unicode="&#xb2;" horiz-adv-x="359" 
d="M226 661q60 0 96 -27.5t36 -77.5q0 -35 -13 -63.5t-43.5 -53t-59 -41t-79.5 -41.5l-50 -24h224l-27 -83h-299l9 68l92 64q70 49 98 80t28 72q0 52 -62 52q-53 0 -97 -39l-23 37q65 77 170 77z" />
    <glyph glyph-name="threesuperior" unicode="&#xb3;" horiz-adv-x="338" 
d="M162 598q-38 0 -78 -32l-23 34q53 61 144 61q54 0 87.5 -23t33.5 -65q0 -46 -31.5 -74.5t-82.5 -35.5q45 -2 72 -26.5t27 -61.5q0 -51 -35.5 -85t-84.5 -47t-109 -13q-54 0 -87 14l-6 44q28 -7 62 -7q62 0 101 23.5t39 73.5q0 57 -59 57q-12 0 -34 -2l10 54q9 -1 30 -1
q36 0 56.5 17t20.5 50q0 45 -53 45z" />
    <glyph glyph-name="acute" unicode="&#xb4;" horiz-adv-x="472" 
d="M109 593l188 186l78 -125l-240 -96z" />
    <glyph glyph-name="mu" unicode="&#xb5;" horiz-adv-x="590" 
d="M-24 -205v30q24 56 54 186l79 345q6 22 6 38q0 26 -16.5 37.5t-53.5 11.5l9 39q66 33 127 33q85 0 85 -85q0 -18 -7 -53l-50 -215q-6 -21 -6 -36q0 -35 33 -35q53 0 122 110l65 308h144l-77 -367q-6 -28 -6 -42q0 -19 10.5 -27t35.5 -8q9 0 29 2l3 -41q-62 -35 -131 -35
q-42 0 -62 19.5t-22 58.5q-1 10 1 34q-25 -55 -62 -85.5t-77 -30.5q-46 0 -60 35l-4 -2q10 -33 10 -66q0 -28 -10 -68l-16 -66z" />
    <glyph glyph-name="paragraph" unicode="&#xb6;" horiz-adv-x="677" 
d="M721 695l-9 -45q-49 -1 -68 -16.5t-27 -59.5l-134 -693h-73l147 753h-82l-146 -753h-73l79 404h-73q-98 0 -148.5 41.5t-50.5 119.5q0 120 68 184.5t198 64.5h392zM403 634h-39q-57 0 -86.5 -52t-29.5 -148q0 -45 15 -66t50 -21h34z" />
    <glyph glyph-name="periodcentered" unicode="&#xb7;" horiz-adv-x="294" 
d="M243 289q0 -39 -27.5 -66.5t-65.5 -27.5q-39 0 -66 27.5t-27 66.5q0 38 27 65.5t66 27.5q38 0 65.5 -27.5t27.5 -65.5z" />
    <glyph glyph-name="cedilla" unicode="&#xb8;" horiz-adv-x="361" 
d="M288 -119q0 -85 -118 -85q-61 0 -98 25l17 39q28 -18 66 -18q36 0 36 28q0 30 -61 32l1 21l41 93l44 -6l-23 -51q95 -6 95 -78z" />
    <glyph glyph-name="onesuperior" unicode="&#xb9;" horiz-adv-x="326" 
d="M299 653l-67 -315q-2 -10 -2 -17q0 -17 15 -25t53 -9l-6 -37h-276l7 37q52 4 67.5 13t21.5 38l50 230q-40 -22 -90 -31l-10 41l153 75h84z" />
    <glyph glyph-name="ordmasculine" unicode="&#xba;" horiz-adv-x="448" 
d="M453 585q0 -103 -58.5 -175t-167.5 -72q-75 0 -118.5 41.5t-43.5 112.5q0 101 60 175t163 74q76 0 120.5 -40t44.5 -116zM329 622q0 69 -45 69q-39 0 -59 -49q-37 -86 -37 -193q0 -63 44 -63q36 0 58 47q39 82 39 189z" />
    <glyph glyph-name="guillemotright" unicode="&#xbb;" horiz-adv-x="599" 
d="M416 253l-76 187l51 39l175 -228l-254 -228l-41 43zM71 23l-41 43l145 187l-75 187l50 39l175 -228z" />
    <glyph glyph-name="onequarter" unicode="&#xbc;" horiz-adv-x="950" 
d="M722 -22l23 112h-201l9 46l197 267h108l-216 -259h113q22 96 70 153l77 8l-34 -161h52l-11 -54h-52l-18 -101zM809 730l-611 -853h-73l612 853h72zM299 653l-67 -315q-2 -10 -2 -17q0 -17 15 -25t53 -9l-6 -37h-276l7 37q52 4 67.5 13t21.5 38l50 230q-40 -22 -90 -31
l-10 41l153 75h84z" />
    <glyph glyph-name="onehalf" unicode="&#xbd;" horiz-adv-x="975" 
d="M796 411q60 0 96.5 -27.5t36.5 -77.5q0 -29 -10.5 -53.5t-25 -42.5t-43.5 -37.5t-52.5 -32.5t-64.5 -33l-50 -24h225l-28 -83h-299l9 68l92 64q70 49 98 80t28 72q0 52 -62 52q-52 0 -96 -39l-24 37q65 77 170 77zM802 730l-611 -853h-73l612 853h72zM299 653l-67 -315
q-2 -10 -2 -17q0 -17 15 -25t53 -9l-6 -37h-276l7 37q52 4 67.5 13t21.5 38l50 230q-40 -22 -90 -31l-10 41l153 75h84z" />
    <glyph glyph-name="threequarters" unicode="&#xbe;" horiz-adv-x="938" 
d="M695 -22l23 112h-201l9 46l197 267h108l-216 -259h113q22 96 70 153l77 8l-34 -161h52l-11 -54h-52l-18 -101zM162 598q-38 0 -78 -32l-23 34q53 61 144 61q54 0 87.5 -23t33.5 -65q0 -46 -31.5 -74.5t-82.5 -35.5q45 -2 72 -26.5t27 -61.5q0 -51 -35.5 -85t-84.5 -47
t-109 -13q-54 0 -87 14l-6 44q28 -7 62 -7q62 0 101 23.5t39 73.5q0 57 -59 57q-12 0 -34 -2l10 54q9 -1 30 -1q36 0 56.5 17t20.5 50q0 45 -53 45zM793 730l-611 -853h-73l612 853h72z" />
    <glyph glyph-name="questiondown" unicode="&#xbf;" horiz-adv-x="479" 
d="M203 428q0 39 28 66.5t66 27.5t65 -27.5t27 -66.5q0 -37 -27 -64t-65 -27t-66 27t-28 64zM193 -198q-94 0 -145.5 35t-51.5 107q0 68 40 112.5t108 79.5q65 35 88 61.5t23 74.5v15h64q17 -23 17 -62q0 -80 -103 -154q-45 -33 -64 -60.5t-19 -73.5q0 -65 60 -65
q39 0 57.5 22t32.5 73h103l-26 -121q-83 -44 -184 -44z" />
    <glyph glyph-name="Agrave" unicode="&#xc0;" horiz-adv-x="648" 
d="M394 101l-10 86h-213l-39 -80q-10 -23 -10 -33q0 -27 55 -28l-9 -46h-221l8 46q35 4 52.5 16.5t37.5 50.5l300 582h125l87 -582q6 -38 16.5 -50.5t39.5 -16.5l-9 -46h-284l8 46q39 1 53 10t14 31q0 5 -1 14zM301 452l-94 -191h167l-21 183q-5 39 -5 84v15h-6
q-8 -23 -41 -91zM519 760l-23 -37l-247 72l65 130z" />
    <glyph glyph-name="Aacute" unicode="&#xc1;" horiz-adv-x="648" 
d="M394 101l-10 86h-213l-39 -80q-10 -23 -10 -33q0 -27 55 -28l-9 -46h-221l8 46q35 4 52.5 16.5t37.5 50.5l300 582h125l87 -582q6 -38 16.5 -50.5t39.5 -16.5l-9 -46h-284l8 46q39 1 53 10t14 31q0 5 -1 14zM301 452l-94 -191h167l-21 183q-5 39 -5 84v15h-6
q-8 -23 -41 -91zM292 760l205 165l65 -130l-247 -72z" />
    <glyph glyph-name="Acircumflex" unicode="&#xc2;" horiz-adv-x="648" 
d="M394 101l-10 86h-213l-39 -80q-10 -23 -10 -33q0 -27 55 -28l-9 -46h-221l8 46q35 4 52.5 16.5t37.5 50.5l300 582h125l87 -582q6 -38 16.5 -50.5t39.5 -16.5l-9 -46h-284l8 46q39 1 53 10t14 31q0 5 -1 14zM301 452l-94 -191h167l-21 183q-5 39 -5 84v15h-6
q-8 -23 -41 -91zM423 808l-166 -78l-21 36l210 174l136 -179l-25 -32z" />
    <glyph glyph-name="Atilde" unicode="&#xc3;" horiz-adv-x="648" 
d="M394 101l-10 86h-213l-39 -80q-10 -23 -10 -33q0 -27 55 -28l-9 -46h-221l8 46q35 4 52.5 16.5t37.5 50.5l300 582h125l87 -582q6 -38 16.5 -50.5t39.5 -16.5l-9 -46h-284l8 46q39 1 53 10t14 31q0 5 -1 14zM301 452l-94 -191h167l-21 183q-5 39 -5 84v15h-6
q-8 -23 -41 -91zM491 857q50 0 74 46l38 -16q-14 -57 -44.5 -93t-71.5 -36q-33 0 -76 18t-63 18q-46 0 -73 -49l-35 16q9 56 39.5 95t72.5 39q31 0 73 -19t66 -19z" />
    <glyph glyph-name="Adieresis" unicode="&#xc4;" horiz-adv-x="648" 
d="M394 101l-10 86h-213l-39 -80q-10 -23 -10 -33q0 -27 55 -28l-9 -46h-221l8 46q35 4 52.5 16.5t37.5 50.5l300 582h125l87 -582q6 -38 16.5 -50.5t39.5 -16.5l-9 -46h-284l8 46q39 1 53 10t14 31q0 5 -1 14zM301 452l-94 -191h167l-21 183q-5 39 -5 84v15h-6
q-8 -23 -41 -91zM390 817q0 -33 -24 -56.5t-58 -23.5t-58 23.5t-24 56.5q0 34 24 57.5t59 23.5q34 0 57.5 -23.5t23.5 -57.5zM613 817q0 -33 -24 -56.5t-58 -23.5t-58 23.5t-24 56.5q0 34 24 57.5t59 23.5q34 0 57.5 -23.5t23.5 -57.5z" />
    <glyph glyph-name="Aring" unicode="&#xc5;" horiz-adv-x="648" 
d="M394 101l-10 86h-213l-39 -80q-10 -23 -10 -33q0 -27 55 -28l-9 -46h-221l8 46q35 4 52.5 16.5t37.5 50.5l300 582h125l87 -582q6 -38 16.5 -50.5t39.5 -16.5l-9 -46h-284l8 46q39 1 53 10t14 31q0 5 -1 14zM301 452l-94 -191h167l-21 183q-5 39 -5 84v15h-6
q-8 -23 -41 -91zM417 729q-51 0 -81.5 31.5t-30.5 78.5q0 53 35 87.5t90 34.5q50 0 80 -32t30 -79q0 -54 -33.5 -87.5t-89.5 -33.5zM425 907q-27 0 -42.5 -18.5t-15.5 -47.5q0 -25 13 -40.5t37 -15.5q27 0 44 18t17 45q0 26 -14.5 42.5t-38.5 16.5z" />
    <glyph glyph-name="AE" unicode="&#xc6;" horiz-adv-x="932" 
d="M-53 0l8 46q34 4 55.5 17.5t47.5 49.5l334 468q16 22 16 36q0 28 -57 30l9 48h596l-21 -169h-74q-6 61 -20.5 79.5t-64.5 18.5h-108l-46 -238h61q46 0 65 14t31 57h66l-41 -209h-66q2 16 2 23q0 27 -15.5 37.5t-54.5 10.5h-61l-49 -252h123q51 0 76.5 24t44.5 92h76
l-35 -183h-524l8 46q41 0 58.5 14.5t25.5 56.5l23 118h-199l-92 -128q-17 -23 -17 -37q0 -23 49 -24l-9 -46h-221zM519 624l-227 -314h158l22 112q26 135 53 202h-6z" />
    <glyph glyph-name="Ccedilla" unicode="&#xc7;" horiz-adv-x="617" 
d="M381 -119q0 -85 -118 -85q-61 0 -98 25l17 39q28 -18 66 -18q36 0 36 28q0 30 -61 32l1 21l29 68q-203 31 -203 267q0 88 26.5 168t75.5 142.5t125.5 100t169.5 37.5q125 0 196 -51l-27 -135h-107q-2 63 -17.5 89.5t-60.5 26.5q-69 0 -119 -60.5t-73.5 -153.5t-23.5 -204
q0 -89 28.5 -125.5t85.5 -36.5q53 0 84 29t53 92h108l-27 -138q-35 -23 -99.5 -38t-129.5 -15q-13 0 -20 1l-12 -28q95 -6 95 -78z" />
    <glyph glyph-name="Egrave" unicode="&#xc8;" horiz-adv-x="593" 
d="M502 760l-23 -37l-247 72l65 130zM-18 0l8 46q41 0 58.5 14.5t25.5 56.5l89 458q4 20 4 31q0 23 -13.5 31.5t-45.5 9.5l9 48h500l-21 -169h-74q-6 61 -20 79.5t-65 18.5h-108l-46 -238h61q47 0 66 14t30 57h66l-41 -209h-66q2 14 2 23q0 27 -15 37.5t-54 10.5h-62
l-49 -252h123q51 0 76.5 24t44.5 92h76l-35 -183h-524z" />
    <glyph glyph-name="Eacute" unicode="&#xc9;" horiz-adv-x="593" 
d="M277 760l205 165l65 -130l-247 -72zM-18 0l8 46q41 0 58.5 14.5t25.5 56.5l89 458q4 20 4 31q0 23 -13.5 31.5t-45.5 9.5l9 48h500l-21 -169h-74q-6 61 -20 79.5t-65 18.5h-108l-46 -238h61q47 0 66 14t30 57h66l-41 -209h-66q2 14 2 23q0 27 -15 37.5t-54 10.5h-62
l-49 -252h123q51 0 76.5 24t44.5 92h76l-35 -183h-524z" />
    <glyph glyph-name="Ecircumflex" unicode="&#xca;" horiz-adv-x="593" 
d="M400 808l-166 -78l-21 36l210 174l136 -179l-25 -32zM-18 0l8 46q41 0 58.5 14.5t25.5 56.5l89 458q4 20 4 31q0 23 -13.5 31.5t-45.5 9.5l9 48h500l-21 -169h-74q-6 61 -20 79.5t-65 18.5h-108l-46 -238h61q47 0 66 14t30 57h66l-41 -209h-66q2 14 2 23q0 27 -15 37.5
t-54 10.5h-62l-49 -252h123q51 0 76.5 24t44.5 92h76l-35 -183h-524z" />
    <glyph glyph-name="Edieresis" unicode="&#xcb;" horiz-adv-x="593" 
d="M-18 0l8 46q41 0 58.5 14.5t25.5 56.5l89 458q4 20 4 31q0 23 -13.5 31.5t-45.5 9.5l9 48h500l-21 -169h-74q-6 61 -20 79.5t-65 18.5h-108l-46 -238h61q47 0 66 14t30 57h66l-41 -209h-66q2 14 2 23q0 27 -15 37.5t-54 10.5h-62l-49 -252h123q51 0 76.5 24t44.5 92h76
l-35 -183h-524zM365 817q0 -33 -24 -56.5t-58 -23.5t-58 23.5t-24 56.5q0 34 24 57.5t59 23.5q34 0 57.5 -23.5t23.5 -57.5zM588 817q0 -33 -24 -56.5t-58 -23.5t-58 23.5t-24 56.5q0 34 24 57.5t59 23.5q34 0 57.5 -23.5t23.5 -57.5z" />
    <glyph glyph-name="Igrave" unicode="&#xcc;" horiz-adv-x="358" 
d="M320 575l-89 -458q-8 -42 3.5 -56.5t51.5 -14.5l-8 -46h-296l8 46q41 0 58.5 14.5t25.5 56.5l89 458q4 20 4 31q0 23 -13.5 31.5t-45.5 9.5l9 48h295l-9 -48q-40 -1 -57.5 -15.5t-25.5 -56.5zM390 760l-23 -37l-247 72l65 130z" />
    <glyph glyph-name="Iacute" unicode="&#xcd;" horiz-adv-x="358" 
d="M320 575l-89 -458q-8 -42 3.5 -56.5t51.5 -14.5l-8 -46h-296l8 46q41 0 58.5 14.5t25.5 56.5l89 458q4 20 4 31q0 23 -13.5 31.5t-45.5 9.5l9 48h295l-9 -48q-40 -1 -57.5 -15.5t-25.5 -56.5zM154 760l205 165l65 -130l-247 -72z" />
    <glyph glyph-name="Icircumflex" unicode="&#xce;" horiz-adv-x="358" 
d="M320 575l-89 -458q-8 -42 3.5 -56.5t51.5 -14.5l-8 -46h-296l8 46q41 0 58.5 14.5t25.5 56.5l89 458q4 20 4 31q0 23 -13.5 31.5t-45.5 9.5l9 48h295l-9 -48q-40 -1 -57.5 -15.5t-25.5 -56.5zM293 808l-166 -78l-21 36l210 174l136 -179l-25 -32z" />
    <glyph glyph-name="Idieresis" unicode="&#xcf;" horiz-adv-x="358" 
d="M320 575l-89 -458q-8 -42 3.5 -56.5t51.5 -14.5l-8 -46h-296l8 46q41 0 58.5 14.5t25.5 56.5l89 458q4 20 4 31q0 23 -13.5 31.5t-45.5 9.5l9 48h295l-9 -48q-40 -1 -57.5 -15.5t-25.5 -56.5zM256 817q0 -33 -24 -56.5t-58 -23.5t-58 23.5t-24 56.5q0 34 24 57.5t59 23.5
q34 0 57.5 -23.5t23.5 -57.5zM479 817q0 -33 -24 -56.5t-58 -23.5t-58 23.5t-24 56.5q0 34 24 57.5t59 23.5q34 0 57.5 -23.5t23.5 -57.5z" />
    <glyph glyph-name="Eth" unicode="&#xd0;" horiz-adv-x="697" 
d="M-18 0l8 46q41 0 58.5 14.5t25.5 56.5l39 203h-73l15 73h72l36 182q4 24 4 31q0 23 -13.5 31.5t-45.5 9.5l9 48h277q136 0 207 -66t71 -194q0 -221 -120 -347q-84 -88 -258 -88h-312zM377 625h-47l-45 -232h124l-16 -73h-122l-49 -253h48q56 0 93 13.5t65 53.5
q33 49 55.5 143t22.5 191q0 86 -27 121.5t-102 35.5z" />
    <glyph glyph-name="Ntilde" unicode="&#xd1;" horiz-adv-x="698" 
d="M533 857q50 0 74 46l38 -16q-14 -57 -44.5 -93t-71.5 -36q-33 0 -76 18t-63 18q-46 0 -73 -49l-35 16q9 56 39.5 95t72.5 39q31 0 73 -19t66 -19zM558 0h-99l-170 386q-46 102 -51 167h-6q-9 -105 -22 -171l-51 -265q-4 -20 -4 -31q0 -23 13 -31.5t45 -8.5l-8 -46h-223
l8 46q41 0 58.5 14.5t25.5 56.5l89 458q4 24 4 31q0 23 -13.5 31.5t-45.5 9.5l9 48h217l146 -337q33 -76 37 -141h6q4 62 23 159l39 199q4 22 4 31q0 23 -13.5 31.5t-45.5 9.5l9 48h219l-8 -48q-39 -1 -56 -15.5t-25 -56.5z" />
    <glyph glyph-name="Ograve" unicode="&#xd2;" horiz-adv-x="703" 
d="M547 760l-23 -37l-247 72l65 130zM679 423q0 -63 -13 -124t-41.5 -118t-70 -100t-102 -69t-133.5 -26q-130 0 -199.5 77.5t-69.5 206.5q0 61 13.5 121.5t42.5 117.5t70.5 100.5t101.5 70t131 26.5q125 0 197.5 -74t72.5 -209zM513 472q0 85 -23.5 124.5t-80.5 39.5
q-72 0 -111 -63q-42 -67 -62.5 -167t-20.5 -194q0 -159 103 -159q72 0 113 63q40 60 61 162.5t21 193.5z" />
    <glyph glyph-name="Oacute" unicode="&#xd3;" horiz-adv-x="703" 
d="M309 760l205 165l65 -130l-247 -72zM679 423q0 -63 -13 -124t-41.5 -118t-70 -100t-102 -69t-133.5 -26q-130 0 -199.5 77.5t-69.5 206.5q0 61 13.5 121.5t42.5 117.5t70.5 100.5t101.5 70t131 26.5q125 0 197.5 -74t72.5 -209zM513 472q0 85 -23.5 124.5t-80.5 39.5
q-72 0 -111 -63q-42 -67 -62.5 -167t-20.5 -194q0 -159 103 -159q72 0 113 63q40 60 61 162.5t21 193.5z" />
    <glyph glyph-name="Ocircumflex" unicode="&#xd4;" horiz-adv-x="703" 
d="M446 808l-166 -78l-21 36l210 174l136 -179l-25 -32zM679 423q0 -63 -13 -124t-41.5 -118t-70 -100t-102 -69t-133.5 -26q-130 0 -199.5 77.5t-69.5 206.5q0 61 13.5 121.5t42.5 117.5t70.5 100.5t101.5 70t131 26.5q125 0 197.5 -74t72.5 -209zM513 472
q0 85 -23.5 124.5t-80.5 39.5q-72 0 -111 -63q-42 -67 -62.5 -167t-20.5 -194q0 -159 103 -159q72 0 113 63q40 60 61 162.5t21 193.5z" />
    <glyph glyph-name="Otilde" unicode="&#xd5;" horiz-adv-x="703" 
d="M504 857q50 0 74 46l38 -16q-14 -57 -44.5 -93t-71.5 -36q-33 0 -76 18t-63 18q-46 0 -73 -49l-35 16q9 56 39.5 95t72.5 39q31 0 73 -19t66 -19zM679 423q0 -63 -13 -124t-41.5 -118t-70 -100t-102 -69t-133.5 -26q-130 0 -199.5 77.5t-69.5 206.5q0 61 13.5 121.5
t42.5 117.5t70.5 100.5t101.5 70t131 26.5q125 0 197.5 -74t72.5 -209zM513 472q0 85 -23.5 124.5t-80.5 39.5q-72 0 -111 -63q-42 -67 -62.5 -167t-20.5 -194q0 -159 103 -159q72 0 113 63q40 60 61 162.5t21 193.5z" />
    <glyph glyph-name="Odieresis" unicode="&#xd6;" horiz-adv-x="703" 
d="M406 817q0 -33 -24 -56.5t-58 -23.5t-58 23.5t-24 56.5q0 34 24 57.5t59 23.5q34 0 57.5 -23.5t23.5 -57.5zM629 817q0 -33 -24 -56.5t-58 -23.5t-58 23.5t-24 56.5q0 34 24 57.5t59 23.5q34 0 57.5 -23.5t23.5 -57.5zM679 423q0 -63 -13 -124t-41.5 -118t-70 -100
t-102 -69t-133.5 -26q-130 0 -199.5 77.5t-69.5 206.5q0 61 13.5 121.5t42.5 117.5t70.5 100.5t101.5 70t131 26.5q125 0 197.5 -74t72.5 -209zM513 472q0 85 -23.5 124.5t-80.5 39.5q-72 0 -111 -63q-42 -67 -62.5 -167t-20.5 -194q0 -159 103 -159q72 0 113 63
q40 60 61 162.5t21 193.5z" />
    <glyph glyph-name="multiply" unicode="&#xd7;" horiz-adv-x="570" 
d="M115 427l56 48l124 -153l183 153l42 -51l-184 -154l125 -152l-58 -49l-124 154l-187 -156l-40 51l186 155z" />
    <glyph glyph-name="Oslash" unicode="&#xd8;" horiz-adv-x="703" 
d="M679 423q0 -63 -13 -124t-41.5 -118t-70 -100t-102 -69t-133.5 -26q-95 0 -162 46l-61 -79l-44 31l65 85q-67 76 -67 201q0 61 13.5 121.5t42.5 117.5t70.5 100.5t101.5 70t131 26.5q95 0 161 -46l58 76l45 -32l-62 -80q68 -76 68 -201zM517 472q0 5 -0.5 14.5t-0.5 13.5
l-293 -382q24 -65 95 -65q74 0 116 63q40 60 61.5 162.5t21.5 193.5zM210 212v-21l293 382q-23 63 -94 63q-73 0 -114 -63q-42 -67 -63.5 -167.5t-21.5 -193.5z" />
    <glyph glyph-name="Ugrave" unicode="&#xd9;" horiz-adv-x="685" 
d="M577 760l-23 -37l-247 72l65 130zM353 68q65 0 103 40t54 123l66 344q4 20 4 32q0 22 -13.5 30.5t-46.5 9.5l9 48h220l-9 -48q-39 -1 -56 -15.5t-25 -56.5l-67 -349q-24 -120 -87.5 -180t-177.5 -60q-242 0 -245 184q0 40 9 91l61 314q8 42 -3.5 56.5t-51.5 15.5l9 48
h295l-8 -48q-41 -1 -58.5 -15.5t-25.5 -56.5l-63 -324q-9 -48 -9 -83q1 -51 28.5 -75.5t87.5 -24.5z" />
    <glyph glyph-name="Uacute" unicode="&#xda;" horiz-adv-x="685" 
d="M344 760l205 165l65 -130l-247 -72zM353 68q65 0 103 40t54 123l66 344q4 20 4 32q0 22 -13.5 30.5t-46.5 9.5l9 48h220l-9 -48q-39 -1 -56 -15.5t-25 -56.5l-67 -349q-24 -120 -87.5 -180t-177.5 -60q-242 0 -245 184q0 40 9 91l61 314q8 42 -3.5 56.5t-51.5 15.5l9 48
h295l-8 -48q-41 -1 -58.5 -15.5t-25.5 -56.5l-63 -324q-9 -48 -9 -83q1 -51 28.5 -75.5t87.5 -24.5z" />
    <glyph glyph-name="Ucircumflex" unicode="&#xdb;" horiz-adv-x="685" 
d="M483 808l-166 -78l-21 36l210 174l136 -179l-25 -32zM353 68q65 0 103 40t54 123l66 344q4 20 4 32q0 22 -13.5 30.5t-46.5 9.5l9 48h220l-9 -48q-39 -1 -56 -15.5t-25 -56.5l-67 -349q-24 -120 -87.5 -180t-177.5 -60q-242 0 -245 184q0 40 9 91l61 314q8 42 -3.5 56.5
t-51.5 15.5l9 48h295l-8 -48q-41 -1 -58.5 -15.5t-25.5 -56.5l-63 -324q-9 -48 -9 -83q1 -51 28.5 -75.5t87.5 -24.5z" />
    <glyph glyph-name="Udieresis" unicode="&#xdc;" horiz-adv-x="685" 
d="M353 68q65 0 103 40t54 123l66 344q4 20 4 32q0 22 -13.5 30.5t-46.5 9.5l9 48h220l-9 -48q-39 -1 -56 -15.5t-25 -56.5l-67 -349q-24 -120 -87.5 -180t-177.5 -60q-242 0 -245 184q0 40 9 91l61 314q8 42 -3.5 56.5t-51.5 15.5l9 48h295l-8 -48q-41 -1 -58.5 -15.5
t-25.5 -56.5l-63 -324q-9 -48 -9 -83q1 -51 28.5 -75.5t87.5 -24.5zM433 817q0 -33 -24 -56.5t-58 -23.5t-58 23.5t-24 56.5q0 34 24 57.5t59 23.5q34 0 57.5 -23.5t23.5 -57.5zM656 817q0 -33 -24 -56.5t-58 -23.5t-58 23.5t-24 56.5q0 34 24 57.5t59 23.5q34 0 57.5 -23.5
t23.5 -57.5z" />
    <glyph glyph-name="Yacute" unicode="&#xdd;" horiz-adv-x="627" 
d="M207 117l28 144l-93 322q-10 36 -23 48t-40 16l9 48h271l-9 -48q-65 -1 -48 -64l59 -238h5l148 239q14 23 14 37q0 25 -45 26l9 48h217l-8 -48q-31 -4 -48 -15.5t-41 -46.5l-219 -322l-28 -146q-8 -43 4.5 -57t58.5 -14l-8 -46h-312l8 46q46 0 65 14.5t26 56.5zM306 760
l205 165l65 -130l-247 -72z" />
    <glyph glyph-name="Thorn" unicode="&#xde;" horiz-adv-x="602" 
d="M451 388q0 50 -22.5 73.5t-76.5 23.5h-50l-48 -252h46q26 0 39 1t30 6t30 15q52 41 52 133zM320 575l-4 -20h60q120 0 178 -39.5t58 -129.5q0 -145 -138 -201q-62 -25 -161 -25h-74l-8 -42q-3 -16 -3 -29q0 -25 16 -34t58 -9l-8 -46h-312l8 46q41 0 58.5 14.5t25.5 56.5
l89 458q4 22 4 31q0 23 -13.5 31.5t-45.5 9.5l9 48h295l-9 -48q-40 -1 -57.5 -15.5t-25.5 -56.5z" />
    <glyph glyph-name="germandbls" unicode="&#xdf;" horiz-adv-x="600" 
d="M116 436h-63l12 50l67 22l9 39q20 91 90 138.5t174 47.5q85 0 134 -35.5t49 -96.5q0 -104 -156 -168q-19 -8 -26 -13t-7 -14t32 -29q69 -43 103 -91.5t34 -112.5q0 -85 -61 -135.5t-147 -50.5t-136 57l27 41q38 -28 81 -28q41 0 63.5 28.5t22.5 75.5t-13.5 84.5
t-50.5 83.5q-23 28 -30.5 40.5t-7.5 27.5q0 17 11 30.5t44 35.5q89 61 89 135q0 77 -65 77q-40 0 -66.5 -26.5t-39.5 -91.5l-121 -595q-15 -72 -63 -111t-119 -39q-47 0 -81 17v38q62 4 85.5 25t34.5 81z" />
    <glyph glyph-name="agrave" unicode="&#xe0;" horiz-adv-x="579" 
d="M344 522q82 0 97 -57q12 21 40 45h90q-25 -53 -43 -132l-54 -240q-6 -24 -6 -39q0 -19 10.5 -26.5t35.5 -7.5q7 0 29 2l3 -41q-62 -35 -130 -35q-92 0 -92 98v5.5v5.5l1 3q-74 -116 -176 -116q-59 0 -91.5 37.5t-32.5 106.5q0 152 97 271.5t222 119.5zM347 450
q-45 0 -85.5 -45.5t-63.5 -114.5t-23 -138q0 -71 39 -71q51 0 128 120l54 228q-15 21 -49 21zM491 593l-25 -35l-240 96l77 125z" />
    <glyph glyph-name="aacute" unicode="&#xe1;" horiz-adv-x="579" 
d="M344 522q82 0 97 -57q12 21 40 45h90q-25 -53 -43 -132l-54 -240q-6 -24 -6 -39q0 -19 10.5 -26.5t35.5 -7.5q7 0 29 2l3 -41q-62 -35 -130 -35q-92 0 -92 98v5.5v5.5l1 3q-74 -116 -176 -116q-59 0 -91.5 37.5t-32.5 106.5q0 152 97 271.5t222 119.5zM347 450
q-45 0 -85.5 -45.5t-63.5 -114.5t-23 -138q0 -71 39 -71q51 0 128 120l54 228q-15 21 -49 21zM256 593l188 186l78 -125l-240 -96z" />
    <glyph glyph-name="acircumflex" unicode="&#xe2;" horiz-adv-x="579" 
d="M344 522q82 0 97 -57q12 21 40 45h90q-25 -53 -43 -132l-54 -240q-6 -24 -6 -39q0 -19 10.5 -26.5t35.5 -7.5q7 0 29 2l3 -41q-62 -35 -130 -35q-92 0 -92 98v5.5v5.5l1 3q-74 -116 -176 -116q-59 0 -91.5 37.5t-32.5 106.5q0 152 97 271.5t222 119.5zM347 450
q-45 0 -85.5 -45.5t-63.5 -114.5t-23 -138q0 -71 39 -71q51 0 128 120l54 228q-15 21 -49 21zM400 635l-165 -78l-22 36l210 174l136 -179l-25 -32z" />
    <glyph glyph-name="atilde" unicode="&#xe3;" horiz-adv-x="579" 
d="M344 522q82 0 97 -57q12 21 40 45h90q-25 -53 -43 -132l-54 -240q-6 -24 -6 -39q0 -19 10.5 -26.5t35.5 -7.5q7 0 29 2l3 -41q-62 -35 -130 -35q-92 0 -92 98v5.5v5.5l1 3q-74 -116 -176 -116q-59 0 -91.5 37.5t-32.5 106.5q0 152 97 271.5t222 119.5zM347 450
q-45 0 -85.5 -45.5t-63.5 -114.5t-23 -138q0 -71 39 -71q51 0 128 120l54 228q-15 21 -49 21zM454 686q50 0 72 45l38 -16q-14 -57 -44 -93.5t-70 -36.5q-30 0 -73 15.5t-62 15.5q-45 0 -70 -48l-35 16q9 57 38.5 96.5t71.5 39.5q29 0 70.5 -17t63.5 -17z" />
    <glyph glyph-name="adieresis" unicode="&#xe4;" horiz-adv-x="579" 
d="M344 522q82 0 97 -57q12 21 40 45h90q-25 -53 -43 -132l-54 -240q-6 -24 -6 -39q0 -19 10.5 -26.5t35.5 -7.5q7 0 29 2l3 -41q-62 -35 -130 -35q-92 0 -92 98v5.5v5.5l1 3q-74 -116 -176 -116q-59 0 -91.5 37.5t-32.5 106.5q0 152 97 271.5t222 119.5zM347 450
q-45 0 -85.5 -45.5t-63.5 -114.5t-23 -138q0 -71 39 -71q51 0 128 120l54 228q-15 21 -49 21zM355 646q0 -33 -24.5 -56.5t-58.5 -23.5t-58 23.5t-24 56.5q0 34 24.5 57.5t59.5 23.5q34 0 57.5 -23.5t23.5 -57.5zM578 646q0 -33 -24.5 -56.5t-58.5 -23.5t-58 23.5t-24 56.5
q0 34 24.5 57.5t59.5 23.5q34 0 57.5 -23.5t23.5 -57.5z" />
    <glyph glyph-name="aring" unicode="&#xe5;" horiz-adv-x="579" 
d="M344 522q82 0 97 -57q12 21 40 45h90q-25 -53 -43 -132l-54 -240q-6 -24 -6 -39q0 -19 10.5 -26.5t35.5 -7.5q7 0 29 2l3 -41q-62 -35 -130 -35q-92 0 -92 98v5.5v5.5l1 3q-74 -116 -176 -116q-59 0 -91.5 37.5t-32.5 106.5q0 152 97 271.5t222 119.5zM347 450
q-45 0 -85.5 -45.5t-63.5 -114.5t-23 -138q0 -71 39 -71q51 0 128 120l54 228q-15 21 -49 21zM376 562q-51 0 -81.5 31.5t-30.5 78.5q0 53 35 87.5t90 34.5q50 0 80.5 -32t30.5 -79q0 -54 -34 -87.5t-90 -33.5zM385 740q-27 0 -43 -18.5t-16 -46.5q0 -26 13.5 -41.5
t37.5 -15.5q27 0 44 18t17 45q0 26 -14.5 42.5t-38.5 16.5z" />
    <glyph glyph-name="ae" unicode="&#xe6;" horiz-adv-x="794" 
d="M458 172q0 -46 23.5 -72t68.5 -26q82 0 147 58l31 -43q-89 -103 -223 -103q-120 0 -168 84q-64 -84 -166 -84q-68 0 -107.5 36t-39.5 101q0 170 276 170h27l9 45q7 34 7 59q0 31 -12.5 44.5t-40.5 13.5q-40 0 -60.5 -18.5t-32.5 -60.5h-104l19 103q83 43 194 43
q105 0 141 -57q71 57 161 57q81 0 127.5 -34t46.5 -104q0 -161 -292 -161h-29q-3 -16 -3 -51zM231 75q44 0 87 41q-7 31 -7 68q0 29 4 48h-15q-60 0 -93.5 -19.5t-33.5 -70.5q0 -67 58 -67zM646 403q0 25 -13 39.5t-34 14.5q-44 0 -78 -45.5t-50 -125.5h5q86 0 128 27.5
t42 89.5z" />
    <glyph glyph-name="ccedilla" unicode="&#xe7;" horiz-adv-x="475" 
d="M285 -119q0 -85 -118 -85q-61 0 -98 25l17 39q28 -18 66 -18q36 0 36 28q0 30 -61 32l1 21l31 72q-61 17 -94 67.5t-33 129.5q0 80 35 154.5t105.5 125t160.5 50.5q99 0 149 -42l-21 -109h-100v17q0 36 -9 53t-35 17q-58 0 -96 -82.5t-38 -192.5t89 -110q36 0 62 11.5
t59 36.5l32 -46q-74 -89 -200 -89q-4 0 -11.5 0.5t-11.5 0.5l-12 -28q95 -6 95 -78z" />
    <glyph glyph-name="egrave" unicode="&#xe8;" horiz-adv-x="515" 
d="M180 172q0 -98 92 -98q82 0 147 58l31 -43q-89 -103 -223 -103q-97 0 -146 51.5t-49 146.5q0 136 87 237t211 101q81 0 127 -33.5t46 -104.5q0 -47 -24 -80.5t-66.5 -52t-93.5 -27t-113 -8.5h-24q-2 -19 -2 -44zM367 403q0 25 -12.5 39.5t-33.5 14.5q-43 0 -77.5 -49.5
t-50.5 -130.5h4q170 0 170 126zM464 593l-25 -35l-240 96l77 125z" />
    <glyph glyph-name="eacute" unicode="&#xe9;" horiz-adv-x="515" 
d="M226 593l188 186l78 -125l-240 -96zM180 172q0 -98 92 -98q82 0 147 58l31 -43q-89 -103 -223 -103q-97 0 -146 51.5t-49 146.5q0 136 87 237t211 101q81 0 127 -33.5t46 -104.5q0 -47 -24 -80.5t-66.5 -52t-93.5 -27t-113 -8.5h-24q-2 -19 -2 -44zM367 403
q0 25 -12.5 39.5t-33.5 14.5q-43 0 -77.5 -49.5t-50.5 -130.5h4q170 0 170 126z" />
    <glyph glyph-name="ecircumflex" unicode="&#xea;" horiz-adv-x="515" 
d="M357 635l-165 -78l-22 36l210 174l136 -179l-25 -32zM180 172q0 -98 92 -98q82 0 147 58l31 -43q-89 -103 -223 -103q-97 0 -146 51.5t-49 146.5q0 136 87 237t211 101q81 0 127 -33.5t46 -104.5q0 -47 -24 -80.5t-66.5 -52t-93.5 -27t-113 -8.5h-24q-2 -19 -2 -44z
M367 403q0 25 -12.5 39.5t-33.5 14.5q-43 0 -77.5 -49.5t-50.5 -130.5h4q170 0 170 126z" />
    <glyph glyph-name="edieresis" unicode="&#xeb;" horiz-adv-x="515" 
d="M315 646q0 -33 -24.5 -56.5t-58.5 -23.5t-58 23.5t-24 56.5q0 34 24.5 57.5t59.5 23.5q34 0 57.5 -23.5t23.5 -57.5zM538 646q0 -33 -24.5 -56.5t-58.5 -23.5t-58 23.5t-24 56.5q0 34 24.5 57.5t59.5 23.5q34 0 57.5 -23.5t23.5 -57.5zM180 172q0 -98 92 -98q82 0 147 58
l31 -43q-89 -103 -223 -103q-97 0 -146 51.5t-49 146.5q0 136 87 237t211 101q81 0 127 -33.5t46 -104.5q0 -47 -24 -80.5t-66.5 -52t-93.5 -27t-113 -8.5h-24q-2 -19 -2 -44zM367 403q0 25 -12.5 39.5t-33.5 14.5q-43 0 -77.5 -49.5t-50.5 -130.5h4q170 0 170 126z" />
    <glyph glyph-name="igrave" unicode="&#xec;" horiz-adv-x="300" 
d="M251 380l-56 -242q-7 -30 -7 -41q0 -32 41 -32q9 0 35 2l4 -41q-68 -35 -135 -35q-93 0 -93 90q0 25 8 60l53 215q6 22 6 38q0 26 -17 37.5t-54 11.5l9 39q64 33 127 33q86 0 86 -81q0 -25 -7 -54zM316 593l-25 -35l-240 96l77 125z" />
    <glyph glyph-name="iacute" unicode="&#xed;" horiz-adv-x="300" 
d="M86 593l188 186l78 -125l-240 -96zM251 380l-56 -242q-7 -30 -7 -41q0 -32 41 -32q9 0 35 2l4 -41q-68 -35 -135 -35q-93 0 -93 90q0 25 8 60l53 215q6 22 6 38q0 26 -17 37.5t-54 11.5l9 39q64 33 127 33q86 0 86 -81q0 -25 -7 -54z" />
    <glyph glyph-name="icircumflex" unicode="&#xee;" horiz-adv-x="300" 
d="M212 635l-165 -78l-22 36l210 174l136 -179l-25 -32zM251 380l-56 -242q-7 -30 -7 -41q0 -32 41 -32q9 0 35 2l4 -41q-68 -35 -135 -35q-93 0 -93 90q0 25 8 60l53 215q6 22 6 38q0 26 -17 37.5t-54 11.5l9 39q64 33 127 33q86 0 86 -81q0 -25 -7 -54z" />
    <glyph glyph-name="idieresis" unicode="&#xef;" horiz-adv-x="300" 
d="M171 646q0 -33 -24.5 -56.5t-58.5 -23.5t-58 23.5t-24 56.5q0 34 24.5 57.5t59.5 23.5q34 0 57.5 -23.5t23.5 -57.5zM394 646q0 -33 -24.5 -56.5t-58.5 -23.5t-58 23.5t-24 56.5q0 34 24.5 57.5t59.5 23.5q34 0 57.5 -23.5t23.5 -57.5zM251 380l-56 -242q-7 -30 -7 -41
q0 -32 41 -32q9 0 35 2l4 -41q-68 -35 -135 -35q-93 0 -93 90q0 25 8 60l53 215q6 22 6 38q0 26 -17 37.5t-54 11.5l9 39q64 33 127 33q86 0 86 -81q0 -25 -7 -54z" />
    <glyph glyph-name="eth" unicode="&#xf0;" horiz-adv-x="552" 
d="M131 584l135 49q-47 35 -117 55l24 43q111 -18 187 -64l128 47l20 -48l-97 -36q117 -102 117 -281q0 -160 -74.5 -261.5t-215.5 -101.5q-95 0 -151 56t-56 149q0 132 75 226.5t202 94.5q30 0 48 -7q-19 53 -48 88l-157 -57zM377 358q0 43 -6 79q-24 13 -52 13
q-61 0 -89 -65q-49 -114 -49 -251q0 -85 62 -85q53 0 80 62q22 43 38 114t16 133z" />
    <glyph glyph-name="ntilde" unicode="&#xf1;" horiz-adv-x="591" 
d="M345 141l49 208q3 13 3 24q0 31 -30 31q-56 0 -129 -110l-63 -294h-145l79 369q3 15 3 26q0 25 -16 36t-53 12l9 39q66 33 126 33q76 0 76 -94q0 -17 -3 -38q86 139 200 139q49 0 74 -28t25 -74q0 -25 -5 -45l-54 -237q-6 -25 -6 -41q0 -17 9.5 -24.5t32.5 -7.5q7 0 33 2
l3 -41q-67 -35 -131 -35q-95 0 -95 90q0 25 8 60zM437 686q49 0 72 45l38 -16q-14 -57 -44 -93.5t-70 -36.5q-30 0 -73 15.5t-62 15.5q-45 0 -70 -48l-35 16q9 57 38.5 96.5t71.5 39.5q29 0 70.5 -17t63.5 -17z" />
    <glyph glyph-name="ograve" unicode="&#xf2;" horiz-adv-x="552" 
d="M527 314q0 -137 -75.5 -232.5t-213.5 -95.5q-95 0 -151 56t-56 149q0 134 77 232.5t209 98.5q96 0 153 -53.5t57 -154.5zM376 364q0 93 -63 93q-52 0 -82 -66q-22 -50 -36 -121.5t-14 -135.5q0 -85 62 -85q53 0 80 62q22 43 37.5 114.5t15.5 138.5zM459 593l-25 -35
l-240 96l77 125z" />
    <glyph glyph-name="oacute" unicode="&#xf3;" horiz-adv-x="552" 
d="M221 593l188 186l78 -125l-240 -96zM527 314q0 -137 -75.5 -232.5t-213.5 -95.5q-95 0 -151 56t-56 149q0 134 77 232.5t209 98.5q96 0 153 -53.5t57 -154.5zM376 364q0 93 -63 93q-52 0 -82 -66q-22 -50 -36 -121.5t-14 -135.5q0 -85 62 -85q53 0 80 62
q22 43 37.5 114.5t15.5 138.5z" />
    <glyph glyph-name="ocircumflex" unicode="&#xf4;" horiz-adv-x="552" 
d="M350 635l-165 -78l-22 36l210 174l136 -179l-25 -32zM527 314q0 -137 -75.5 -232.5t-213.5 -95.5q-95 0 -151 56t-56 149q0 134 77 232.5t209 98.5q96 0 153 -53.5t57 -154.5zM376 364q0 93 -63 93q-52 0 -82 -66q-22 -50 -36 -121.5t-14 -135.5q0 -85 62 -85q53 0 80 62
q22 43 37.5 114.5t15.5 138.5z" />
    <glyph glyph-name="otilde" unicode="&#xf5;" horiz-adv-x="552" 
d="M527 314q0 -137 -75.5 -232.5t-213.5 -95.5q-95 0 -151 56t-56 149q0 134 77 232.5t209 98.5q96 0 153 -53.5t57 -154.5zM376 364q0 93 -63 93q-52 0 -82 -66q-22 -50 -36 -121.5t-14 -135.5q0 -85 62 -85q53 0 80 62q22 43 37.5 114.5t15.5 138.5zM412 686q50 0 72 45
l38 -16q-14 -57 -44 -93.5t-70 -36.5q-30 0 -73 15.5t-62 15.5q-45 0 -70 -48l-35 16q9 57 38.5 96.5t71.5 39.5q29 0 70.5 -17t63.5 -17z" />
    <glyph glyph-name="odieresis" unicode="&#xf6;" horiz-adv-x="552" 
d="M318 646q0 -33 -24.5 -56.5t-58.5 -23.5t-58 23.5t-24 56.5q0 34 24.5 57.5t59.5 23.5q34 0 57.5 -23.5t23.5 -57.5zM541 646q0 -33 -24.5 -56.5t-58.5 -23.5t-58 23.5t-24 56.5q0 34 24.5 57.5t59.5 23.5q34 0 57.5 -23.5t23.5 -57.5zM527 314q0 -137 -75.5 -232.5
t-213.5 -95.5q-95 0 -151 56t-56 149q0 134 77 232.5t209 98.5q96 0 153 -53.5t57 -154.5zM376 364q0 93 -63 93q-52 0 -82 -66q-22 -50 -36 -121.5t-14 -135.5q0 -85 62 -85q53 0 80 62q22 43 37.5 114.5t15.5 138.5z" />
    <glyph glyph-name="divide" unicode="&#xf7;" horiz-adv-x="621" 
d="M52 236l13 70h506l-14 -70h-505zM418 474q0 -32 -20.5 -53.5t-50.5 -21.5t-50.5 21t-20.5 52q0 30 20.5 51.5t50.5 21.5q29 0 50 -21t21 -50zM343 64q0 -31 -21 -52.5t-50 -21.5q-30 0 -51 20.5t-21 51.5q0 30 21 51.5t51 21.5q29 0 50 -21t21 -50z" />
    <glyph glyph-name="oslash" unicode="&#xf8;" horiz-adv-x="552" 
d="M527 314q0 -137 -75.5 -232.5t-213.5 -95.5q-65 0 -114 27l-51 -64l-39 29l51 65q-54 56 -54 148q0 134 77 232.5t209 98.5q71 0 122 -30l50 63l39 -29l-51 -65q50 -53 50 -147zM227 391q-43 -99 -50 -231l197 249q-14 48 -61 48q-58 0 -86 -66zM328 111q44 89 50 225
l-195 -247q15 -40 60 -40q55 0 85 62z" />
    <glyph glyph-name="ugrave" unicode="&#xf9;" horiz-adv-x="575" 
d="M325 99q-74 -113 -183 -113q-52 0 -78 27.5t-26 75.5q0 24 6 51l51 216q5 19 5 38q0 27 -16 38t-52 11l8 39q66 33 127 33q85 0 85 -85q0 -23 -7 -53l-51 -221q-4 -17 -4 -32q0 -33 32 -33q53 0 122 110l65 308h143l-77 -371q-5 -25 -5 -38q0 -19 11 -27t36 -8q6 0 28 2
l3 -41q-62 -35 -131 -35q-93 0 -93 93v9zM439 593l-25 -35l-240 96l77 125z" />
    <glyph glyph-name="uacute" unicode="&#xfa;" horiz-adv-x="575" 
d="M223 593l188 186l78 -125l-240 -96zM325 99q-74 -113 -183 -113q-52 0 -78 27.5t-26 75.5q0 24 6 51l51 216q5 19 5 38q0 27 -16 38t-52 11l8 39q66 33 127 33q85 0 85 -85q0 -23 -7 -53l-51 -221q-4 -17 -4 -32q0 -33 32 -33q53 0 122 110l65 308h143l-77 -371
q-5 -25 -5 -38q0 -19 11 -27t36 -8q6 0 28 2l3 -41q-62 -35 -131 -35q-93 0 -93 93v9z" />
    <glyph glyph-name="ucircumflex" unicode="&#xfb;" horiz-adv-x="575" 
d="M360 635l-165 -78l-22 36l210 174l136 -179l-25 -32zM325 99q-74 -113 -183 -113q-52 0 -78 27.5t-26 75.5q0 24 6 51l51 216q5 19 5 38q0 27 -16 38t-52 11l8 39q66 33 127 33q85 0 85 -85q0 -23 -7 -53l-51 -221q-4 -17 -4 -32q0 -33 32 -33q53 0 122 110l65 308h143
l-77 -371q-5 -25 -5 -38q0 -19 11 -27t36 -8q6 0 28 2l3 -41q-62 -35 -131 -35q-93 0 -93 93v9z" />
    <glyph glyph-name="udieresis" unicode="&#xfc;" horiz-adv-x="575" 
d="M312 646q0 -33 -24.5 -56.5t-58.5 -23.5t-58 23.5t-24 56.5q0 34 24.5 57.5t59.5 23.5q34 0 57.5 -23.5t23.5 -57.5zM535 646q0 -33 -24.5 -56.5t-58.5 -23.5t-58 23.5t-24 56.5q0 34 24.5 57.5t59.5 23.5q34 0 57.5 -23.5t23.5 -57.5zM325 99q-74 -113 -183 -113
q-52 0 -78 27.5t-26 75.5q0 24 6 51l51 216q5 19 5 38q0 27 -16 38t-52 11l8 39q66 33 127 33q85 0 85 -85q0 -23 -7 -53l-51 -221q-4 -17 -4 -32q0 -33 32 -33q53 0 122 110l65 308h143l-77 -371q-5 -25 -5 -38q0 -19 11 -27t36 -8q6 0 28 2l3 -41q-62 -35 -131 -35
q-93 0 -93 93v9z" />
    <glyph glyph-name="yacute" unicode="&#xfd;" horiz-adv-x="492" 
d="M182 13l-61 -3q-4 100 -20 214l-20 144q-7 50 -20.5 63.5t-52.5 13.5l7 40q62 30 118 30q45 0 62.5 -29t27.5 -105l14 -110q6 -52 6 -92q0 -42 -6 -81h6l43 88q95 194 97 330l128 -14v-43l-254 -470q-49 -91 -108 -137.5t-137 -58.5l-55 98q88 15 142 39.5t83 82.5z
M188 593l188 186l78 -125l-240 -96z" />
    <glyph glyph-name="thorn" unicode="&#xfe;" horiz-adv-x="590" 
d="M241 318l-52 -248q13 -23 48 -23q53 0 93 49.5t58 115.5t18 131q0 73 -46 73q-27 0 -60 -28t-59 -70zM296 561l-35 -160q78 120 178 120q57 0 91.5 -41t34.5 -114q0 -158 -93 -269t-232 -111q-43 0 -67 10l-17 -77q-5 -23 -5 -35q0 -20 12 -27t43 -8l-11 -45h-272l10 45
q38 1 52 14t23 56l140 653q5 27 5 40q0 26 -14 36t-46 11l11 45l184 26h13q8 -22 8 -62q0 -50 -13 -107z" />
    <glyph glyph-name="ydieresis" unicode="&#xff;" horiz-adv-x="492" 
d="M182 13l-61 -3q-4 100 -20 214l-20 144q-7 50 -20.5 63.5t-52.5 13.5l7 40q62 30 118 30q45 0 62.5 -29t27.5 -105l14 -110q6 -52 6 -92q0 -42 -6 -81h6l43 88q95 194 97 330l128 -14v-43l-254 -470q-49 -91 -108 -137.5t-137 -58.5l-55 98q88 15 142 39.5t83 82.5z
M274 646q0 -33 -24.5 -56.5t-58.5 -23.5t-58 23.5t-24 56.5q0 34 24.5 57.5t59.5 23.5q34 0 57.5 -23.5t23.5 -57.5zM497 646q0 -33 -24.5 -56.5t-58.5 -23.5t-58 23.5t-24 56.5q0 34 24.5 57.5t59.5 23.5q34 0 57.5 -23.5t23.5 -57.5z" />
    <glyph glyph-name="Amacron" unicode="&#x100;" horiz-adv-x="648" 
d="M394 101l-10 86h-213l-39 -80q-10 -23 -10 -33q0 -27 55 -28l-9 -46h-221l8 46q35 4 52.5 16.5t37.5 50.5l300 582h125l87 -582q6 -38 16.5 -50.5t39.5 -16.5l-9 -46h-284l8 46q39 1 53 10t14 31q0 5 -1 14zM301 452l-94 -191h167l-21 183q-5 39 -5 84v15h-6
q-8 -23 -41 -91zM561 773h-302l16 78h302z" />
    <glyph glyph-name="amacron" unicode="&#x101;" horiz-adv-x="579" 
d="M344 522q82 0 97 -57q12 21 40 45h90q-25 -53 -43 -132l-54 -240q-6 -24 -6 -39q0 -19 10.5 -26.5t35.5 -7.5q7 0 29 2l3 -41q-62 -35 -130 -35q-92 0 -92 98v5.5v5.5l1 3q-74 -116 -176 -116q-59 0 -91.5 37.5t-32.5 106.5q0 152 97 271.5t222 119.5zM347 450
q-45 0 -85.5 -45.5t-63.5 -114.5t-23 -138q0 -71 39 -71q51 0 128 120l54 228q-15 21 -49 21zM529 601h-302l16 78h302z" />
    <glyph glyph-name="Abreve" unicode="&#x102;" horiz-adv-x="648" 
d="M394 101l-10 86h-213l-39 -80q-10 -23 -10 -33q0 -27 55 -28l-9 -46h-221l8 46q35 4 52.5 16.5t37.5 50.5l300 582h125l87 -582q6 -38 16.5 -50.5t39.5 -16.5l-9 -46h-284l8 46q39 1 53 10t14 31q0 5 -1 14zM301 452l-94 -191h167l-21 183q-5 39 -5 84v15h-6
q-8 -23 -41 -91zM411 744q-67 0 -102.5 48.5t-39.5 116.5l40 17q16 -42 41.5 -61t68.5 -19q78 0 144 82l37 -22q-29 -69 -76 -115.5t-113 -46.5z" />
    <glyph glyph-name="abreve" unicode="&#x103;" horiz-adv-x="579" 
d="M344 522q82 0 97 -57q12 21 40 45h90q-25 -53 -43 -132l-54 -240q-6 -24 -6 -39q0 -19 10.5 -26.5t35.5 -7.5q7 0 29 2l3 -41q-62 -35 -130 -35q-92 0 -92 98v5.5v5.5l1 3q-74 -116 -176 -116q-59 0 -91.5 37.5t-32.5 106.5q0 152 97 271.5t222 119.5zM347 450
q-45 0 -85.5 -45.5t-63.5 -114.5t-23 -138q0 -71 39 -71q51 0 128 120l54 228q-15 21 -49 21zM366 565q-68 0 -103 48.5t-41 118.5l41 15q15 -42 41 -61t69 -19q76 0 144 82l36 -22q-68 -162 -187 -162z" />
    <glyph glyph-name="Aogonek" unicode="&#x104;" horiz-adv-x="648" 
d="M392 -132l17 -28q-43 -45 -121 -45q-49 0 -80.5 21t-31.5 62q0 44 37.5 76t138.5 83q42 21 42 53q0 5 -1 13l-9 84h-213l-39 -80q-10 -23 -10 -33q0 -27 55 -28l-9 -46h-221l8 46q35 4 52.5 16.5t37.5 50.5l300 582h125l87 -582q6 -38 16.5 -50.5t39.5 -16.5l-9 -46h-180
q-62 0 -94.5 -30.5t-32.5 -71.5q0 -23 12.5 -34t31.5 -11q24 0 51 15zM301 452l-94 -191h167l-21 183q-5 39 -5 84v15h-6q-5 -14 -41 -91z" />
    <glyph glyph-name="aogonek" unicode="&#x105;" horiz-adv-x="579" 
d="M482 -132l17 -28q-43 -45 -121 -45q-48 0 -80 21t-32 61q0 69 121 117q-62 15 -62 95v14q-74 -116 -176 -116q-59 0 -91.5 37.5t-32.5 106.5q0 152 97 271.5t222 119.5q82 0 97 -57q12 21 40 45h90q-25 -53 -43 -132l-54 -240q-6 -24 -6 -39q0 -19 10.5 -26.5t34.5 -7.5
q6 0 30 2l3 -41q-8 -4 -39 -18t-45.5 -22.5t-35.5 -23t-30 -31t-9 -35.5q0 -21 12.5 -32t31.5 -11q24 0 51 15zM347 450q-45 0 -85.5 -45.5t-63.5 -114.5t-23 -138q0 -71 39 -71q51 0 128 120l54 228q-15 21 -49 21z" />
    <glyph glyph-name="Cacute" unicode="&#x106;" horiz-adv-x="617" 
d="M318 -14q-135 0 -201.5 70.5t-66.5 201.5q0 88 26.5 168t75.5 142.5t125.5 100t169.5 37.5q125 0 196 -51l-27 -135h-107q-2 63 -17.5 89.5t-60.5 26.5q-69 0 -119 -60.5t-73.5 -153.5t-23.5 -204q0 -89 28.5 -125.5t85.5 -36.5q53 0 84 29t53 92h108l-27 -138
q-35 -23 -99.5 -38t-129.5 -15zM322 760l205 165l65 -130l-247 -72z" />
    <glyph glyph-name="cacute" unicode="&#x107;" horiz-adv-x="475" 
d="M220 593l188 186l78 -125l-240 -96zM333 522q99 0 149 -42l-21 -109h-100v17q0 36 -9 53t-35 17q-58 0 -96 -82.5t-38 -192.5t89 -110q36 0 62 11.5t59 36.5l32 -46q-74 -89 -200 -89q-92 0 -142.5 54t-50.5 152q0 80 35 154.5t105.5 125t160.5 50.5z" />
    <glyph glyph-name="Ccircumflex" unicode="&#x108;" horiz-adv-x="617" 
d="M460 808l-166 -78l-21 36l210 174l136 -179l-25 -32zM318 -14q-135 0 -201.5 70.5t-66.5 201.5q0 88 26.5 168t75.5 142.5t125.5 100t169.5 37.5q125 0 196 -51l-27 -135h-107q-2 63 -17.5 89.5t-60.5 26.5q-69 0 -119 -60.5t-73.5 -153.5t-23.5 -204q0 -89 28.5 -125.5
t85.5 -36.5q53 0 84 29t53 92h108l-27 -138q-35 -23 -99.5 -38t-129.5 -15z" />
    <glyph glyph-name="ccircumflex" unicode="&#x109;" horiz-adv-x="475" 
d="M350 635l-165 -78l-22 36l210 174l136 -179l-25 -32zM333 522q99 0 149 -42l-21 -109h-100v17q0 36 -9 53t-35 17q-58 0 -96 -82.5t-38 -192.5t89 -110q36 0 62 11.5t59 36.5l32 -46q-74 -89 -200 -89q-92 0 -142.5 54t-50.5 152q0 80 35 154.5t105.5 125t160.5 50.5z
" />
    <glyph glyph-name="Cdotaccent" unicode="&#x10a;" horiz-adv-x="617" 
d="M318 -14q-135 0 -201.5 70.5t-66.5 201.5q0 88 26.5 168t75.5 142.5t125.5 100t169.5 37.5q125 0 196 -51l-27 -135h-107q-2 63 -17.5 89.5t-60.5 26.5q-69 0 -119 -60.5t-73.5 -153.5t-23.5 -204q0 -89 28.5 -125.5t85.5 -36.5q53 0 84 29t53 92h108l-27 -138
q-35 -23 -99.5 -38t-129.5 -15zM534 828q0 -35 -25 -59.5t-61 -24.5q-35 0 -60 24.5t-25 59.5t25.5 59.5t61.5 24.5q35 0 59.5 -24.5t24.5 -59.5z" />
    <glyph glyph-name="cdotaccent" unicode="&#x10b;" horiz-adv-x="475" 
d="M333 522q99 0 149 -42l-21 -109h-100v17q0 36 -9 53t-35 17q-58 0 -96 -82.5t-38 -192.5t89 -110q36 0 62 11.5t59 36.5l32 -46q-74 -89 -200 -89q-92 0 -142.5 54t-50.5 152q0 80 35 154.5t105.5 125t160.5 50.5zM426 652q0 -35 -25 -59.5t-61 -24.5q-35 0 -60 24.5
t-25 59.5t25.5 60t61.5 25q35 0 59.5 -25t24.5 -60z" />
    <glyph glyph-name="Ccaron" unicode="&#x10c;" horiz-adv-x="617" 
d="M441 861l165 78l22 -35l-210 -174l-136 178l25 33zM318 -14q-135 0 -201.5 70.5t-66.5 201.5q0 88 26.5 168t75.5 142.5t125.5 100t169.5 37.5q125 0 196 -51l-27 -135h-107q-2 63 -17.5 89.5t-60.5 26.5q-69 0 -119 -60.5t-73.5 -153.5t-23.5 -204q0 -89 28.5 -125.5
t85.5 -36.5q53 0 84 29t53 92h108l-27 -138q-35 -23 -99.5 -38t-129.5 -15z" />
    <glyph glyph-name="ccaron" unicode="&#x10d;" horiz-adv-x="475" 
d="M344 682l167 78l21 -35l-210 -174l-136 178l26 33zM333 522q99 0 149 -42l-21 -109h-100v17q0 36 -9 53t-35 17q-58 0 -96 -82.5t-38 -192.5t89 -110q36 0 62 11.5t59 36.5l32 -46q-74 -89 -200 -89q-92 0 -142.5 54t-50.5 152q0 80 35 154.5t105.5 125t160.5 50.5z" />
    <glyph glyph-name="Dcaron" unicode="&#x10e;" horiz-adv-x="697" 
d="M409 861l165 78l22 -35l-210 -174l-136 178l25 33zM-18 0l8 46q41 0 58.5 14.5t25.5 56.5l89 458q4 18 4 31q0 23 -13.5 31.5t-45.5 9.5l9 48h277q136 0 207 -66t71 -194q0 -221 -120 -347q-84 -88 -258 -88h-312zM377 625h-47l-108 -558h48q56 0 93 13.5t65 53.5
q33 49 55.5 143t22.5 191q0 86 -27 121.5t-102 35.5z" />
    <glyph glyph-name="dcaron" unicode="&#x10f;" horiz-adv-x="595" 
d="M351 201l50 231q-16 18 -47 18q-70 0 -124.5 -92t-54.5 -204q0 -73 41 -73q60 0 135 120zM337 103q-32 -52 -80.5 -84t-103.5 -32q-60 0 -94 38t-34 107q0 154 100 272t228 118q40 0 66 -16l14 66q5 27 5 40q0 26 -14 36t-46 11l11 45l183 26h13q6 -18 6 -52
q0 -53 -14 -117l-91 -423q-5 -27 -5 -39q0 -19 10 -26.5t34 -7.5q6 0 30 2l3 -41q-67 -35 -131 -35q-91 0 -91 94v11zM761 724l-81 -177l-59 9l26 181z" />
    <glyph glyph-name="Dcroat" unicode="&#x110;" horiz-adv-x="697" 
d="M-18 0l8 46q41 0 58.5 14.5t25.5 56.5l39 203h-73l15 73h72l36 182q4 24 4 31q0 23 -13.5 31.5t-45.5 9.5l9 48h277q136 0 207 -66t71 -194q0 -221 -120 -347q-84 -88 -258 -88h-312zM377 625h-47l-45 -232h124l-16 -73h-122l-49 -253h48q56 0 93 13.5t65 53.5
q33 49 55.5 143t22.5 191q0 86 -27 121.5t-102 35.5z" />
    <glyph glyph-name="dcroat" unicode="&#x111;" horiz-adv-x="595" 
d="M272 566l12 45h157q2 12 2 17q0 17 -14.5 24.5t-50.5 8.5l11 43l183 26h13q6 -20 6 -54q0 -32 -5 -65h73l-13 -45h-68l-92 -428q-5 -27 -5 -39q0 -19 10 -26.5t34 -7.5q6 0 30 2l3 -41q-67 -35 -131 -35q-91 0 -91 96q0 3 0.5 8.5t0.5 7.5q-32 -52 -80.5 -84t-103.5 -32
q-60 0 -94 38t-34 107q0 154 100 272t228 118q40 0 66 -16l12 60h-159zM351 201l50 231q-16 18 -47 18q-70 0 -124.5 -92t-54.5 -204q0 -73 41 -73q60 0 135 120z" />
    <glyph glyph-name="Emacron" unicode="&#x112;" horiz-adv-x="593" 
d="M-18 0l8 46q41 0 58.5 14.5t25.5 56.5l89 458q4 20 4 31q0 23 -13.5 31.5t-45.5 9.5l9 48h500l-21 -169h-74q-6 61 -20 79.5t-65 18.5h-108l-46 -238h61q47 0 66 14t30 57h66l-41 -209h-66q2 14 2 23q0 27 -15 37.5t-54 10.5h-62l-49 -252h123q51 0 76.5 24t44.5 92h76
l-35 -183h-524zM539 773h-302l16 78h302z" />
    <glyph glyph-name="emacron" unicode="&#x113;" horiz-adv-x="515" 
d="M180 172q0 -98 92 -98q82 0 147 58l31 -43q-89 -103 -223 -103q-97 0 -146 51.5t-49 146.5q0 136 87 237t211 101q81 0 127 -33.5t46 -104.5q0 -47 -24 -80.5t-66.5 -52t-93.5 -27t-113 -8.5h-24q-2 -19 -2 -44zM367 403q0 25 -12.5 39.5t-33.5 14.5q-43 0 -77.5 -49.5
t-50.5 -130.5h4q170 0 170 126zM491 601h-302l16 78h302z" />
    <glyph glyph-name="Ebreve" unicode="&#x114;" horiz-adv-x="593" 
d="M-18 0l8 46q41 0 58.5 14.5t25.5 56.5l89 458q4 20 4 31q0 23 -13.5 31.5t-45.5 9.5l9 48h500l-21 -169h-74q-6 61 -20 79.5t-65 18.5h-108l-46 -238h61q47 0 66 14t30 57h66l-41 -209h-66q2 14 2 23q0 27 -15 37.5t-54 10.5h-62l-49 -252h123q51 0 76.5 24t44.5 92h76
l-35 -183h-524zM390 743q-68 0 -103 48.5t-41 118.5l41 15q15 -42 41 -61t69 -19q76 0 144 82l36 -22q-68 -162 -187 -162z" />
    <glyph glyph-name="ebreve" unicode="&#x115;" horiz-adv-x="515" 
d="M180 172q0 -98 92 -98q82 0 147 58l31 -43q-89 -103 -223 -103q-97 0 -146 51.5t-49 146.5q0 136 87 237t211 101q81 0 127 -33.5t46 -104.5q0 -47 -24 -80.5t-66.5 -52t-93.5 -27t-113 -8.5h-24q-2 -19 -2 -44zM367 403q0 25 -12.5 39.5t-33.5 14.5q-43 0 -77.5 -49.5
t-50.5 -130.5h4q170 0 170 126zM356 565q-68 0 -103 48.5t-41 118.5l41 15q15 -42 41 -61t69 -19q76 0 144 82l36 -22q-68 -162 -187 -162z" />
    <glyph glyph-name="Edotaccent" unicode="&#x116;" horiz-adv-x="593" 
d="M483 828q0 -35 -25 -59.5t-61 -24.5q-35 0 -60 24.5t-25 59.5t25.5 59.5t61.5 24.5q35 0 59.5 -24.5t24.5 -59.5zM-18 0l8 46q41 0 58.5 14.5t25.5 56.5l89 458q4 20 4 31q0 23 -13.5 31.5t-45.5 9.5l9 48h500l-21 -169h-74q-6 61 -20 79.5t-65 18.5h-108l-46 -238h61
q47 0 66 14t30 57h66l-41 -209h-66q2 14 2 23q0 27 -15 37.5t-54 10.5h-62l-49 -252h123q51 0 76.5 24t44.5 92h76l-35 -183h-524z" />
    <glyph glyph-name="edotaccent" unicode="&#x117;" horiz-adv-x="515" 
d="M180 172q0 -98 92 -98q82 0 147 58l31 -43q-89 -103 -223 -103q-97 0 -146 51.5t-49 146.5q0 136 87 237t211 101q81 0 127 -33.5t46 -104.5q0 -47 -24 -80.5t-66.5 -52t-93.5 -27t-113 -8.5h-24q-2 -19 -2 -44zM367 403q0 25 -12.5 39.5t-33.5 14.5q-43 0 -77.5 -49.5
t-50.5 -130.5h4q170 0 170 126zM432 652q0 -35 -25 -59.5t-61 -24.5q-35 0 -60 24.5t-25 59.5t25.5 60t61.5 25q35 0 59.5 -25t24.5 -60z" />
    <glyph glyph-name="Eogonek" unicode="&#x118;" horiz-adv-x="593" 
d="M380 0h-398l8 46q41 0 58.5 14.5t25.5 56.5l89 458q4 16 4 31q0 23 -13.5 31.5t-45.5 9.5l9 48h500l-21 -169h-74q-6 61 -20 79.5t-65 18.5h-108l-46 -238h61q47 0 66 14t30 57h66l-41 -209h-66q2 18 2 23q0 27 -15 37.5t-54 10.5h-62l-49 -252h123q51 0 76.5 24t44.5 92
h76l-35 -183h-7q-56 0 -96.5 -33t-40.5 -70q0 -21 13 -32.5t32 -11.5q23 0 50 15l17 -28q-43 -45 -121 -45q-48 0 -80 21t-32 61q0 75 139 123z" />
    <glyph glyph-name="eogonek" unicode="&#x119;" horiz-adv-x="515" 
d="M332 -132l17 -28q-43 -45 -121 -45q-48 0 -80 21t-32 61q0 36 27 62t84 50h-8q-94 0 -140.5 50.5t-46.5 144.5q0 136 87 237t211 101q81 0 127 -33.5t46 -104.5q0 -47 -24 -80.5t-66.5 -52t-93.5 -27t-113 -8.5h-24q-2 -17 -2 -44q0 -98 92 -98q82 0 147 58l31 -43
q-39 -46 -109 -83q-103 -55 -103 -110q0 -21 12.5 -32t31.5 -11q23 0 50 15zM367 403q0 25 -12.5 39.5t-33.5 14.5q-43 0 -77.5 -49.5t-50.5 -130.5h4q170 0 170 126z" />
    <glyph glyph-name="Ecaron" unicode="&#x11a;" horiz-adv-x="593" 
d="M403 861l165 78l22 -35l-210 -174l-136 178l25 33zM-18 0l8 46q41 0 58.5 14.5t25.5 56.5l89 458q4 20 4 31q0 23 -13.5 31.5t-45.5 9.5l9 48h500l-21 -169h-74q-6 61 -20 79.5t-65 18.5h-108l-46 -238h61q47 0 66 14t30 57h66l-41 -209h-66q2 14 2 23q0 27 -15 37.5
t-54 10.5h-62l-49 -252h123q51 0 76.5 24t44.5 92h76l-35 -183h-524z" />
    <glyph glyph-name="ecaron" unicode="&#x11b;" horiz-adv-x="515" 
d="M340 682l167 78l21 -35l-210 -174l-136 178l26 33zM180 172q0 -98 92 -98q82 0 147 58l31 -43q-89 -103 -223 -103q-97 0 -146 51.5t-49 146.5q0 136 87 237t211 101q81 0 127 -33.5t46 -104.5q0 -47 -24 -80.5t-66.5 -52t-93.5 -27t-113 -8.5h-24q-2 -19 -2 -44z
M367 403q0 25 -12.5 39.5t-33.5 14.5q-43 0 -77.5 -49.5t-50.5 -130.5h4q170 0 170 126z" />
    <glyph glyph-name="Gcircumflex" unicode="&#x11c;" horiz-adv-x="691" 
d="M493 808l-166 -78l-21 36l210 174l136 -179l-25 -32zM340 54q50 0 82 20l30 156q4 20 4 31q0 23 -15.5 31.5t-55.5 9.5l10 47h296l-10 -47q-38 -1 -54.5 -15.5t-24.5 -56.5l-37 -190q-44 -25 -106 -39.5t-119 -14.5q-290 0 -290 272q0 86 25.5 164.5t74.5 142.5
t128.5 102.5t178.5 38.5q131 0 206 -51l-27 -135h-105q-1 62 -20 88.5t-70 26.5q-106 0 -166 -119t-60 -299q0 -86 31 -124.5t94 -38.5z" />
    <glyph glyph-name="gcircumflex" unicode="&#x11d;" horiz-adv-x="528" 
d="M343 635l-165 -78l-22 36l210 174l136 -179l-25 -32zM178 -202q-224 0 -224 101q0 50 58 77l98 2q-21 -28 -21 -62q0 -31 23 -44t72 -13q137 0 137 85q0 28 -21.5 40t-69.5 16q-101 9 -122 12q-40 5 -59.5 22.5t-19.5 53.5q0 87 128 119q-105 25 -105 130
q0 84 64.5 134.5t165.5 50.5q39 0 97 -13t76 -13q50 0 99 39l32 -96q-33 -19 -77 -19q-39 0 -62 11q32 -27 32 -84q0 -63 -56.5 -108.5t-175.5 -45.5q-5 0 -13 0.5t-13 0.5q-58 -15 -58 -39q0 -21 24 -23l121 -13q73 -8 111.5 -35.5t38.5 -91.5q0 -67 -39.5 -112
t-100.5 -63.5t-140 -18.5zM254 253q44 0 65.5 39t21.5 100q0 68 -60 68q-41 0 -64 -39.5t-23 -98.5q0 -34 17 -51.5t43 -17.5z" />
    <glyph glyph-name="Gbreve" unicode="&#x11e;" horiz-adv-x="691" 
d="M455 744q-67 0 -102.5 48.5t-39.5 116.5l40 17q16 -42 41.5 -61t68.5 -19q78 0 144 82l37 -22q-29 -69 -76 -115.5t-113 -46.5zM340 54q50 0 82 20l30 156q4 20 4 31q0 23 -15.5 31.5t-55.5 9.5l10 47h296l-10 -47q-38 -1 -54.5 -15.5t-24.5 -56.5l-37 -190
q-44 -25 -106 -39.5t-119 -14.5q-290 0 -290 272q0 86 25.5 164.5t74.5 142.5t128.5 102.5t178.5 38.5q131 0 206 -51l-27 -135h-105q-1 62 -20 88.5t-70 26.5q-106 0 -166 -119t-60 -299q0 -86 31 -124.5t94 -38.5z" />
    <glyph glyph-name="gbreve" unicode="&#x11f;" horiz-adv-x="528" 
d="M178 -202q-224 0 -224 101q0 50 58 77l98 2q-21 -28 -21 -62q0 -31 23 -44t72 -13q137 0 137 85q0 28 -21.5 40t-69.5 16q-101 9 -122 12q-40 5 -59.5 22.5t-19.5 53.5q0 87 128 119q-105 25 -105 130q0 84 64.5 134.5t165.5 50.5q39 0 97 -13t76 -13q50 0 99 39l32 -96
q-33 -19 -77 -19q-39 0 -62 11q32 -27 32 -84q0 -63 -56.5 -108.5t-175.5 -45.5q-5 0 -13 0.5t-13 0.5q-58 -15 -58 -39q0 -21 24 -23l121 -13q73 -8 111.5 -35.5t38.5 -91.5q0 -67 -39.5 -112t-100.5 -63.5t-140 -18.5zM254 253q44 0 65.5 39t21.5 100q0 68 -60 68
q-41 0 -64 -39.5t-23 -98.5q0 -34 17 -51.5t43 -17.5zM317 565q-68 0 -103 48.5t-41 118.5l41 15q15 -42 41 -61t69 -19q76 0 144 82l36 -22q-68 -162 -187 -162z" />
    <glyph glyph-name="Gdotaccent" unicode="&#x120;" horiz-adv-x="691" 
d="M551 828q0 -35 -25 -59.5t-61 -24.5q-35 0 -60 24.5t-25 59.5t25.5 59.5t61.5 24.5q35 0 59.5 -24.5t24.5 -59.5zM340 54q50 0 82 20l30 156q4 20 4 31q0 23 -15.5 31.5t-55.5 9.5l10 47h296l-10 -47q-38 -1 -54.5 -15.5t-24.5 -56.5l-37 -190q-44 -25 -106 -39.5
t-119 -14.5q-290 0 -290 272q0 86 25.5 164.5t74.5 142.5t128.5 102.5t178.5 38.5q131 0 206 -51l-27 -135h-105q-1 62 -20 88.5t-70 26.5q-106 0 -166 -119t-60 -299q0 -86 31 -124.5t94 -38.5z" />
    <glyph glyph-name="gdotaccent" unicode="&#x121;" horiz-adv-x="528" 
d="M178 -202q-224 0 -224 101q0 50 58 77l98 2q-21 -28 -21 -62q0 -31 23 -44t72 -13q137 0 137 85q0 28 -21.5 40t-69.5 16q-101 9 -122 12q-40 5 -59.5 22.5t-19.5 53.5q0 87 128 119q-105 25 -105 130q0 84 64.5 134.5t165.5 50.5q39 0 97 -13t76 -13q50 0 99 39l32 -96
q-33 -19 -77 -19q-39 0 -62 11q32 -27 32 -84q0 -63 -56.5 -108.5t-175.5 -45.5q-5 0 -13 0.5t-13 0.5q-58 -15 -58 -39q0 -21 24 -23l121 -13q73 -8 111.5 -35.5t38.5 -91.5q0 -67 -39.5 -112t-100.5 -63.5t-140 -18.5zM254 253q44 0 65.5 39t21.5 100q0 68 -60 68
q-41 0 -64 -39.5t-23 -98.5q0 -34 17 -51.5t43 -17.5zM411 652q0 -35 -25 -59.5t-61 -24.5q-35 0 -60 24.5t-25 59.5t25.5 60t61.5 25q35 0 59.5 -25t24.5 -60z" />
    <glyph glyph-name="Gcommaaccent" unicode="&#x122;" horiz-adv-x="691" 
d="M340 54q50 0 82 20l30 156q4 20 4 31q0 23 -15.5 31.5t-55.5 9.5l10 47h296l-10 -47q-38 -1 -54.5 -15.5t-24.5 -56.5l-37 -190q-44 -25 -106 -39.5t-119 -14.5q-290 0 -290 272q0 86 25.5 164.5t74.5 142.5t128.5 102.5t178.5 38.5q131 0 206 -51l-27 -135h-105
q-1 62 -20 88.5t-70 26.5q-106 0 -166 -119t-60 -299q0 -86 31 -124.5t94 -38.5zM377 -133q0 -60 -50 -100.5t-121 -52.5l-18 35q86 27 86 58q0 14 -22 24q-36 17 -36 58q0 28 22 47.5t57 19.5q39 0 60.5 -25.5t21.5 -63.5z" />
    <glyph glyph-name="gcommaaccent" unicode="&#x123;" horiz-adv-x="528" 
d="M178 -202q-224 0 -224 101q0 50 58 77l98 2q-21 -28 -21 -62q0 -31 23 -44t72 -13q137 0 137 85q0 28 -21.5 40t-69.5 16q-101 9 -122 12q-40 5 -59.5 22.5t-19.5 53.5q0 87 128 119q-105 25 -105 130q0 84 64.5 134.5t165.5 50.5q39 0 97 -13t76 -13q50 0 99 39l32 -96
q-33 -19 -77 -19q-39 0 -62 11q32 -27 32 -84q0 -63 -56.5 -108.5t-175.5 -45.5q-5 0 -13 0.5t-13 0.5q-58 -15 -58 -39q0 -21 24 -23l121 -13q73 -8 111.5 -35.5t38.5 -91.5q0 -67 -39.5 -112t-100.5 -63.5t-140 -18.5zM254 253q44 0 65.5 39t21.5 100q0 68 -60 68
q-41 0 -64 -39.5t-23 -98.5q0 -34 17 -51.5t43 -17.5zM247 651q0 61 51.5 102t123.5 53l17 -35q-45 -15 -67 -28.5t-22 -31.5q0 -15 20 -23q38 -14 38 -59q0 -28 -22 -48t-56 -20q-39 0 -61 26t-22 64z" />
    <glyph glyph-name="Hcircumflex" unicode="&#x124;" horiz-adv-x="750" 
d="M712 575l-89 -458q-8 -42 3.5 -56.5t51.5 -14.5l-8 -46h-295l8 46q40 0 57.5 14.5t25.5 56.5l39 202h-235l-39 -202q-8 -42 3.5 -56.5t51.5 -14.5l-8 -46h-296l8 46q41 0 58.5 14.5t25.5 56.5l89 458q8 42 -3.5 56.5t-51.5 15.5l9 48h295l-9 -48q-40 -1 -57.5 -15.5
t-25.5 -56.5l-36 -181h235l36 181q8 42 -3.5 56.5t-51.5 15.5l9 48h295l-9 -48q-40 -1 -57.5 -15.5t-25.5 -56.5zM486 808l-166 -78l-21 36l210 174l136 -179l-25 -32z" />
    <glyph glyph-name="hcircumflex" unicode="&#x125;" horiz-adv-x="579" 
d="M333 141l48 208q3 13 3 25q0 30 -29 30q-56 0 -129 -110l-64 -294h-146l124 572q5 27 5 40q0 26 -14 36t-46 11l11 45l184 26h13q6 -18 6 -52q0 -53 -14 -117l-38 -171q38 61 87.5 96.5t104.5 35.5q49 0 74 -28t25 -74q0 -25 -5 -45l-55 -237q-6 -25 -6 -41
q0 -18 9.5 -25t32.5 -7q21 0 34 2l3 -41q-67 -35 -132 -35q-94 0 -94 90q0 25 8 60zM383 839l-166 -78l-21 36l210 174l136 -179l-25 -32z" />
    <glyph glyph-name="Hbar" unicode="&#x126;" horiz-adv-x="750" 
d="M712 575l-5 -26h71l-13 -63h-71l-71 -369q-8 -42 3.5 -56.5t51.5 -14.5l-8 -46h-295l8 46q40 0 57.5 14.5t25.5 56.5l39 202h-235l-39 -202q-8 -42 3.5 -56.5t51.5 -14.5l-8 -46h-296l8 46q41 0 58.5 14.5t25.5 56.5l71 369h-70l14 63h69l5 26q8 42 -3.5 56.5t-51.5 15.5
l9 48h295l-9 -48q-40 -1 -57.5 -15.5t-25.5 -56.5l-5 -26h235l5 26q8 42 -3.5 56.5t-51.5 15.5l9 48h295l-9 -48q-40 -1 -57.5 -15.5t-25.5 -56.5zM284 394h235l18 92h-235z" />
    <glyph glyph-name="hbar" unicode="&#x127;" horiz-adv-x="579" 
d="M63 566l12 45h74q1 4 1 11q0 20 -14.5 28t-50.5 9l11 45l184 26h13q6 -20 6 -54q0 -32 -5 -65h156l-13 -45h-151l-39 -176q38 61 87.5 96.5t104.5 35.5q49 0 74 -28t25 -74q0 -25 -5 -45l-55 -237q-6 -25 -6 -41q0 -18 9.5 -25t32.5 -7q12 0 34 2l3 -41q-67 -35 -132 -35
q-94 0 -94 90q0 25 8 60l48 208q3 13 3 25q0 30 -29 30q-56 0 -129 -110l-64 -294h-146l123 566h-76z" />
    <glyph glyph-name="Itilde" unicode="&#x128;" horiz-adv-x="358" 
d="M320 575l-89 -458q-8 -42 3.5 -56.5t51.5 -14.5l-8 -46h-296l8 46q41 0 58.5 14.5t25.5 56.5l89 458q4 20 4 31q0 23 -13.5 31.5t-45.5 9.5l9 48h295l-9 -48q-40 -1 -57.5 -15.5t-25.5 -56.5zM359 857q50 0 74 46l38 -16q-14 -57 -44.5 -93t-71.5 -36q-33 0 -76 18
t-63 18q-46 0 -73 -49l-35 16q9 56 39.5 95t72.5 39q31 0 73 -19t66 -19z" />
    <glyph glyph-name="itilde" unicode="&#x129;" horiz-adv-x="300" 
d="M251 380l-56 -242q-7 -30 -7 -41q0 -32 41 -32q9 0 35 2l4 -41q-68 -35 -135 -35q-93 0 -93 90q0 25 8 60l53 215q6 22 6 38q0 26 -17 37.5t-54 11.5l9 39q64 33 127 33q86 0 86 -81q0 -25 -7 -54zM273 686q49 0 72 45l38 -16q-14 -57 -44 -93.5t-70 -36.5
q-30 0 -73 15.5t-62 15.5q-45 0 -70 -48l-35 16q9 57 38.5 96.5t71.5 39.5q29 0 70.5 -17t63.5 -17z" />
    <glyph glyph-name="Imacron" unicode="&#x12a;" horiz-adv-x="358" 
d="M320 575l-89 -458q-8 -42 3.5 -56.5t51.5 -14.5l-8 -46h-296l8 46q41 0 58.5 14.5t25.5 56.5l89 458q4 20 4 31q0 23 -13.5 31.5t-45.5 9.5l9 48h295l-9 -48q-40 -1 -57.5 -15.5t-25.5 -56.5zM430 773h-302l16 78h302z" />
    <glyph glyph-name="imacron" unicode="&#x12b;" horiz-adv-x="300" 
d="M333 601h-278l16 78h278zM251 380l-56 -242q-7 -30 -7 -41q0 -32 41 -32q9 0 35 2l4 -41q-68 -35 -135 -35q-93 0 -93 90q0 25 8 60l53 215q6 22 6 38q0 26 -17 37.5t-54 11.5l9 39q64 33 127 33q86 0 86 -81q0 -25 -7 -54z" />
    <glyph glyph-name="Ibreve" unicode="&#x12c;" horiz-adv-x="358" 
d="M320 575l-89 -458q-8 -42 3.5 -56.5t51.5 -14.5l-8 -46h-296l8 46q41 0 58.5 14.5t25.5 56.5l89 458q4 20 4 31q0 23 -13.5 31.5t-45.5 9.5l9 48h295l-9 -48q-40 -1 -57.5 -15.5t-25.5 -56.5zM270 744q-67 0 -102.5 48.5t-39.5 116.5l40 17q16 -42 41.5 -61t68.5 -19
q78 0 144 82l37 -22q-29 -69 -76 -115.5t-113 -46.5z" />
    <glyph glyph-name="ibreve" unicode="&#x12d;" horiz-adv-x="300" 
d="M251 380l-56 -242q-7 -30 -7 -41q0 -32 41 -32q9 0 35 2l4 -41q-68 -35 -135 -35q-93 0 -93 90q0 25 8 60l53 215q6 22 6 38q0 26 -17 37.5t-54 11.5l9 39q64 33 127 33q86 0 86 -81q0 -25 -7 -54zM199 565q-68 0 -103 48.5t-41 118.5l41 15q15 -42 41 -61t69 -19
q76 0 144 82l36 -22q-68 -162 -187 -162z" />
    <glyph glyph-name="Iogonek" unicode="&#x12e;" horiz-adv-x="358" 
d="M233 -132l17 -28q-44 -45 -121 -45q-48 0 -80 21.5t-32 61.5t32.5 69t98.5 53h-166l8 46q41 0 58.5 14.5t25.5 56.5l89 458q4 24 4 31q0 23 -13.5 31.5t-45.5 9.5l9 48h295l-9 -48q-40 -1 -57.5 -15.5t-25.5 -56.5l-89 -458q-8 -42 3.5 -56.5t51.5 -14.5l-8 -46h-15
q-51 0 -88 -33.5t-37 -70.5q0 -21 13 -32t32 -11q23 0 50 15z" />
    <glyph glyph-name="iogonek" unicode="&#x12f;" horiz-adv-x="300" 
d="M304 655q0 -34 -25 -58.5t-60 -24.5t-59.5 24.5t-24.5 58.5q0 35 25 59.5t61 24.5q34 0 58.5 -24.5t24.5 -59.5zM264 67l4 -41q-7 -4 -32 -16t-41 -21t-36 -23.5t-30 -32t-10 -37.5q0 -21 12.5 -32t31.5 -11q24 0 50 15l18 -28q-45 -45 -121 -45q-49 0 -81 21t-32 61
q0 69 119 118q-76 6 -76 88q0 23 8 58l53 215q6 22 6 38q0 26 -17 37.5t-54 11.5l9 39q64 33 127 33q86 0 86 -81q0 -25 -7 -54l-56 -242q-7 -30 -7 -41q0 -32 41 -32q9 0 35 2z" />
    <glyph glyph-name="Idotaccent" unicode="&#x130;" horiz-adv-x="358" 
d="M320 575l-89 -458q-8 -42 3.5 -56.5t51.5 -14.5l-8 -46h-296l8 46q41 0 58.5 14.5t25.5 56.5l89 458q4 20 4 31q0 23 -13.5 31.5t-45.5 9.5l9 48h295l-9 -48q-40 -1 -57.5 -15.5t-25.5 -56.5zM369 828q0 -35 -25 -59.5t-61 -24.5q-35 0 -60 24.5t-25 59.5t25.5 59.5
t61.5 24.5q35 0 59.5 -24.5t24.5 -59.5z" />
    <glyph glyph-name="dotlessi" unicode="&#x131;" horiz-adv-x="300" 
d="M251 380l-56 -242q-7 -30 -7 -41q0 -32 41 -32q9 0 35 2l4 -41q-68 -35 -135 -35q-93 0 -93 90q0 25 8 60l53 215q6 22 6 38q0 26 -17 37.5t-54 11.5l9 39q64 33 127 33q86 0 86 -81q0 -25 -7 -54z" />
    <glyph glyph-name="IJ" unicode="&#x132;" horiz-adv-x="710" 
d="M320 575l-89 -458q-8 -42 3.5 -56.5t51.5 -14.5l-8 -46h-296l8 46q41 0 58.5 14.5t25.5 56.5l89 458q4 20 4 31q0 23 -13.5 31.5t-45.5 9.5l9 48h295l-9 -48q-40 -1 -57.5 -15.5t-25.5 -56.5zM673 575l-93 -480q-24 -120 -93 -175t-205 -67l-15 47q79 25 108.5 66.5
t47.5 133.5l93 475q4 18 4 31q0 23 -13.5 31.5t-45.5 9.5l9 48h295l-9 -48q-40 -1 -57.5 -15.5t-25.5 -56.5z" />
    <glyph glyph-name="ij" unicode="&#x133;" horiz-adv-x="574" 
d="M251 380l-56 -242q-7 -30 -7 -41q0 -32 41 -32q9 0 35 2l4 -41q-68 -35 -135 -35q-93 0 -93 90q0 25 8 60l53 215q6 22 6 38q0 26 -17 37.5t-54 11.5l9 39q64 33 127 33q86 0 86 -81q0 -25 -7 -54zM304 655q0 -34 -25 -58.5t-60 -24.5t-59.5 24.5t-24.5 58.5
q0 35 25 59.5t61 24.5q34 0 58.5 -24.5t24.5 -59.5zM465 -4q-18 -89 -76.5 -134t-178.5 -66l-16 55q64 21 89.5 52.5t41.5 110.5l68 342q5 25 5 37q0 27 -16 38.5t-54 11.5l9 39q64 33 127 33q86 0 86 -83q0 -22 -6 -52zM596 655q0 -34 -25 -58.5t-60 -24.5t-59.5 24.5
t-24.5 58.5q0 35 25 59.5t61 24.5q35 0 59 -24.5t24 -59.5z" />
    <glyph glyph-name="Jcircumflex" unicode="&#x134;" horiz-adv-x="357" 
d="M290 808l-166 -78l-21 36l210 174l136 -179l-25 -32zM321 575l-93 -480q-24 -120 -93 -175t-205 -67l-15 47q79 25 108.5 66.5t47.5 133.5l93 475q4 18 4 31q0 23 -13.5 31.5t-45.5 9.5l9 48h295l-9 -48q-40 -1 -57.5 -15.5t-25.5 -56.5z" />
    <glyph glyph-name="jcircumflex" unicode="&#x135;" horiz-adv-x="284" 
d="M175 -4q-18 -89 -76.5 -134t-178.5 -66l-16 55q64 21 89.5 52.5t41.5 110.5l68 342q5 25 5 37q0 27 -16 38.5t-54 11.5l9 39q64 33 127 33q86 0 86 -83q0 -22 -6 -52zM205 635l-165 -78l-22 36l210 174l136 -179l-25 -32z" />
    <glyph glyph-name="Kcommaaccent" unicode="&#x136;" horiz-adv-x="665" 
d="M602 576l-171 -175l131 -306q12 -26 28.5 -36.5t48.5 -12.5l-8 -46h-204l-135 347l222 240q19 20 19 36q0 25 -39 25l9 47h225l-9 -47q-32 -4 -55.5 -19t-61.5 -53zM320 575l-89 -458q-4 -24 -4 -31q0 -23 13.5 -31.5t45.5 -8.5l-8 -46h-296l8 46q41 0 58.5 14.5
t25.5 56.5l89 458q4 22 4 31q0 23 -13.5 31.5t-45.5 9.5l9 48h295l-9 -48q-40 -1 -57.5 -15.5t-25.5 -56.5zM383 -133q0 -60 -50 -100.5t-121 -52.5l-18 35q86 27 86 58q0 14 -22 24q-36 17 -36 58q0 28 22 47.5t57 19.5q39 0 60.5 -25.5t21.5 -63.5z" />
    <glyph glyph-name="kcommaaccent" unicode="&#x137;" horiz-adv-x="544" 
d="M283 561l-121 -561h-146l123 572q5 25 5 39q0 26 -14 36.5t-46 11.5l11 45l184 26h13q6 -18 6 -50q0 -49 -15 -119zM285 92l-55 177l198 240h143l-9 -43q-66 0 -156 -98l-48 -51l67 -189q13 -38 25.5 -51t39.5 -13q13 0 29 2l4 -38q-57 -36 -121 -36q-48 0 -73.5 21.5
t-43.5 78.5zM305 -133q0 -60 -50 -100.5t-121 -52.5l-18 35q86 27 86 58q0 14 -22 24q-36 17 -36 58q0 28 22 47.5t57 19.5q39 0 60.5 -25.5t21.5 -63.5z" />
    <glyph glyph-name="kgreenlandic" unicode="&#x138;" horiz-adv-x="557" 
d="M30 0l76 356q5 25 5 38q0 27 -16 38t-53 11l8 39q66 33 127 33q86 0 86 -83q0 -22 -6 -52l-82 -380h-145zM299 92l-56 177l198 240h143l-9 -43q-65 0 -156 -98l-48 -51l67 -189q13 -37 26 -50.5t40 -13.5q17 0 29 2l3 -38q-56 -36 -120 -36q-48 0 -73.5 21.5t-43.5 78.5z
" />
    <glyph glyph-name="Lacute" unicode="&#x139;" horiz-adv-x="561" 
d="M160 760l205 165l65 -130l-247 -72zM221 67h93q50 0 82.5 27.5t59.5 97.5h77l-52 -192h-499l8 46q41 0 58.5 14.5t25.5 56.5l89 458q8 42 -3.5 56.5t-51.5 15.5l9 48h296l-8 -48q-42 -1 -59.5 -15.5t-25.5 -56.5z" />
    <glyph glyph-name="lacute" unicode="&#x13a;" horiz-adv-x="298" 
d="M130 776l205 165l65 -130l-247 -72zM280 561l-91 -423q-6 -26 -6 -41q0 -17 9.5 -24.5t33.5 -7.5q7 0 33 2l4 -41q-67 -35 -134 -35q-94 0 -94 92q0 27 7 58l93 431q5 27 5 40q0 26 -13.5 36t-45.5 11l10 45l185 26h13q6 -18 6 -50q0 -49 -15 -119z" />
    <glyph glyph-name="Lcommaaccent" unicode="&#x13b;" horiz-adv-x="561" 
d="M221 67h93q50 0 82.5 27.5t59.5 97.5h77l-52 -192h-499l8 46q41 0 58.5 14.5t25.5 56.5l89 458q8 42 -3.5 56.5t-51.5 15.5l9 48h296l-8 -48q-42 -1 -59.5 -15.5t-25.5 -56.5zM299 -133q0 -60 -50 -100.5t-121 -52.5l-18 35q86 27 86 58q0 14 -22 24q-36 17 -36 58
q0 28 22 47.5t57 19.5q39 0 60.5 -25.5t21.5 -63.5z" />
    <glyph glyph-name="lcommaaccent" unicode="&#x13c;" horiz-adv-x="298" 
d="M280 561l-91 -423q-6 -26 -6 -41q0 -17 9.5 -24.5t33.5 -7.5q7 0 33 2l4 -41q-67 -35 -134 -35q-94 0 -94 92q0 27 7 58l93 431q5 27 5 40q0 26 -13.5 36t-45.5 11l10 45l185 26h13q6 -18 6 -50q0 -49 -15 -119zM164 -133q0 -60 -50 -100.5t-121 -52.5l-18 35
q86 27 86 58q0 14 -22 24q-36 17 -36 58q0 28 22 47.5t57 19.5q39 0 60.5 -25.5t21.5 -63.5z" />
    <glyph glyph-name="Lcaron" unicode="&#x13d;" horiz-adv-x="561" 
d="M221 67h93q50 0 82.5 27.5t59.5 97.5h77l-52 -192h-499l8 46q41 0 58.5 14.5t25.5 56.5l89 458q8 42 -3.5 56.5t-51.5 15.5l9 48h296l-8 -48q-42 -1 -59.5 -15.5t-25.5 -56.5zM600 724l-87 -177l-60 9l34 181z" />
    <glyph glyph-name="lcaron" unicode="&#x13e;" horiz-adv-x="298" 
d="M280 561l-91 -423q-6 -26 -6 -41q0 -17 9.5 -24.5t33.5 -7.5q7 0 33 2l4 -41q-67 -35 -134 -35q-94 0 -94 92q0 27 7 58l93 431q5 27 5 40q0 26 -13.5 36t-45.5 11l10 45l185 26h13q6 -18 6 -50q0 -49 -15 -119zM463 724l-81 -177l-59 9l26 181z" />
    <glyph glyph-name="Ldot" unicode="&#x13f;" horiz-adv-x="561" 
d="M221 67h93q50 0 82.5 27.5t59.5 97.5h77l-52 -192h-499l8 46q41 0 58.5 14.5t25.5 56.5l89 458q8 42 -3.5 56.5t-51.5 15.5l9 48h296l-8 -48q-42 -1 -59.5 -15.5t-25.5 -56.5zM584 378q0 -38 -26 -64.5t-64 -26.5t-64.5 26.5t-26.5 64.5t26.5 64.5t64.5 26.5
q37 0 63.5 -26.5t26.5 -64.5z" />
    <glyph glyph-name="ldot" unicode="&#x140;" horiz-adv-x="441" 
d="M280 561l-91 -423q-6 -26 -6 -41q0 -17 9.5 -24.5t33.5 -7.5q7 0 33 2l4 -41q-67 -35 -134 -35q-94 0 -94 92q0 27 7 58l93 431q5 27 5 40q0 26 -13.5 36t-45.5 11l10 45l185 26h13q6 -18 6 -50q0 -49 -15 -119zM462 350q0 -35 -25 -60.5t-60 -25.5q-36 0 -60.5 25
t-24.5 61q0 35 24.5 60t60.5 25q35 0 60 -25t25 -60z" />
    <glyph glyph-name="Lslash" unicode="&#x141;" horiz-adv-x="561" 
d="M221 67h93q50 0 82.5 27.5t59.5 97.5h77l-52 -192h-499l8 46q41 0 58.5 14.5t25.5 56.5l28 143l-76 -24l12 60l75 25l50 254q4 24 4 31q0 23 -13.5 31.5t-45.5 9.5l9 48h296l-8 -48q-42 -1 -59.5 -15.5t-25.5 -56.5l-39 -199l187 61l-12 -61l-187 -61z" />
    <glyph glyph-name="lslash" unicode="&#x142;" horiz-adv-x="319" 
d="M282 561l-26 -120l82 33l-17 -61l-78 -31l-52 -244q-6 -26 -6 -41q0 -17 9.5 -24.5t33.5 -7.5q7 0 33 2l4 -41q-67 -35 -134 -35q-94 0 -94 92q0 27 7 58l38 176l-71 -28l17 61l67 26l42 196q5 27 5 40q0 26 -13.5 36t-45.5 11l10 45l185 26h13q6 -18 6 -50
q0 -49 -15 -119z" />
    <glyph glyph-name="Nacute" unicode="&#x143;" horiz-adv-x="698" 
d="M335 760l205 165l65 -130l-247 -72zM558 0h-99l-170 386q-46 102 -51 167h-6q-9 -105 -22 -171l-51 -265q-4 -20 -4 -31q0 -23 13 -31.5t45 -8.5l-8 -46h-223l8 46q41 0 58.5 14.5t25.5 56.5l89 458q4 24 4 31q0 23 -13.5 31.5t-45.5 9.5l9 48h217l146 -337
q33 -76 37 -141h6q4 62 23 159l39 199q4 22 4 31q0 23 -13.5 31.5t-45.5 9.5l9 48h219l-8 -48q-39 -1 -56 -15.5t-25 -56.5z" />
    <glyph glyph-name="nacute" unicode="&#x144;" horiz-adv-x="591" 
d="M240 593l188 186l78 -125l-240 -96zM345 141l49 208q3 13 3 24q0 31 -30 31q-56 0 -129 -110l-63 -294h-145l79 369q3 15 3 26q0 25 -16 36t-53 12l9 39q66 33 126 33q76 0 76 -94q0 -17 -3 -38q86 139 200 139q49 0 74 -28t25 -74q0 -25 -5 -45l-54 -237q-6 -25 -6 -41
q0 -17 9.5 -24.5t32.5 -7.5q7 0 33 2l3 -41q-67 -35 -131 -35q-95 0 -95 90q0 25 8 60z" />
    <glyph glyph-name="Ncommaaccent" unicode="&#x145;" horiz-adv-x="698" 
d="M558 0h-99l-170 386q-46 102 -51 167h-6q-9 -105 -22 -171l-51 -265q-4 -20 -4 -31q0 -23 13 -31.5t45 -8.5l-8 -46h-223l8 46q41 0 58.5 14.5t25.5 56.5l89 458q4 24 4 31q0 23 -13.5 31.5t-45.5 9.5l9 48h217l146 -337q33 -76 37 -141h6q4 62 23 159l39 199q4 22 4 31
q0 23 -13.5 31.5t-45.5 9.5l9 48h219l-8 -48q-39 -1 -56 -15.5t-25 -56.5zM375 -133q0 -60 -50 -100.5t-121 -52.5l-18 35q86 27 86 58q0 14 -22 24q-36 17 -36 58q0 28 22 47.5t57 19.5q39 0 60.5 -25.5t21.5 -63.5z" />
    <glyph glyph-name="ncommaaccent" unicode="&#x146;" horiz-adv-x="591" 
d="M345 141l49 208q3 13 3 24q0 31 -30 31q-56 0 -129 -110l-63 -294h-145l79 369q3 15 3 26q0 25 -16 36t-53 12l9 39q66 33 126 33q76 0 76 -94q0 -17 -3 -38q86 139 200 139q49 0 74 -28t25 -74q0 -25 -5 -45l-54 -237q-6 -25 -6 -41q0 -17 9.5 -24.5t32.5 -7.5q7 0 33 2
l3 -41q-67 -35 -131 -35q-95 0 -95 90q0 25 8 60zM330 -133q0 -60 -50 -100.5t-121 -52.5l-18 35q86 27 86 58q0 14 -22 24q-36 17 -36 58q0 28 22 47.5t57 19.5q39 0 60.5 -25.5t21.5 -63.5z" />
    <glyph glyph-name="Ncaron" unicode="&#x147;" horiz-adv-x="698" 
d="M452 861l165 78l22 -35l-210 -174l-136 178l25 33zM558 0h-99l-170 386q-46 102 -51 167h-6q-9 -105 -22 -171l-51 -265q-4 -20 -4 -31q0 -23 13 -31.5t45 -8.5l-8 -46h-223l8 46q41 0 58.5 14.5t25.5 56.5l89 458q4 24 4 31q0 23 -13.5 31.5t-45.5 9.5l9 48h217
l146 -337q33 -76 37 -141h6q4 62 23 159l39 199q4 22 4 31q0 23 -13.5 31.5t-45.5 9.5l9 48h219l-8 -48q-39 -1 -56 -15.5t-25 -56.5z" />
    <glyph glyph-name="ncaron" unicode="&#x148;" horiz-adv-x="591" 
d="M352 682l167 78l21 -35l-210 -174l-136 178l26 33zM345 141l49 208q3 13 3 24q0 31 -30 31q-56 0 -129 -110l-63 -294h-145l79 369q3 15 3 26q0 25 -16 36t-53 12l9 39q66 33 126 33q76 0 76 -94q0 -17 -3 -38q86 139 200 139q49 0 74 -28t25 -74q0 -25 -5 -45l-54 -237
q-6 -25 -6 -41q0 -17 9.5 -24.5t32.5 -7.5q7 0 33 2l3 -41q-67 -35 -131 -35q-95 0 -95 90q0 25 8 60z" />
    <glyph glyph-name="napostrophe" unicode="&#x149;" horiz-adv-x="591" 
d="M63 621q0 -61 -51.5 -102t-123.5 -53l-17 35q45 15 67 28.5t22 31.5q0 15 -20 23q-38 14 -38 59q0 28 22 48t56 20q39 0 61 -26t22 -64zM345 141l49 208q3 13 3 24q0 31 -30 31q-56 0 -129 -110l-63 -294h-145l79 369q3 15 3 26q0 25 -16 36t-53 12l9 39q66 33 126 33
q76 0 76 -94q0 -17 -3 -38q86 139 200 139q49 0 74 -28t25 -74q0 -25 -5 -45l-54 -237q-6 -25 -6 -41q0 -17 9.5 -24.5t32.5 -7.5q7 0 33 2l3 -41q-67 -35 -131 -35q-95 0 -95 90q0 25 8 60z" />
    <glyph glyph-name="Eng" unicode="&#x14a;" horiz-adv-x="698" 
d="M669 575l-103 -533q-22 -115 -84 -166t-182 -61l-15 46q72 22 103.5 63t48.5 125l-148 337q-46 102 -51 167h-6q-9 -105 -22 -171l-51 -265q-4 -20 -4 -31q0 -23 13 -31.5t45 -8.5l-8 -46h-223l8 46q41 0 58.5 14.5t25.5 56.5l89 458q4 24 4 31q0 23 -13.5 31.5
t-45.5 9.5l9 48h217l146 -337q37 -84 37 -141h6q4 62 23 159l39 199q4 22 4 31q0 23 -13.5 31.5t-45.5 9.5l9 48h219l-8 -48q-39 -1 -56 -15.5t-25 -56.5z" />
    <glyph glyph-name="eng" unicode="&#x14b;" horiz-adv-x="574" 
d="M545 375l-77 -374q-18 -91 -77.5 -137.5t-180.5 -67.5l-16 55q65 22 90 53.5t41 108.5l69 336q3 13 3 24q0 31 -30 31q-56 0 -129 -110l-63 -294h-145l79 369q3 15 3 26q0 25 -16 36t-53 12l9 39q66 33 126 33q76 0 76 -94q0 -17 -3 -38q86 139 200 139q49 0 74 -28
t25 -74q0 -25 -5 -45z" />
    <glyph glyph-name="Omacron" unicode="&#x14c;" horiz-adv-x="703" 
d="M580 773h-302l16 78h302zM679 423q0 -63 -13 -124t-41.5 -118t-70 -100t-102 -69t-133.5 -26q-130 0 -199.5 77.5t-69.5 206.5q0 61 13.5 121.5t42.5 117.5t70.5 100.5t101.5 70t131 26.5q125 0 197.5 -74t72.5 -209zM513 472q0 85 -23.5 124.5t-80.5 39.5
q-72 0 -111 -63q-42 -67 -62.5 -167t-20.5 -194q0 -159 103 -159q72 0 113 63q40 60 61 162.5t21 193.5z" />
    <glyph glyph-name="omacron" unicode="&#x14d;" horiz-adv-x="552" 
d="M484 601h-302l16 78h302zM527 314q0 -137 -75.5 -232.5t-213.5 -95.5q-95 0 -151 56t-56 149q0 134 77 232.5t209 98.5q96 0 153 -53.5t57 -154.5zM376 364q0 93 -63 93q-52 0 -82 -66q-22 -50 -36 -121.5t-14 -135.5q0 -85 62 -85q53 0 80 62q22 43 37.5 114.5
t15.5 138.5z" />
    <glyph glyph-name="Obreve" unicode="&#x14e;" horiz-adv-x="703" 
d="M421 744q-67 0 -102.5 48.5t-39.5 116.5l40 17q16 -42 41.5 -61t68.5 -19q78 0 144 82l37 -22q-29 -69 -76 -115.5t-113 -46.5zM679 423q0 -63 -13 -124t-41.5 -118t-70 -100t-102 -69t-133.5 -26q-130 0 -199.5 77.5t-69.5 206.5q0 61 13.5 121.5t42.5 117.5t70.5 100.5
t101.5 70t131 26.5q125 0 197.5 -74t72.5 -209zM513 472q0 85 -23.5 124.5t-80.5 39.5q-72 0 -111 -63q-42 -67 -62.5 -167t-20.5 -194q0 -159 103 -159q72 0 113 63q40 60 61 162.5t21 193.5z" />
    <glyph glyph-name="obreve" unicode="&#x14f;" horiz-adv-x="552" 
d="M527 314q0 -137 -75.5 -232.5t-213.5 -95.5q-95 0 -151 56t-56 149q0 134 77 232.5t209 98.5q96 0 153 -53.5t57 -154.5zM376 364q0 93 -63 93q-52 0 -82 -66q-22 -50 -36 -121.5t-14 -135.5q0 -85 62 -85q53 0 80 62q22 43 37.5 114.5t15.5 138.5zM329 565
q-68 0 -103 48.5t-41 118.5l41 15q15 -42 41 -61t69 -19q76 0 144 82l36 -22q-68 -162 -187 -162z" />
    <glyph glyph-name="Ohungarumlaut" unicode="&#x150;" horiz-adv-x="703" 
d="M494 928l-142 -193l-49 21l72 217zM673 895l-164 -168l-44 26l97 209zM679 423q0 -63 -13 -124t-41.5 -118t-70 -100t-102 -69t-133.5 -26q-130 0 -199.5 77.5t-69.5 206.5q0 61 13.5 121.5t42.5 117.5t70.5 100.5t101.5 70t131 26.5q125 0 197.5 -74t72.5 -209zM513 472
q0 85 -23.5 124.5t-80.5 39.5q-72 0 -111 -63q-42 -67 -62.5 -167t-20.5 -194q0 -159 103 -159q72 0 113 63q40 60 61 162.5t21 193.5z" />
    <glyph glyph-name="ohungarumlaut" unicode="&#x151;" horiz-adv-x="552" 
d="M410 763l-147 -202l-49 20l77 227zM590 730l-170 -178l-44 26l103 219zM527 314q0 -137 -75.5 -232.5t-213.5 -95.5q-95 0 -151 56t-56 149q0 134 77 232.5t209 98.5q96 0 153 -53.5t57 -154.5zM376 364q0 93 -63 93q-52 0 -82 -66q-22 -50 -36 -121.5t-14 -135.5
q0 -85 62 -85q53 0 80 62q22 43 37.5 114.5t15.5 138.5z" />
    <glyph glyph-name="OE" unicode="&#x152;" horiz-adv-x="942" 
d="M855 0h-503q-141 0 -221.5 69t-80.5 204q0 179 108 300.5t290 121.5h518l-21 -169h-74q-6 61 -20.5 79.5t-64.5 18.5h-108l-46 -238h61q46 0 65 14t31 57h66l-41 -209h-66q2 16 2 23q0 27 -15.5 37.5t-54.5 10.5h-61l-49 -252h123q51 0 76.5 24t44.5 92h76zM413 67
l108 557h-61q-59 0 -99.5 -18t-70.5 -64q-36 -55 -56 -137.5t-20 -169.5q0 -79 37 -123.5t109 -44.5h53z" />
    <glyph glyph-name="oe" unicode="&#x153;" horiz-adv-x="845" 
d="M510 172q0 -46 23.5 -72t68.5 -26q82 0 147 58l31 -43q-89 -103 -223 -103q-107 0 -147 63q-63 -63 -172 -63q-95 0 -151 56t-56 149q0 134 77 232.5t209 98.5q110 0 164 -78q71 78 179 78q81 0 127.5 -34t46.5 -104q0 -47 -24 -80.5t-67 -52t-93.5 -27t-112.5 -8.5h-24
q-3 -18 -3 -44zM376 364q0 93 -63 93q-52 0 -82 -66q-22 -50 -36 -121.5t-14 -135.5q0 -85 62 -85q53 0 80 62q22 43 37.5 114.5t15.5 138.5zM698 403q0 25 -12.5 39.5t-34.5 14.5q-43 0 -77 -49t-51 -131h4q171 0 171 126z" />
    <glyph glyph-name="Racute" unicode="&#x154;" horiz-adv-x="656" 
d="M279 760l205 165l65 -130l-247 -72zM329 624l-50 -262h52q69 0 106.5 44t37.5 120q0 53 -23.5 75.5t-77.5 22.5h-45zM265 292l-34 -175q-4 -24 -4 -31q0 -23 13.5 -31.5t45.5 -8.5l-8 -46h-296l8 46q41 0 58.5 14.5t25.5 56.5l89 458q4 20 4 31q0 23 -13.5 31.5
t-45.5 9.5l9 48h291q228 0 228 -167q0 -96 -61 -150.5t-162 -65.5v-4q64 -20 93 -71q23 -39 54 -133q11 -32 23.5 -45t41.5 -13l-8 -46h-193q-36 130 -63 207q-17 47 -37 63.5t-59 21.5z" />
    <glyph glyph-name="racute" unicode="&#x155;" horiz-adv-x="420" 
d="M185 593l188 186l78 -125l-240 -96zM30 0l79 369q3 15 3 26q0 25 -16 36t-53 12l9 39q66 33 126 33q72 0 72 -102q0 -17 -3 -40q29 67 71 108t89 41q26 0 46 -10l-36 -151q-28 11 -55 11q-54 0 -88.5 -35t-53.5 -127l-45 -210h-145z" />
    <glyph glyph-name="Rcommaaccent" unicode="&#x156;" horiz-adv-x="656" 
d="M329 624l-50 -262h52q69 0 106.5 44t37.5 120q0 53 -23.5 75.5t-77.5 22.5h-45zM265 292l-34 -175q-4 -24 -4 -31q0 -23 13.5 -31.5t45.5 -8.5l-8 -46h-296l8 46q41 0 58.5 14.5t25.5 56.5l89 458q4 20 4 31q0 23 -13.5 31.5t-45.5 9.5l9 48h291q228 0 228 -167
q0 -96 -61 -150.5t-162 -65.5v-4q64 -20 93 -71q23 -39 54 -133q11 -32 23.5 -45t41.5 -13l-8 -46h-193q-36 130 -63 207q-17 47 -37 63.5t-59 21.5zM373 -133q0 -60 -50 -100.5t-121 -52.5l-18 35q86 27 86 58q0 14 -22 24q-36 17 -36 58q0 28 22 47.5t57 19.5
q39 0 60.5 -25.5t21.5 -63.5z" />
    <glyph glyph-name="rcommaaccent" unicode="&#x157;" horiz-adv-x="420" 
d="M30 0l79 369q3 15 3 26q0 25 -16 36t-53 12l9 39q66 33 126 33q72 0 72 -102q0 -17 -3 -40q29 67 71 108t89 41q26 0 46 -10l-36 -151q-28 11 -55 11q-54 0 -88.5 -35t-53.5 -127l-45 -210h-145zM160 -133q0 -60 -50 -100.5t-121 -52.5l-18 35q86 27 86 58q0 14 -22 24
q-36 17 -36 58q0 28 22 47.5t57 19.5q39 0 60.5 -25.5t21.5 -63.5z" />
    <glyph glyph-name="Rcaron" unicode="&#x158;" horiz-adv-x="656" 
d="M396 861l165 78l22 -35l-210 -174l-136 178l25 33zM329 624l-50 -262h52q69 0 106.5 44t37.5 120q0 53 -23.5 75.5t-77.5 22.5h-45zM265 292l-34 -175q-4 -24 -4 -31q0 -23 13.5 -31.5t45.5 -8.5l-8 -46h-296l8 46q41 0 58.5 14.5t25.5 56.5l89 458q4 20 4 31
q0 23 -13.5 31.5t-45.5 9.5l9 48h291q228 0 228 -167q0 -96 -61 -150.5t-162 -65.5v-4q64 -20 93 -71q23 -39 54 -133q11 -32 23.5 -45t41.5 -13l-8 -46h-193q-36 130 -63 207q-17 47 -37 63.5t-59 21.5z" />
    <glyph glyph-name="rcaron" unicode="&#x159;" horiz-adv-x="420" 
d="M295 682l167 78l21 -35l-210 -174l-136 178l26 33zM30 0l79 369q3 15 3 26q0 25 -16 36t-53 12l9 39q66 33 126 33q72 0 72 -102q0 -17 -3 -40q29 67 71 108t89 41q26 0 46 -10l-36 -151q-28 11 -55 11q-54 0 -88.5 -35t-53.5 -127l-45 -210h-145z" />
    <glyph glyph-name="Sacute" unicode="&#x15a;" horiz-adv-x="537" 
d="M235 45q54 0 86.5 29.5t32.5 86.5q0 43 -20 68t-69 47l-64 29q-121 55 -121 180q0 102 70 161.5t184 59.5q130 0 210 -54l-26 -135h-98v8q0 60 -23.5 89t-76.5 29q-50 0 -79.5 -28t-29.5 -74q0 -38 21 -61.5t60 -41.5l66 -29q70 -31 106 -72.5t36 -116.5q0 -110 -75 -172
t-199 -62q-83 0 -141.5 18.5t-86.5 43.5l25 138h102v-9q0 -66 25.5 -99t84.5 -33zM231 760l205 165l65 -130l-247 -72z" />
    <glyph glyph-name="sacute" unicode="&#x15b;" horiz-adv-x="456" 
d="M168 593l188 186l78 -125l-240 -96zM177 -14q-112 0 -175 46l17 108h91v-4q0 -43 19 -64.5t61 -21.5q92 0 92 70q0 26 -15.5 40.5t-49.5 26.5l-43 15q-55 18 -84 52t-29 91q0 84 60.5 130.5t154.5 46.5t165 -39l-18 -106h-88q-1 41 -18 62t-56 21q-35 0 -58 -18t-23 -50
q0 -37 58 -57l44 -15q67 -22 97.5 -56.5t30.5 -93.5q0 -85 -62.5 -134.5t-170.5 -49.5z" />
    <glyph glyph-name="Scircumflex" unicode="&#x15c;" horiz-adv-x="537" 
d="M363 808l-166 -78l-21 36l210 174l136 -179l-25 -32zM235 45q54 0 86.5 29.5t32.5 86.5q0 43 -20 68t-69 47l-64 29q-121 55 -121 180q0 102 70 161.5t184 59.5q130 0 210 -54l-26 -135h-98v8q0 60 -23.5 89t-76.5 29q-50 0 -79.5 -28t-29.5 -74q0 -38 21 -61.5t60 -41.5
l66 -29q70 -31 106 -72.5t36 -116.5q0 -110 -75 -172t-199 -62q-83 0 -141.5 18.5t-86.5 43.5l25 138h102v-9q0 -66 25.5 -99t84.5 -33z" />
    <glyph glyph-name="scircumflex" unicode="&#x15d;" horiz-adv-x="456" 
d="M308 635l-165 -78l-22 36l210 174l136 -179l-25 -32zM177 -14q-112 0 -175 46l17 108h91v-4q0 -43 19 -64.5t61 -21.5q92 0 92 70q0 26 -15.5 40.5t-49.5 26.5l-43 15q-55 18 -84 52t-29 91q0 84 60.5 130.5t154.5 46.5t165 -39l-18 -106h-88q-1 41 -18 62t-56 21
q-35 0 -58 -18t-23 -50q0 -37 58 -57l44 -15q67 -22 97.5 -56.5t30.5 -93.5q0 -85 -62.5 -134.5t-170.5 -49.5z" />
    <glyph glyph-name="Scedilla" unicode="&#x15e;" horiz-adv-x="537" 
d="M309 -119q0 -85 -118 -85q-61 0 -98 25l17 39q28 -18 66 -18q36 0 36 28q0 30 -61 32l1 21l28 65q-125 9 -182 60l25 138h102v-9q0 -66 25.5 -99t84.5 -33q54 0 86.5 29.5t32.5 86.5q0 43 -20 68t-69 47l-64 29q-121 55 -121 180q0 102 70 161.5t184 59.5q130 0 210 -54
l-26 -135h-98v8q0 60 -23.5 89t-76.5 29q-50 0 -79.5 -28t-29.5 -74q0 -38 21 -61.5t60 -41.5l66 -29q70 -31 106 -72.5t36 -116.5q0 -110 -75 -172t-199 -62l-12 -27q95 -6 95 -78z" />
    <glyph glyph-name="scedilla" unicode="&#x15f;" horiz-adv-x="456" 
d="M271 -119q0 -85 -118 -85q-61 0 -98 25l17 39q28 -18 66 -18q36 0 36 28q0 30 -61 32l1 21l28 64q-91 7 -140 45l17 108h91v-4q0 -43 19 -64.5t61 -21.5q92 0 92 70q0 26 -15.5 40.5t-49.5 26.5l-43 15q-55 18 -84 52t-29 91q0 84 60.5 130.5t154.5 46.5t165 -39
l-18 -106h-88q-1 41 -18 62t-56 21q-35 0 -58 -18t-23 -50q0 -37 58 -57l44 -15q67 -22 97.5 -56.5t30.5 -93.5q0 -83 -59.5 -132t-162.5 -52l-12 -27q95 -6 95 -78z" />
    <glyph glyph-name="Scaron" unicode="&#x160;" horiz-adv-x="537" 
d="M354 861l165 78l22 -35l-210 -174l-136 178l25 33zM235 45q54 0 86.5 29.5t32.5 86.5q0 43 -20 68t-69 47l-64 29q-121 55 -121 180q0 102 70 161.5t184 59.5q130 0 210 -54l-26 -135h-98v8q0 60 -23.5 89t-76.5 29q-50 0 -79.5 -28t-29.5 -74q0 -38 21 -61.5t60 -41.5
l66 -29q70 -31 106 -72.5t36 -116.5q0 -110 -75 -172t-199 -62q-83 0 -141.5 18.5t-86.5 43.5l25 138h102v-9q0 -66 25.5 -99t84.5 -33z" />
    <glyph glyph-name="scaron" unicode="&#x161;" horiz-adv-x="456" 
d="M292 682l167 78l21 -35l-210 -174l-136 178l26 33zM177 -14q-112 0 -175 46l17 108h91v-4q0 -43 19 -64.5t61 -21.5q92 0 92 70q0 26 -15.5 40.5t-49.5 26.5l-43 15q-55 18 -84 52t-29 91q0 84 60.5 130.5t154.5 46.5t165 -39l-18 -106h-88q-1 41 -18 62t-56 21
q-35 0 -58 -18t-23 -50q0 -37 58 -57l44 -15q67 -22 97.5 -56.5t30.5 -93.5q0 -85 -62.5 -134.5t-170.5 -49.5z" />
    <glyph glyph-name="Tcommaaccent" unicode="&#x162;" horiz-adv-x="615" 
d="M113 695h557l-27 -186h-75q-3 71 -14 93t-54 22h-43l-98 -507q-4 -17 -4 -30q0 -23 15 -32t52 -9l-9 -46h-135l-18 -41q95 -6 95 -78q0 -85 -118 -85q-61 0 -98 25l17 39q28 -18 66 -18q36 0 36 28q0 30 -61 32l1 21l34 77h-131l8 46q46 0 65 14.5t27 56.5l98 507h-42
q-46 0 -65.5 -22t-47.5 -93h-76z" />
    <glyph glyph-name="tcommaaccent" unicode="&#x163;" horiz-adv-x="356" 
d="M247 -119q0 -85 -118 -85q-61 0 -98 25l17 39q28 -18 66 -18q36 0 36 28q0 30 -61 32l1 21l30 69q-76 18 -76 98q0 29 9 71l58 275h-59l10 50l71 23q39 103 87 142l97 8q-24 -59 -45 -150h119l-29 -73h-106l-58 -273q-6 -30 -6 -49q0 -27 12 -39t39 -12q30 0 66 13l8 -47
q-62 -43 -147 -43h-6l-12 -27q95 -6 95 -78z" />
    <glyph glyph-name="Tcaron" unicode="&#x164;" horiz-adv-x="615" 
d="M404 861l165 78l22 -35l-210 -174l-136 178l25 33zM113 695h557l-27 -186h-75q-3 71 -14 93t-54 22h-43l-98 -507q-4 -17 -4 -30q0 -23 15 -32t52 -9l-9 -46h-312l8 46q46 0 65 14.5t27 56.5l98 507h-42q-46 0 -65.5 -22t-47.5 -93h-76z" />
    <glyph glyph-name="tcaron" unicode="&#x165;" horiz-adv-x="356" 
d="M391 509l-29 -73h-106l-58 -273q-6 -30 -6 -49q0 -27 12 -39t39 -12q30 0 66 13l8 -47q-62 -43 -147 -43q-62 0 -94 27.5t-32 76.5q0 29 9 71l58 275h-59l10 50l71 23q39 103 87 142l97 8q-24 -59 -45 -150h119zM485 724l-81 -177l-59 9l26 181z" />
    <glyph glyph-name="Tbar" unicode="&#x166;" horiz-adv-x="615" 
d="M113 695h557l-27 -186h-75q-3 71 -14 93t-54 22h-43l-45 -234h120l-14 -74h-121l-38 -199q-4 -17 -4 -30q0 -23 15 -32t52 -9l-9 -46h-312l8 46q46 0 65 14.5t27 56.5l38 199h-109l14 74h110l45 234h-42q-46 0 -65.5 -22t-47.5 -93h-76z" />
    <glyph glyph-name="tbar" unicode="&#x167;" horiz-adv-x="356" 
d="M391 509l-29 -73h-106l-20 -91h115l-14 -65h-114l-25 -117q-6 -30 -6 -49q0 -27 12 -39t39 -12q30 0 66 13l8 -47q-62 -43 -147 -43q-62 0 -94 27.5t-32 76.5q0 29 9 71l25 119h-61l15 65h60l19 91h-59l10 50l71 23q39 103 87 142l97 8q-24 -59 -45 -150h119z" />
    <glyph glyph-name="Utilde" unicode="&#x168;" horiz-adv-x="685" 
d="M353 68q65 0 103 40t54 123l66 344q4 20 4 32q0 22 -13.5 30.5t-46.5 9.5l9 48h220l-9 -48q-39 -1 -56 -15.5t-25 -56.5l-67 -349q-24 -120 -87.5 -180t-177.5 -60q-242 0 -245 184q0 40 9 91l61 314q8 42 -3.5 56.5t-51.5 15.5l9 48h295l-8 -48q-41 -1 -58.5 -15.5
t-25.5 -56.5l-63 -324q-9 -48 -9 -83q1 -51 28.5 -75.5t87.5 -24.5zM537 857q50 0 74 46l38 -16q-14 -57 -44.5 -93t-71.5 -36q-33 0 -76 18t-63 18q-46 0 -73 -49l-35 16q9 56 39.5 95t72.5 39q31 0 73 -19t66 -19z" />
    <glyph glyph-name="utilde" unicode="&#x169;" horiz-adv-x="575" 
d="M325 99q-74 -113 -183 -113q-52 0 -78 27.5t-26 75.5q0 24 6 51l51 216q5 19 5 38q0 27 -16 38t-52 11l8 39q66 33 127 33q85 0 85 -85q0 -23 -7 -53l-51 -221q-4 -17 -4 -32q0 -33 32 -33q53 0 122 110l65 308h143l-77 -371q-5 -25 -5 -38q0 -19 11 -27t36 -8q6 0 28 2
l3 -41q-62 -35 -131 -35q-93 0 -93 93v9zM415 686q49 0 72 45l38 -16q-14 -57 -44 -93.5t-70 -36.5q-30 0 -73 15.5t-62 15.5q-45 0 -70 -48l-35 16q9 57 38.5 96.5t71.5 39.5q29 0 70.5 -17t63.5 -17z" />
    <glyph glyph-name="Umacron" unicode="&#x16a;" horiz-adv-x="685" 
d="M353 68q65 0 103 40t54 123l66 344q4 20 4 32q0 22 -13.5 30.5t-46.5 9.5l9 48h220l-9 -48q-39 -1 -56 -15.5t-25 -56.5l-67 -349q-24 -120 -87.5 -180t-177.5 -60q-242 0 -245 184q0 40 9 91l61 314q8 42 -3.5 56.5t-51.5 15.5l9 48h295l-8 -48q-41 -1 -58.5 -15.5
t-25.5 -56.5l-63 -324q-9 -48 -9 -83q1 -51 28.5 -75.5t87.5 -24.5zM608 773h-302l16 78h302z" />
    <glyph glyph-name="umacron" unicode="&#x16b;" horiz-adv-x="575" 
d="M325 99q-74 -113 -183 -113q-52 0 -78 27.5t-26 75.5q0 24 6 51l51 216q5 19 5 38q0 27 -16 38t-52 11l8 39q66 33 127 33q85 0 85 -85q0 -23 -7 -53l-51 -221q-4 -17 -4 -32q0 -33 32 -33q53 0 122 110l65 308h143l-77 -371q-5 -25 -5 -38q0 -19 11 -27t36 -8q6 0 28 2
l3 -41q-62 -35 -131 -35q-93 0 -93 93v9zM485 601h-302l16 78h302z" />
    <glyph glyph-name="Ubreve" unicode="&#x16c;" horiz-adv-x="685" 
d="M353 68q65 0 103 40t54 123l66 344q4 20 4 32q0 22 -13.5 30.5t-46.5 9.5l9 48h220l-9 -48q-39 -1 -56 -15.5t-25 -56.5l-67 -349q-24 -120 -87.5 -180t-177.5 -60q-242 0 -245 184q0 40 9 91l61 314q8 42 -3.5 56.5t-51.5 15.5l9 48h295l-8 -48q-41 -1 -58.5 -15.5
t-25.5 -56.5l-63 -324q-9 -48 -9 -83q1 -51 28.5 -75.5t87.5 -24.5zM458 744q-67 0 -102.5 48.5t-39.5 116.5l40 17q16 -42 41.5 -61t68.5 -19q78 0 144 82l37 -22q-29 -69 -76 -115.5t-113 -46.5z" />
    <glyph glyph-name="ubreve" unicode="&#x16d;" horiz-adv-x="575" 
d="M325 99q-74 -113 -183 -113q-52 0 -78 27.5t-26 75.5q0 24 6 51l51 216q5 19 5 38q0 27 -16 38t-52 11l8 39q66 33 127 33q85 0 85 -85q0 -23 -7 -53l-51 -221q-4 -17 -4 -32q0 -33 32 -33q53 0 122 110l65 308h143l-77 -371q-5 -25 -5 -38q0 -19 11 -27t36 -8q6 0 28 2
l3 -41q-62 -35 -131 -35q-93 0 -93 93v9zM326 565q-68 0 -103 48.5t-41 118.5l41 15q15 -42 41 -61t69 -19q76 0 144 82l36 -22q-68 -162 -187 -162z" />
    <glyph glyph-name="Uring" unicode="&#x16e;" horiz-adv-x="685" 
d="M353 68q65 0 103 40t54 123l66 344q4 20 4 32q0 22 -13.5 30.5t-46.5 9.5l9 48h220l-9 -48q-39 -1 -56 -15.5t-25 -56.5l-67 -349q-24 -120 -87.5 -180t-177.5 -60q-242 0 -245 184q0 40 9 91l61 314q8 42 -3.5 56.5t-51.5 15.5l9 48h295l-8 -48q-41 -1 -58.5 -15.5
t-25.5 -56.5l-63 -324q-9 -48 -9 -83q1 -51 28.5 -75.5t87.5 -24.5zM462 722q-51 0 -81.5 31.5t-30.5 78.5q0 53 35 87.5t90 34.5q50 0 80 -32t30 -79q0 -54 -33.5 -87.5t-89.5 -33.5zM470 900q-27 0 -42.5 -18.5t-15.5 -47.5q0 -25 13 -40.5t37 -15.5q27 0 44 18t17 45
q0 26 -14.5 42.5t-38.5 16.5z" />
    <glyph glyph-name="uring" unicode="&#x16f;" horiz-adv-x="575" 
d="M332 562q-51 0 -81.5 31.5t-30.5 78.5q0 53 35 87.5t90 34.5q50 0 80.5 -32t30.5 -79q0 -54 -34 -87.5t-90 -33.5zM341 740q-27 0 -43 -18.5t-16 -46.5q0 -26 13.5 -41.5t37.5 -15.5q27 0 44 18t17 45q0 26 -14.5 42.5t-38.5 16.5zM325 99q-74 -113 -183 -113
q-52 0 -78 27.5t-26 75.5q0 24 6 51l51 216q5 19 5 38q0 27 -16 38t-52 11l8 39q66 33 127 33q85 0 85 -85q0 -23 -7 -53l-51 -221q-4 -17 -4 -32q0 -33 32 -33q53 0 122 110l65 308h143l-77 -371q-5 -25 -5 -38q0 -19 11 -27t36 -8q6 0 28 2l3 -41q-62 -35 -131 -35
q-93 0 -93 93v9z" />
    <glyph glyph-name="Uhungarumlaut" unicode="&#x170;" horiz-adv-x="685" 
d="M533 928l-142 -193l-49 21l72 217zM712 895l-164 -168l-44 26l97 209zM353 68q65 0 103 40t54 123l66 344q4 20 4 32q0 22 -13.5 30.5t-46.5 9.5l9 48h220l-9 -48q-39 -1 -56 -15.5t-25 -56.5l-67 -349q-24 -120 -87.5 -180t-177.5 -60q-242 0 -245 184q0 40 9 91l61 314
q8 42 -3.5 56.5t-51.5 15.5l9 48h295l-8 -48q-41 -1 -58.5 -15.5t-25.5 -56.5l-63 -324q-9 -48 -9 -83q1 -51 28.5 -75.5t87.5 -24.5z" />
    <glyph glyph-name="uhungarumlaut" unicode="&#x171;" horiz-adv-x="575" 
d="M325 99q-74 -113 -183 -113q-52 0 -78 27.5t-26 75.5q0 24 6 51l51 216q5 19 5 38q0 27 -16 38t-52 11l8 39q66 33 127 33q85 0 85 -85q0 -23 -7 -53l-51 -221q-4 -17 -4 -32q0 -33 32 -33q53 0 122 110l65 308h143l-77 -371q-5 -25 -5 -38q0 -19 11 -27t36 -8q6 0 28 2
l3 -41q-62 -35 -131 -35q-93 0 -93 93v9zM399 763l-147 -202l-49 20l77 227zM579 730l-170 -178l-44 26l103 219z" />
    <glyph glyph-name="Uogonek" unicode="&#x172;" horiz-adv-x="685" 
d="M659 575l-67 -349q-17 -84 -52 -136.5t-94 -79.5l-17 -8q-31 -14 -43 -20.5t-30 -20t-24.5 -29t-6.5 -36.5t12.5 -32t31.5 -11q23 0 50 15l18 -28q-45 -45 -122 -45q-48 0 -80 21t-32 61q0 64 110 109q-108 0 -168.5 49t-62.5 135q0 40 9 91l61 314q8 42 -3.5 56.5
t-51.5 15.5l9 48h295l-8 -48q-41 -1 -58.5 -15.5t-25.5 -56.5l-63 -324q-9 -48 -9 -83q1 -51 28.5 -75.5t87.5 -24.5q65 0 103 40t54 123l66 344q4 20 4 32q0 22 -13.5 30.5t-46.5 9.5l9 48h220l-9 -48q-39 -1 -56 -15.5t-25 -56.5z" />
    <glyph glyph-name="uogonek" unicode="&#x173;" horiz-adv-x="575" 
d="M545 67l3 -41q-7 -3 -39 -18t-45.5 -22.5t-35 -22.5t-30.5 -31.5t-9 -35.5q0 -21 12.5 -32t31.5 -11q24 0 50 15l18 -28q-45 -45 -121 -45q-49 0 -80.5 21t-31.5 61q0 69 121 117q-65 15 -65 90q0 3 0.5 8.5t0.5 6.5q-74 -113 -183 -113q-52 0 -78 27.5t-26 75.5
q0 24 6 51l51 216q5 19 5 38q0 27 -16 38t-52 11l8 39q66 33 127 33q84 0 84 -85q0 -29 -6 -53l-51 -221q-4 -17 -4 -32q0 -33 32 -33q53 0 122 110l65 308h143l-77 -371q-5 -25 -5 -38q0 -19 11 -27t36 -8q6 0 28 2z" />
    <glyph glyph-name="Wcircumflex" unicode="&#x174;" horiz-adv-x="927" 
d="M595 808l-166 -78l-21 36l210 174l136 -179l-25 -32zM635 695l19 -408q1 -21 1 -69q0 -64 -1 -74h6q17 66 49 145l115 294q8 22 8 33q0 17 -12.5 23.5t-41.5 7.5l8 48h223l-8 -48q-35 -5 -53 -18.5t-34 -51.5l-244 -577h-147l-17 329q-1 17 -1 55q0 57 3 90h-6
q-19 -72 -47 -137l-146 -337h-149l-28 581q-2 38 -12.5 50t-40.5 16l9 48h279l-9 -48q-37 -1 -52.5 -13.5t-15.5 -40.5v-3l9 -304v-18q0 -65 -4 -125h6q16 62 50 145l167 407h117z" />
    <glyph glyph-name="wcircumflex" unicode="&#x175;" horiz-adv-x="765" 
d="M468 635l-165 -78l-22 36l210 174l136 -179l-25 -32zM117 -2l-33 352q-6 61 -17.5 78t-58.5 17l8 39q50 31 118 31q39 0 58 -23.5t24 -79.5l15 -146q3 -33 3 -59q0 -37 -5 -67h6l155 369h109l21 -237q6 -60 6 -109q0 -5 -0.5 -13.5t-0.5 -9.5h6l54 114q69 148 72 262
l127 -14v-43l-264 -461h-109l-18 213q-3 34 -3 67q0 39 3 60h-4l-154 -340h-118z" />
    <glyph glyph-name="Ycircumflex" unicode="&#x176;" horiz-adv-x="627" 
d="M207 117l28 144l-93 322q-10 36 -23 48t-40 16l9 48h271l-9 -48q-65 -1 -48 -64l59 -238h5l148 239q14 23 14 37q0 25 -45 26l9 48h217l-8 -48q-31 -4 -48 -15.5t-41 -46.5l-219 -322l-28 -146q-8 -43 4.5 -57t58.5 -14l-8 -46h-312l8 46q46 0 65 14.5t26 56.5zM445 808
l-166 -78l-21 36l210 174l136 -179l-25 -32z" />
    <glyph glyph-name="ycircumflex" unicode="&#x177;" horiz-adv-x="492" 
d="M182 13l-61 -3q-4 100 -20 214l-20 144q-7 50 -20.5 63.5t-52.5 13.5l7 40q62 30 118 30q45 0 62.5 -29t27.5 -105l14 -110q6 -52 6 -92q0 -42 -6 -81h6l43 88q95 194 97 330l128 -14v-43l-254 -470q-49 -91 -108 -137.5t-137 -58.5l-55 98q88 15 142 39.5t83 82.5z
M313 635l-165 -78l-22 36l210 174l136 -179l-25 -32z" />
    <glyph glyph-name="Ydieresis" unicode="&#x178;" horiz-adv-x="627" 
d="M207 117l28 144l-93 322q-10 36 -23 48t-40 16l9 48h271l-9 -48q-65 -1 -48 -64l59 -238h5l148 239q14 23 14 37q0 25 -45 26l9 48h217l-8 -48q-31 -4 -48 -15.5t-41 -46.5l-219 -322l-28 -146q-8 -43 4.5 -57t58.5 -14l-8 -46h-312l8 46q46 0 65 14.5t26 56.5zM400 817
q0 -33 -24 -56.5t-58 -23.5t-58 23.5t-24 56.5q0 34 24 57.5t59 23.5q34 0 57.5 -23.5t23.5 -57.5zM623 817q0 -33 -24 -56.5t-58 -23.5t-58 23.5t-24 56.5q0 34 24 57.5t59 23.5q34 0 57.5 -23.5t23.5 -57.5z" />
    <glyph glyph-name="Zacute" unicode="&#x179;" horiz-adv-x="571" 
d="M258 760l205 165l65 -130l-247 -72zM-23 0l10 56l433 574h-121q-48 0 -75.5 -25.5t-55.5 -87.5h-78l45 178h484l-11 -56l-430 -572h138q56 0 87 26.5t60 96.5h75l-48 -190h-513z" />
    <glyph glyph-name="zacute" unicode="&#x17a;" horiz-adv-x="481" 
d="M188 593l188 186l78 -125l-240 -96zM492 444l-348 -320q30 3 54 3q29 0 66.5 -4.5t48.5 -4.5q40 0 61 13.5t40 53.5l40 -12q-19 -107 -55 -146.5t-98 -39.5q-48 0 -102 23t-87 23q-44 0 -71 -33h-57l12 64l336 314q-35 1 -78.5 4.5t-58.5 3.5q-69 0 -90 -65l-46 9
q17 186 149 186q43 0 102 -22.5t77 -22.5t31 8t35 30h53z" />
    <glyph glyph-name="Zdotaccent" unicode="&#x17b;" horiz-adv-x="571" 
d="M-23 0l10 56l433 574h-121q-48 0 -75.5 -25.5t-55.5 -87.5h-78l45 178h484l-11 -56l-430 -572h138q56 0 87 26.5t60 96.5h75l-48 -190h-513zM472 828q0 -35 -25 -59.5t-61 -24.5q-35 0 -60 24.5t-25 59.5t25.5 59.5t61.5 24.5q35 0 59.5 -24.5t24.5 -59.5z" />
    <glyph glyph-name="zdotaccent" unicode="&#x17c;" horiz-adv-x="481" 
d="M492 444l-348 -320q30 3 54 3q29 0 66.5 -4.5t48.5 -4.5q40 0 61 13.5t40 53.5l40 -12q-19 -107 -55 -146.5t-98 -39.5q-48 0 -102 23t-87 23q-44 0 -71 -33h-57l12 64l336 314q-35 1 -78.5 4.5t-58.5 3.5q-69 0 -90 -65l-46 9q17 186 149 186q43 0 102 -22.5t77 -22.5
t31 8t35 30h53zM404 652q0 -35 -25 -59.5t-61 -24.5q-35 0 -60 24.5t-25 59.5t25.5 60t61.5 25q35 0 59.5 -25t24.5 -60z" />
    <glyph glyph-name="Zcaron" unicode="&#x17d;" horiz-adv-x="571" 
d="M380 861l165 78l22 -35l-210 -174l-136 178l25 33zM-23 0l10 56l433 574h-121q-48 0 -75.5 -25.5t-55.5 -87.5h-78l45 178h484l-11 -56l-430 -572h138q56 0 87 26.5t60 96.5h75l-48 -190h-513z" />
    <glyph glyph-name="zcaron" unicode="&#x17e;" horiz-adv-x="481" 
d="M314 682l167 78l21 -35l-210 -174l-136 178l26 33zM492 444l-348 -320q30 3 54 3q29 0 66.5 -4.5t48.5 -4.5q40 0 61 13.5t40 53.5l40 -12q-19 -107 -55 -146.5t-98 -39.5q-48 0 -102 23t-87 23q-44 0 -71 -33h-57l12 64l336 314q-35 1 -78.5 4.5t-58.5 3.5
q-69 0 -90 -65l-46 9q17 186 149 186q43 0 102 -22.5t77 -22.5t31 8t35 30h53z" />
    <glyph glyph-name="longs" unicode="&#x17f;" horiz-adv-x="351" 
d="M169 -34q-16 -75 -63.5 -114.5t-119.5 -39.5q-47 0 -81 17v38q62 4 85.5 25t34.5 81l91 463h-63l12 50l66 22l15 65q18 77 75 118.5t136 41.5q81 0 131 -24l-17 -95h-90q0 30 -7 43t-26 13q-18 0 -30 -13t-19 -46z" />
    <glyph glyph-name="uni018F" unicode="&#x18f;" horiz-adv-x="639" 
d="M244 -14q-106 0 -165 43.5t-59 134.5q0 234 384 234q31 0 46 -1q4 21 4 60q0 144 -135 144q-98 0 -193 -84l-38 48q119 142 289 142q126 0 182.5 -67.5t56.5 -197.5q0 -122 -46 -225.5t-132.5 -167t-193.5 -63.5zM182 141q0 -44 18.5 -67t51.5 -23q62 0 109.5 71.5
t73.5 207.5h-8q-245 0 -245 -189z" />
    <glyph glyph-name="florin" unicode="&#x192;" horiz-adv-x="421" 
d="M53 368l15 55l76 13l23 82q27 99 85.5 143.5t154.5 44.5q93 0 142 -28l-28 -104h-88q1 10 1 28q0 23 -7 33.5t-26 10.5q-24 0 -41.5 -19.5t-31.5 -68.5l-34 -125h116l-15 -65h-119l-109 -395q-22 -80 -91.5 -122.5t-176.5 -43.5l2 41q50 11 74.5 34.5t40.5 82.5l109 403
h-72z" />
    <glyph glyph-name="uni01B5" unicode="&#x1b5;" horiz-adv-x="571" 
d="M85 328l10 70h150l175 232h-121q-48 0 -75.5 -25.5t-55.5 -87.5h-78l45 178h484l-11 -56l-181 -241h102l-10 -70h-145l-196 -261h138q56 0 87 26.5t60 96.5h75l-48 -190h-513l10 56l205 272h-107z" />
    <glyph glyph-name="uni01B6" unicode="&#x1b6;" horiz-adv-x="481" 
d="M492 444l-182 -167h94l-7 -44h-135l-118 -109q30 3 54 3q29 0 66.5 -4.5t48.5 -4.5q40 0 61 13.5t40 53.5l40 -12q-19 -107 -55 -146.5t-98 -39.5q-48 0 -102 23t-87 23q-44 0 -71 -33h-57l12 64l181 169h-86l7 44h126l108 101q-35 1 -78.5 4.5t-58.5 3.5q-69 0 -90 -65
l-46 9q17 186 149 186q43 0 102 -22.5t77 -22.5t31 8t35 30h53z" />
    <glyph glyph-name="Aringacute" unicode="&#x1fa;" horiz-adv-x="648" 
d="M394 101l-10 86h-213l-39 -80q-10 -23 -10 -33q0 -27 55 -28l-9 -46h-221l8 46q35 4 52.5 16.5t37.5 50.5l300 582h125l87 -582q6 -38 16.5 -50.5t39.5 -16.5l-9 -46h-284l8 46q39 1 53 10t14 31q0 5 -1 14zM301 452l-94 -191h167l-21 183q-5 39 -5 84v15h-6
q-8 -23 -41 -91zM290 987l205 165l65 -130l-247 -72zM407 720q-51 0 -81.5 31.5t-30.5 78.5q0 53 35 87.5t90 34.5q50 0 80 -32t30 -79q0 -54 -33.5 -87.5t-89.5 -33.5zM415 898q-27 0 -42.5 -18.5t-15.5 -47.5q0 -25 13 -40.5t37 -15.5q27 0 44 18t17 45q0 26 -14.5 42.5
t-38.5 16.5z" />
    <glyph glyph-name="aringacute" unicode="&#x1fb;" horiz-adv-x="579" 
d="M344 522q82 0 97 -57q12 21 40 45h90q-25 -53 -43 -132l-54 -240q-6 -24 -6 -39q0 -19 10.5 -26.5t35.5 -7.5q7 0 29 2l3 -41q-62 -35 -130 -35q-92 0 -92 98v5.5v5.5l1 3q-74 -116 -176 -116q-59 0 -91.5 37.5t-32.5 106.5q0 152 97 271.5t222 119.5zM347 450
q-45 0 -85.5 -45.5t-63.5 -114.5t-23 -138q0 -71 39 -71q51 0 128 120l54 228q-15 21 -49 21zM379 549q-51 0 -81.5 31.5t-30.5 78.5q0 53 35 87.5t90 34.5q50 0 80.5 -32t30.5 -79q0 -54 -34 -87.5t-90 -33.5zM388 727q-27 0 -43 -18.5t-16 -46.5q0 -26 13.5 -41.5
t37.5 -15.5q27 0 44 18t17 45q0 26 -14.5 42.5t-38.5 16.5zM273 824l205 165l65 -130l-247 -72z" />
    <glyph glyph-name="AEacute" unicode="&#x1fc;" horiz-adv-x="932" 
d="M557 760l205 165l65 -130l-247 -72zM-53 0l8 46q34 4 55.5 17.5t47.5 49.5l334 468q16 22 16 36q0 28 -57 30l9 48h596l-21 -169h-74q-6 61 -20.5 79.5t-64.5 18.5h-108l-46 -238h61q46 0 65 14t31 57h66l-41 -209h-66q2 16 2 23q0 27 -15.5 37.5t-54.5 10.5h-61
l-49 -252h123q51 0 76.5 24t44.5 92h76l-35 -183h-524l8 46q41 0 58.5 14.5t25.5 56.5l23 118h-199l-92 -128q-17 -23 -17 -37q0 -23 49 -24l-9 -46h-221zM519 624l-227 -314h158l22 112q26 135 53 202h-6z" />
    <glyph glyph-name="aeacute" unicode="&#x1fd;" horiz-adv-x="794" 
d="M367 593l188 186l78 -125l-240 -96zM458 172q0 -46 23.5 -72t68.5 -26q82 0 147 58l31 -43q-89 -103 -223 -103q-120 0 -168 84q-64 -84 -166 -84q-68 0 -107.5 36t-39.5 101q0 170 276 170h27l9 45q7 34 7 59q0 31 -12.5 44.5t-40.5 13.5q-40 0 -60.5 -18.5t-32.5 -60.5
h-104l19 103q83 43 194 43q105 0 141 -57q71 57 161 57q81 0 127.5 -34t46.5 -104q0 -161 -292 -161h-29q-3 -16 -3 -51zM231 75q44 0 87 41q-7 31 -7 68q0 29 4 48h-15q-60 0 -93.5 -19.5t-33.5 -70.5q0 -67 58 -67zM646 403q0 25 -13 39.5t-34 14.5q-44 0 -78 -45.5
t-50 -125.5h5q86 0 128 27.5t42 89.5z" />
    <glyph glyph-name="Oslashacute" unicode="&#x1fe;" horiz-adv-x="703" 
d="M679 423q0 -63 -13 -124t-41.5 -118t-70 -100t-102 -69t-133.5 -26q-95 0 -162 46l-61 -79l-44 31l65 85q-67 76 -67 201q0 61 13.5 121.5t42.5 117.5t70.5 100.5t101.5 70t131 26.5q95 0 161 -46l58 76l45 -32l-62 -80q68 -76 68 -201zM517 472q0 5 -0.5 14.5t-0.5 13.5
l-293 -382q24 -65 95 -65q74 0 116 63q40 60 61.5 162.5t21.5 193.5zM210 212v-21l293 382q-23 63 -94 63q-73 0 -114 -63q-42 -67 -63.5 -167.5t-21.5 -193.5zM328 760l205 165l65 -130l-247 -72z" />
    <glyph glyph-name="oslashacute" unicode="&#x1ff;" horiz-adv-x="552" 
d="M527 314q0 -137 -75.5 -232.5t-213.5 -95.5q-65 0 -114 27l-51 -64l-39 29l51 65q-54 56 -54 148q0 134 77 232.5t209 98.5q71 0 122 -30l50 63l39 -29l-51 -65q50 -53 50 -147zM227 391q-43 -99 -50 -231l197 249q-14 48 -61 48q-58 0 -86 -66zM328 111q44 89 50 225
l-195 -247q15 -40 60 -40q55 0 85 62zM222 593l188 186l78 -125l-240 -96z" />
    <glyph glyph-name="Scommaaccent" unicode="&#x218;" horiz-adv-x="537" 
d="M235 45q54 0 86.5 29.5t32.5 86.5q0 43 -20 68t-69 47l-64 29q-121 55 -121 180q0 102 70 161.5t184 59.5q130 0 210 -54l-26 -135h-98v8q0 60 -23.5 89t-76.5 29q-50 0 -79.5 -28t-29.5 -74q0 -38 21 -61.5t60 -41.5l66 -29q70 -31 106 -72.5t36 -116.5q0 -110 -75 -172
t-199 -62q-83 0 -141.5 18.5t-86.5 43.5l25 138h102v-9q0 -66 25.5 -99t84.5 -33zM282 -133q0 -60 -50 -100.5t-121 -52.5l-18 35q86 27 86 58q0 14 -22 24q-36 17 -36 58q0 28 22 47.5t57 19.5q39 0 60.5 -25.5t21.5 -63.5z" />
    <glyph glyph-name="scommaaccent" unicode="&#x219;" horiz-adv-x="456" 
d="M177 -14q-112 0 -175 46l17 108h91v-4q0 -43 19 -64.5t61 -21.5q92 0 92 70q0 26 -15.5 40.5t-49.5 26.5l-43 15q-55 18 -84 52t-29 91q0 84 60.5 130.5t154.5 46.5t165 -39l-18 -106h-88q-1 41 -18 62t-56 21q-35 0 -58 -18t-23 -50q0 -37 58 -57l44 -15
q67 -22 97.5 -56.5t30.5 -93.5q0 -85 -62.5 -134.5t-170.5 -49.5zM245 -133q0 -60 -50 -100.5t-121 -52.5l-18 35q86 27 86 58q0 14 -22 24q-36 17 -36 58q0 28 22 47.5t57 19.5q39 0 60.5 -25.5t21.5 -63.5z" />
    <glyph glyph-name="uni021A" unicode="&#x21a;" horiz-adv-x="615" 
d="M113 695h557l-27 -186h-75q-3 71 -14 93t-54 22h-43l-98 -507q-4 -17 -4 -30q0 -23 15 -32t52 -9l-9 -46h-312l8 46q46 0 65 14.5t27 56.5l98 507h-42q-46 0 -65.5 -22t-47.5 -93h-76zM319 -133q0 -60 -50 -100.5t-121 -52.5l-18 35q86 27 86 58q0 14 -22 24
q-36 17 -36 58q0 28 22 47.5t57 19.5q39 0 60.5 -25.5t21.5 -63.5z" />
    <glyph glyph-name="uni021B" unicode="&#x21b;" horiz-adv-x="356" 
d="M391 509l-29 -73h-106l-58 -273q-6 -30 -6 -49q0 -27 12 -39t39 -12q30 0 66 13l8 -47q-62 -43 -147 -43q-62 0 -94 27.5t-32 76.5q0 29 9 71l58 275h-59l10 50l71 23q39 103 87 142l97 8q-24 -59 -45 -150h119zM207 -133q0 -60 -50 -100.5t-121 -52.5l-18 35
q86 27 86 58q0 14 -22 24q-36 17 -36 58q0 28 22 47.5t57 19.5q39 0 60.5 -25.5t21.5 -63.5z" />
    <glyph glyph-name="uni0237" unicode="&#x237;" horiz-adv-x="284" 
d="M175 -4q-18 -89 -76.5 -134t-178.5 -66l-16 55q64 21 89.5 52.5t41.5 110.5l68 342q5 25 5 37q0 27 -16 38.5t-54 11.5l9 39q64 33 127 33q86 0 86 -83q0 -22 -6 -52z" />
    <glyph glyph-name="uni0259" unicode="&#x259;" horiz-adv-x="513" 
d="M341 336q0 46 -23.5 72t-68.5 26q-81 0 -147 -58l-31 43q89 103 223 103q97 0 146 -51.5t49 -146.5q0 -137 -87 -237.5t-212 -100.5q-173 0 -173 137q0 47 24.5 81t68.5 52.5t95.5 27t114.5 8.5h18q3 17 3 44zM153 105q0 -25 12.5 -39.5t34.5 -14.5q42 0 76.5 49
t51.5 130h-8q-167 0 -167 -125z" />
    <glyph glyph-name="uni02BB" unicode="&#x2bb;" horiz-adv-x="256" 
d="M72 502q0 75 59 131.5t145 75.5l22 -39q-51 -15 -81.5 -39.5t-30.5 -49.5q0 -22 28 -35q45 -21 45 -65q0 -35 -24.5 -58.5t-63.5 -23.5q-48 0 -73.5 29.5t-25.5 73.5z" />
    <glyph glyph-name="afii57929" unicode="&#x2bc;" horiz-adv-x="256" 
d="M296 605q0 -75 -58.5 -131.5t-144.5 -75.5l-22 38q52 16 82 40t30 50q0 22 -28 35q-45 19 -45 65q0 35 24.5 58.5t63.5 23.5q48 0 73 -29.5t25 -73.5z" />
    <glyph glyph-name="circumflex" unicode="&#x2c6;" horiz-adv-x="525" 
d="M274 635l-165 -78l-22 36l210 174l136 -179l-25 -32z" />
    <glyph glyph-name="caron" unicode="&#x2c7;" horiz-adv-x="501" 
d="M248 682l167 78l21 -35l-210 -174l-136 178l26 33z" />
    <glyph glyph-name="breve" unicode="&#x2d8;" horiz-adv-x="473" 
d="M219 565q-68 0 -103 48.5t-41 118.5l41 15q15 -42 41 -61t69 -19q76 0 144 82l36 -22q-68 -162 -187 -162z" />
    <glyph glyph-name="dotaccent" unicode="&#x2d9;" horiz-adv-x="318" 
d="M244 652q0 -35 -25 -59.5t-61 -24.5q-35 0 -60 24.5t-25 59.5t25.5 60t61.5 25q35 0 59.5 -25t24.5 -60z" />
    <glyph glyph-name="ring" unicode="&#x2da;" horiz-adv-x="381" 
d="M184 562q-51 0 -81.5 31.5t-30.5 78.5q0 53 35 87.5t90 34.5q50 0 80.5 -32t30.5 -79q0 -54 -34 -87.5t-90 -33.5zM193 740q-27 0 -43 -18.5t-16 -46.5q0 -26 13.5 -41.5t37.5 -15.5q27 0 44 18t17 45q0 26 -14.5 42.5t-38.5 16.5z" />
    <glyph glyph-name="ogonek" unicode="&#x2db;" horiz-adv-x="377" 
d="M280 -132l18 -28q-44 -45 -121 -45q-48 0 -80 21t-32 61q0 50 50.5 83t160.5 65l16 -21q-106 -49 -106 -108q0 -21 12.5 -32t31.5 -11q24 0 50 15z" />
    <glyph glyph-name="tilde" unicode="&#x2dc;" horiz-adv-x="532" 
d="M333 686q49 0 72 45l38 -16q-14 -57 -44 -93.5t-70 -36.5q-30 0 -73 15.5t-62 15.5q-45 0 -70 -48l-35 16q9 57 38.5 96.5t71.5 39.5q29 0 70.5 -17t63.5 -17z" />
    <glyph glyph-name="hungarumlaut" unicode="&#x2dd;" horiz-adv-x="530" 
d="M272 763l-147 -202l-49 20l77 227zM452 730l-170 -178l-44 26l103 219z" />
    <glyph glyph-name="gravecomb" unicode="&#x300;" 
d="M-92 593l-25 -35l-240 96l77 125z" />
    <glyph glyph-name="acutecomb" unicode="&#x301;" 
d="M-330 593l188 186l78 -125l-240 -96z" />
    <glyph glyph-name="uni0302" unicode="&#x302;" 
d="M-201 635l-165 -78l-22 36l210 174l136 -179l-25 -32z" />
    <glyph glyph-name="tildecomb" unicode="&#x303;" 
d="M-139 686q49 0 72 45l38 -16q-14 -57 -44 -93.5t-70 -36.5q-30 0 -73 15.5t-62 15.5q-45 0 -70 -48l-35 16q9 57 38.5 96.5t71.5 39.5q29 0 70.5 -17t63.5 -17z" />
    <glyph glyph-name="uni0304" unicode="&#x304;" 
d="M-80 616h-302l16 78h302z" />
    <glyph glyph-name="uni0306" unicode="&#x306;" 
d="M-253 551q-68 0 -103 48.5t-41 118.5l41 15q15 -42 41 -61t69 -19q76 0 144 82l36 -22q-68 -162 -187 -162z" />
    <glyph glyph-name="uni0307" unicode="&#x307;" 
d="M5 655q0 -34 -25 -58.5t-60 -24.5t-59.5 24.5t-24.5 58.5q0 35 25 59.5t61 24.5q34 0 58.5 -24.5t24.5 -59.5z" />
    <glyph glyph-name="uni0308" unicode="&#x308;" 
d="M-295 646q0 -33 -24.5 -56.5t-58.5 -23.5t-58 23.5t-24 56.5q0 34 24.5 57.5t59.5 23.5q34 0 57.5 -23.5t23.5 -57.5zM-72 646q0 -33 -24.5 -56.5t-58.5 -23.5t-58 23.5t-24 56.5q0 34 24.5 57.5t59.5 23.5q34 0 57.5 -23.5t23.5 -57.5z" />
    <glyph glyph-name="uni030A" unicode="&#x30a;" 
d="M-196 562q-51 0 -81.5 31.5t-30.5 78.5q0 53 35 87.5t90 34.5q50 0 80.5 -32t30.5 -79q0 -54 -34 -87.5t-90 -33.5zM-187 740q-27 0 -43 -18.5t-16 -46.5q0 -26 13.5 -41.5t37.5 -15.5q27 0 44 18t17 45q0 26 -14.5 42.5t-38.5 16.5z" />
    <glyph glyph-name="uni030B" unicode="&#x30b;" 
d="M-257 769l-147 -202l-49 20l77 227zM-77 736l-170 -178l-44 26l103 219z" />
    <glyph glyph-name="uni030C" unicode="&#x30c;" 
d="M-166 682l167 78l21 -35l-210 -174l-136 178l26 33z" />
    <glyph glyph-name="uni0312" unicode="&#x312;" 
d="M-273 651q0 61 51.5 102t123.5 53l17 -35q-45 -15 -67 -28.5t-22 -31.5q0 -15 20 -23q38 -14 38 -59q0 -28 -22 -48t-56 -20q-39 0 -61 26t-22 64z" />
    <glyph glyph-name="uni0313" unicode="&#x313;" 
d="M-89 724l-81 -177l-59 9l26 181z" />
    <glyph glyph-name="dotbelowcomb" unicode="&#x323;" 
d="M227 -133q0 -37 -26 -62.5t-63 -25.5t-62.5 25.5t-25.5 62.5q0 36 26.5 62t63.5 26q36 0 61.5 -26t25.5 -62z" />
    <glyph glyph-name="uni0326" unicode="&#x326;" 
d="M262 -133q0 -60 -50 -100.5t-121 -52.5l-18 35q86 27 86 58q0 14 -22 24q-36 17 -36 58q0 28 22 47.5t57 19.5q39 0 60.5 -25.5t21.5 -63.5z" />
    <glyph glyph-name="uni0327" unicode="&#x327;" 
d="M-72 -119q0 -85 -118 -85q-61 0 -98 25l17 39q28 -18 66 -18q36 0 36 28q0 30 -61 32l1 21l41 93l44 -6l-23 -51q95 -6 95 -78z" />
    <glyph glyph-name="uni0328" unicode="&#x328;" 
d="M-96 -131l18 -28q-43 -45 -121 -45q-48 0 -80 21t-32 61q0 50 50.5 83t160.5 65l16 -21q-106 -49 -106 -108q0 -21 12.5 -32t31.5 -11q24 0 50 15z" />
    <glyph glyph-name="uni0335" unicode="&#x335;" 
d="M-80 214h-302l16 78h302z" />
    <glyph glyph-name="uni0336" unicode="&#x336;" 
d="M-58 206h-711l19 95h711z" />
    <glyph glyph-name="uni037E" unicode="&#x37e;" horiz-adv-x="299" 
d="M262 373q0 -39 -27.5 -66.5t-65.5 -27.5q-39 0 -66 27.5t-27 66.5q0 38 27 65.5t66 27.5q38 0 65.5 -27.5t27.5 -65.5zM215 60q0 -75 -59 -131.5t-144 -75.5l-22 38q51 15 81.5 39.5t30.5 50.5q0 22 -28 34q-45 21 -45 66q0 35 24.5 58.5t63.5 23.5q46 0 72 -30t26 -73z
" />
    <glyph glyph-name="tonos" unicode="&#x384;" horiz-adv-x="392" 
d="M201 554l-86 4l54 207l131 -28z" />
    <glyph glyph-name="dieresistonos" unicode="&#x385;" horiz-adv-x="490" 
d="M171 631q0 -31 -22 -52.5t-54 -21.5q-31 0 -53 21.5t-22 52.5t22 53t54 22t53.5 -22t21.5 -53zM470 631q0 -31 -22 -52.5t-54 -21.5q-31 0 -53 21.5t-22 52.5t22 53t54 22t53.5 -21.5t21.5 -53.5zM261 561l-78 4l31 216l122 -34z" />
    <glyph glyph-name="Alphatonos" unicode="&#x386;" horiz-adv-x="648" 
d="M394 101l-10 86h-213l-39 -80q-10 -23 -10 -33q0 -27 55 -28l-9 -46h-221l8 46q35 4 52.5 16.5t37.5 50.5l300 582h125l87 -582q6 -38 16.5 -50.5t39.5 -16.5l-9 -46h-284l8 46q39 1 53 10t14 31q0 5 -1 14zM301 452l-94 -191h167l-21 183q-5 39 -5 84v15h-6
q-8 -23 -41 -91zM171 501l-86 4l52 207l130 -28z" />
    <glyph glyph-name="anoteleia" unicode="&#x387;" horiz-adv-x="294" 
d="M243 289q0 -39 -27.5 -66.5t-65.5 -27.5q-39 0 -66 27.5t-27 66.5q0 38 27 65.5t66 27.5q38 0 65.5 -27.5t27.5 -65.5z" />
    <glyph glyph-name="Epsilontonos" unicode="&#x388;" horiz-adv-x="593" 
d="M-18 0l8 46q41 0 58.5 14.5t25.5 56.5l89 458q4 20 4 31q0 23 -13.5 31.5t-45.5 9.5l9 48h500l-21 -169h-74q-6 61 -20 79.5t-65 18.5h-108l-46 -238h61q47 0 66 14t30 57h66l-41 -209h-66q2 14 2 23q0 27 -15 37.5t-54 10.5h-62l-49 -252h123q51 0 76.5 24t44.5 92h76
l-35 -183h-524zM-7 501l-86 4l52 207l130 -28z" />
    <glyph glyph-name="Etatonos" unicode="&#x389;" horiz-adv-x="750" 
d="M712 575l-89 -458q-8 -42 3.5 -56.5t51.5 -14.5l-8 -46h-295l8 46q40 0 57.5 14.5t25.5 56.5l39 202h-235l-39 -202q-8 -42 3.5 -56.5t51.5 -14.5l-8 -46h-296l8 46q41 0 58.5 14.5t25.5 56.5l89 458q8 42 -3.5 56.5t-51.5 15.5l9 48h295l-9 -48q-40 -1 -57.5 -15.5
t-25.5 -56.5l-36 -181h235l36 181q8 42 -3.5 56.5t-51.5 15.5l9 48h295l-9 -48q-40 -1 -57.5 -15.5t-25.5 -56.5zM-5 501l-86 4l52 207l130 -28z" />
    <glyph glyph-name="Iotatonos" unicode="&#x38a;" horiz-adv-x="358" 
d="M320 575l-89 -458q-8 -42 3.5 -56.5t51.5 -14.5l-8 -46h-296l8 46q41 0 58.5 14.5t25.5 56.5l89 458q4 20 4 31q0 23 -13.5 31.5t-45.5 9.5l9 48h295l-9 -48q-40 -1 -57.5 -15.5t-25.5 -56.5zM-7 501l-86 4l52 207l130 -28z" />
    <glyph glyph-name="Omicrontonos" unicode="&#x38c;" horiz-adv-x="703" 
d="M679 423q0 -63 -13 -124t-41.5 -118t-70 -100t-102 -69t-133.5 -26q-130 0 -199.5 77.5t-69.5 206.5q0 61 13.5 121.5t42.5 117.5t70.5 100.5t101.5 70t131 26.5q125 0 197.5 -74t72.5 -209zM513 472q0 85 -23.5 124.5t-80.5 39.5q-72 0 -111 -63q-42 -67 -62.5 -167
t-20.5 -194q0 -159 103 -159q72 0 113 63q40 60 61 162.5t21 193.5zM42 501l-86 4l52 207l130 -28z" />
    <glyph glyph-name="Upsilontonos" unicode="&#x38e;" horiz-adv-x="627" 
d="M207 117l28 144l-93 322q-10 36 -23 48t-40 16l9 48h271l-9 -48q-65 -1 -48 -64l59 -238h5l148 239q14 23 14 37q0 25 -45 26l9 48h217l-8 -48q-31 -4 -48 -15.5t-41 -46.5l-219 -322l-28 -146q-8 -43 4.5 -57t58.5 -14l-8 -46h-312l8 46q46 0 65 14.5t26 56.5zM-40 501
l-86 4l52 207l130 -28z" />
    <glyph glyph-name="Omegatonos" unicode="&#x38f;" horiz-adv-x="768" 
d="M452 640q-55 0 -95.5 -32.5t-62.5 -85.5t-32 -111.5t-10 -120.5q0 -142 67 -202l-18 -88h-286l20 166h61q1 -49 22 -62t77 -13h41q-59 40 -102 110.5t-43 153.5q0 147 101.5 249t265.5 102q129 0 201 -71t72 -187q0 -65 -25 -125t-66 -104t-83.5 -75t-88.5 -53h37
q56 0 82 13t48 62h60l-45 -166h-285l17 88q89 62 138.5 166.5t49.5 242.5q0 143 -118 143zM70 501l-86 4l52 207l130 -28z" />
    <glyph glyph-name="iotadieresistonos" unicode="&#x390;" horiz-adv-x="299" 
d="M137 631q0 -31 -22 -52.5t-54 -21.5q-31 0 -53 21.5t-22 52.5t22 53t54 22t53.5 -22t21.5 -53zM436 631q0 -31 -22 -52.5t-54 -21.5q-31 0 -53 21.5t-22 52.5t22 53t54 22t53.5 -21.5t21.5 -53.5zM227 561l-78 4l31 216l122 -34zM39 141l47 221q16 75 23 136l132 20h27
l-79 -363q-10 -44 -10 -57q0 -18 9.5 -25.5t32.5 -7.5q15 0 34 3l4 -41q-62 -36 -133 -36q-95 0 -95 90q0 20 8 60z" />
    <glyph glyph-name="Alpha" unicode="&#x391;" horiz-adv-x="648" 
d="M394 101l-10 86h-213l-39 -80q-10 -23 -10 -33q0 -27 55 -28l-9 -46h-221l8 46q35 4 52.5 16.5t37.5 50.5l300 582h125l87 -582q6 -38 16.5 -50.5t39.5 -16.5l-9 -46h-284l8 46q39 1 53 10t14 31q0 5 -1 14zM301 452l-94 -191h167l-21 183q-5 39 -5 84v15h-6
q-8 -23 -41 -91z" />
    <glyph glyph-name="Beta" unicode="&#x392;" horiz-adv-x="641" 
d="M117 695h307q211 0 211 -156q0 -79 -52 -127t-133 -54v-4q75 -7 115 -45.5t40 -97.5q0 -128 -118 -179q-47 -20 -91.5 -26t-116.5 -6h-297l8 46q41 0 58.5 14.5t25.5 56.5l89 458q4 20 4 31q0 23 -13.5 31.5t-45.5 9.5zM283 387h44q72 0 102 28q42 40 42 121
q0 52 -22.5 70t-74.5 18h-45zM343 318h-73l-49 -251h54q85 0 117 23q49 36 49 129q0 53 -22.5 76t-75.5 23z" />
    <glyph glyph-name="Gamma" unicode="&#x393;" horiz-adv-x="556" 
d="M428 624h-99l-98 -503q-5 -27 -5 -35q0 -22 17 -31t58 -9l-8 -46h-311l8 46q40 0 57.5 14.5t25.5 56.5l88 458q4 24 4 33q0 22 -13 30t-45 9l9 48h498l-22 -185h-76q-3 69 -18.5 91.5t-69.5 22.5z" />
    <glyph glyph-name="uni0394" unicode="&#x394;" horiz-adv-x="615" 
d="M549 0h-570l9 49l347 646h123l101 -646zM90 70h302l-47 365q-8 60 -8 110h-5q-16 -43 -52 -112z" />
    <glyph glyph-name="Epsilon" unicode="&#x395;" horiz-adv-x="593" 
d="M-18 0l8 46q41 0 58.5 14.5t25.5 56.5l89 458q4 20 4 31q0 23 -13.5 31.5t-45.5 9.5l9 48h500l-21 -169h-74q-6 61 -20 79.5t-65 18.5h-108l-46 -238h61q47 0 66 14t30 57h66l-41 -209h-66q2 14 2 23q0 27 -15 37.5t-54 10.5h-62l-49 -252h123q51 0 76.5 24t44.5 92h76
l-35 -183h-524z" />
    <glyph glyph-name="Zeta" unicode="&#x396;" horiz-adv-x="571" 
d="M-23 0l10 56l433 574h-121q-48 0 -75.5 -25.5t-55.5 -87.5h-78l45 178h484l-11 -56l-430 -572h138q56 0 87 26.5t60 96.5h75l-48 -190h-513z" />
    <glyph glyph-name="Eta" unicode="&#x397;" horiz-adv-x="750" 
d="M712 575l-89 -458q-8 -42 3.5 -56.5t51.5 -14.5l-8 -46h-295l8 46q40 0 57.5 14.5t25.5 56.5l39 202h-235l-39 -202q-8 -42 3.5 -56.5t51.5 -14.5l-8 -46h-296l8 46q41 0 58.5 14.5t25.5 56.5l89 458q8 42 -3.5 56.5t-51.5 15.5l9 48h295l-9 -48q-40 -1 -57.5 -15.5
t-25.5 -56.5l-36 -181h235l36 181q8 42 -3.5 56.5t-51.5 15.5l9 48h295l-9 -48q-40 -1 -57.5 -15.5t-25.5 -56.5z" />
    <glyph glyph-name="Theta" unicode="&#x398;" horiz-adv-x="717" 
d="M326 -14q-127 0 -201.5 75.5t-74.5 209.5q0 63 13 123.5t42 117.5t70.5 99.5t104 68.5t137.5 26q126 0 201 -74.5t75 -209.5q0 -63 -13 -123.5t-42 -117.5t-70.5 -100t-104 -69t-137.5 -26zM325 54q83 0 130 69q41 61 64 161t23 188q0 80 -33 122t-92 42q-85 0 -132 -70
q-41 -61 -63 -158.5t-22 -187.5q0 -82 34.5 -124t90.5 -42zM241 265l34 172h44q-1 -9 -1 -18q0 -19 10 -26t40 -7h21q35 0 48.5 10t22.5 41h44l-33 -172h-44q1 6 1 16q0 21 -11 28.5t-42 7.5h-20q-35 0 -47.5 -10t-21.5 -42h-45z" />
    <glyph glyph-name="Iota" unicode="&#x399;" horiz-adv-x="358" 
d="M320 575l-89 -458q-8 -42 3.5 -56.5t51.5 -14.5l-8 -46h-296l8 46q41 0 58.5 14.5t25.5 56.5l89 458q4 20 4 31q0 23 -13.5 31.5t-45.5 9.5l9 48h295l-9 -48q-40 -1 -57.5 -15.5t-25.5 -56.5z" />
    <glyph glyph-name="Kappa" unicode="&#x39a;" horiz-adv-x="665" 
d="M602 576l-171 -175l131 -306q12 -26 28.5 -36.5t48.5 -12.5l-8 -46h-204l-135 347l222 240q19 20 19 36q0 25 -39 25l9 47h225l-9 -47q-32 -4 -55.5 -19t-61.5 -53zM320 575l-89 -458q-4 -24 -4 -31q0 -23 13.5 -31.5t45.5 -8.5l-8 -46h-296l8 46q41 0 58.5 14.5
t25.5 56.5l89 458q4 22 4 31q0 23 -13.5 31.5t-45.5 9.5l9 48h295l-9 -48q-40 -1 -57.5 -15.5t-25.5 -56.5z" />
    <glyph glyph-name="Lambda" unicode="&#x39b;" horiz-adv-x="636" 
d="M-53 0l9 46q35 5 52 17t36 49l299 583h125l77 -582q5 -36 16 -49.5t40 -17.5l-9 -46h-282l9 46q20 1 32.5 4t23 12t10.5 25q0 6 -2 26l-33 335q-6 60 -5 93h-6q-10 -28 -40 -91l-169 -347q-12 -24 -12 -34q0 -13 13.5 -17t45.5 -6l-10 -46h-220z" />
    <glyph glyph-name="Mu" unicode="&#x39c;" horiz-adv-x="889" 
d="M928 695l-9 -47q-51 -3 -66.5 -18.5t-21.5 -57.5l-57 -448q-5 -45 5 -61t51 -17l-8 -46h-293l8 46q47 1 61 14.5t20 56.5l43 315q9 70 22 137h-6q-22 -65 -56 -135l-217 -434h-92l-38 417q-4 44 -4 100q0 15 0.5 33t0.5 19h-6q-12 -78 -30 -142l-86 -309q-7 -26 -7 -37
q0 -19 14 -27t47 -8l-9 -46h-224l8 46q42 1 58.5 16.5t29.5 61.5l124 448q7 22 7 40t-14.5 26t-50.5 10l9 47h258l29 -353q5 -57 5 -103q0 -12 -0.5 -26t-0.5 -15h6q13 55 50 135l173 362h267z" />
    <glyph glyph-name="Nu" unicode="&#x39d;" horiz-adv-x="698" 
d="M558 0h-99l-170 386q-46 102 -51 167h-6q-9 -105 -22 -171l-51 -265q-4 -20 -4 -31q0 -23 13 -31.5t45 -8.5l-8 -46h-223l8 46q41 0 58.5 14.5t25.5 56.5l89 458q4 24 4 31q0 23 -13.5 31.5t-45.5 9.5l9 48h217l146 -337q33 -76 37 -141h6q4 62 23 159l39 199q4 22 4 31
q0 23 -13.5 31.5t-45.5 9.5l9 48h219l-8 -48q-39 -1 -56 -15.5t-25 -56.5z" />
    <glyph glyph-name="Xi" unicode="&#x39e;" horiz-adv-x="592" 
d="M113 254l40 195h66q-3 -35 11 -47.5t60 -12.5h62q46 0 63.5 11.5t30.5 48.5h66l-40 -195h-66q1 35 -12 47.5t-58 12.5h-63q-45 0 -63 -12.5t-31 -47.5h-66zM-18 0l30 196h76q-4 -53 13 -71t67 -18h194q49 0 73 18t42 71h76l-45 -196h-526zM83 502l46 193h500l-28 -193
h-74q-2 53 -18.5 71.5t-68.5 18.5h-162q-51 0 -75 -18.5t-46 -71.5h-74z" />
    <glyph glyph-name="Omicron" unicode="&#x39f;" horiz-adv-x="703" 
d="M679 423q0 -63 -13 -124t-41.5 -118t-70 -100t-102 -69t-133.5 -26q-130 0 -199.5 77.5t-69.5 206.5q0 61 13.5 121.5t42.5 117.5t70.5 100.5t101.5 70t131 26.5q125 0 197.5 -74t72.5 -209zM513 472q0 85 -23.5 124.5t-80.5 39.5q-72 0 -111 -63q-42 -67 -62.5 -167
t-20.5 -194q0 -159 103 -159q72 0 113 63q40 60 61 162.5t21 193.5z" />
    <glyph glyph-name="Pi" unicode="&#x3a0;" horiz-adv-x="740" 
d="M328 623l-98 -506q-4 -21 -4 -34q0 -21 12 -29t43 -8l-8 -46h-291l8 46q40 0 57.5 14.5t25.5 56.5l88 458q4 26 4 31q0 23 -13 31.5t-45 9.5l9 48h678l-9 -48q-40 -1 -57.5 -15.5t-25.5 -56.5l-89 -458q-4 -17 -4 -31q0 -23 13.5 -31.5t45.5 -8.5l-8 -46h-291l8 46
q40 0 55.5 14t23.5 57l98 506h-226z" />
    <glyph glyph-name="Rho" unicode="&#x3a1;" horiz-adv-x="610" 
d="M260 267l-29 -149q-3 -16 -3 -29q0 -25 16 -34t58 -9l-8 -46h-312l8 46q41 0 58.5 14.5t25.5 56.5l89 458q4 24 4 31q0 23 -13.5 31.5t-45.5 9.5l9 48h282q121 0 179 -43.5t58 -141.5q0 -74 -35.5 -131t-103.5 -86q-59 -26 -163 -26h-74zM475 513q0 58 -22.5 84.5
t-76.5 26.5h-47l-55 -283h47q68 0 101 28q53 45 53 144z" />
    <glyph glyph-name="Sigma" unicode="&#x3a3;" horiz-adv-x="575" 
d="M413 374l-263 -261h181q54 0 79 19.5t52 77.5h75l-60 -210h-504l11 62l274 280l-159 295l11 58h495l-20 -169h-75q-5 61 -21.5 82t-68.5 21h-143z" />
    <glyph glyph-name="Tau" unicode="&#x3a4;" horiz-adv-x="615" 
d="M113 695h557l-27 -186h-75q-3 71 -14 93t-54 22h-43l-98 -507q-4 -17 -4 -30q0 -23 15 -32t52 -9l-9 -46h-312l8 46q46 0 65 14.5t27 56.5l98 507h-42q-46 0 -65.5 -22t-47.5 -93h-76z" />
    <glyph glyph-name="Upsilon" unicode="&#x3a5;" horiz-adv-x="627" 
d="M207 117l28 144l-93 322q-10 36 -23 48t-40 16l9 48h271l-9 -48q-65 -1 -48 -64l59 -238h5l148 239q14 23 14 37q0 25 -45 26l9 48h217l-8 -48q-31 -4 -48 -15.5t-41 -46.5l-219 -322l-28 -146q-8 -43 4.5 -57t58.5 -14l-8 -46h-312l8 46q46 0 65 14.5t26 56.5z" />
    <glyph glyph-name="Phi" unicode="&#x3a6;" horiz-adv-x="841" 
d="M223 0l8 46q36 0 54 11t25 42q-279 3 -279 193q0 150 99 226.5t276 78.5q4 26 -8.5 38t-48.5 12l9 48h289l-8 -48q-36 -1 -54 -11.5t-25 -38.5q279 -3 279 -190q0 -154 -98.5 -230t-276.5 -78q-5 -28 8 -40.5t49 -12.5l-8 -46h-290zM323 163l72 369q-96 -3 -140 -50
q-28 -31 -46.5 -91.5t-18.5 -115.5q0 -59 31.5 -84.5t101.5 -27.5zM475 163q90 3 134 44q32 29 51.5 92.5t19.5 121.5q0 59 -31.5 84t-101.5 27z" />
    <glyph glyph-name="Chi" unicode="&#x3a7;" horiz-adv-x="671" 
d="M602 584l-178 -206l115 -267q15 -35 30.5 -48t44.5 -17l-8 -46h-291l8 46q56 0 56 35q0 13 -6 28l-68 166h-5l-127 -161q-51 -66 25 -68l-8 -46h-221l8 46q31 4 53 18t51 51l190 233l-101 238q-15 34 -28 45.5t-39 15.5l10 48h280l-9 -48q-56 -1 -56 -33q0 -11 6 -26
l56 -142h6l109 138q20 26 20 41q0 21 -41 22l9 48h218l-8 -48q-31 -4 -52 -17t-49 -46z" />
    <glyph glyph-name="Psi" unicode="&#x3a8;" horiz-adv-x="791" 
d="M103 454q0 14 2 44t2 46q0 37 -8 52t-30 23l29 86q80 -5 114.5 -36t34.5 -105q0 -17 -3 -54.5t-3 -60.5q0 -60 19.5 -86.5t65.5 -33.5l48 246q4 24 4 35q0 21 -11.5 28.5t-41.5 8.5l8 48h282l-8 -48q-40 -1 -55 -15t-23 -57l-49 -246q59 7 91 45t61 137q33 112 74.5 150
t142.5 44l15 -93q-36 -9 -52 -30.5t-38 -90.5q-43 -137 -98 -178q-69 -53 -210 -60l-26 -136q-4 -22 -4 -31q0 -23 13.5 -31.5t45.5 -8.5l-8 -46h-292l8 46q40 0 57 14.5t25 56.5l27 137q-114 6 -166 63q-43 48 -43 137z" />
    <glyph glyph-name="uni03A9" unicode="&#x3a9;" horiz-adv-x="768" 
d="M452 640q-55 0 -95.5 -32.5t-62.5 -85.5t-32 -111.5t-10 -120.5q0 -142 67 -202l-18 -88h-286l20 166h61q1 -49 22 -62t77 -13h41q-59 40 -102 110.5t-43 153.5q0 147 101.5 249t265.5 102q129 0 201 -71t72 -187q0 -65 -25 -125t-66 -104t-83.5 -75t-88.5 -53h37
q56 0 82 13t48 62h60l-45 -166h-285l17 88q89 62 138.5 166.5t49.5 242.5q0 143 -118 143z" />
    <glyph glyph-name="Iotadieresis" unicode="&#x3aa;" horiz-adv-x="358" 
d="M320 575l-89 -458q-8 -42 3.5 -56.5t51.5 -14.5l-8 -46h-296l8 46q41 0 58.5 14.5t25.5 56.5l89 458q4 20 4 31q0 23 -13.5 31.5t-45.5 9.5l9 48h295l-9 -48q-40 -1 -57.5 -15.5t-25.5 -56.5zM257 817q0 -33 -24 -56.5t-58 -23.5t-58 23.5t-24 56.5q0 34 24 57.5t59 23.5
q34 0 57.5 -23.5t23.5 -57.5zM480 817q0 -33 -24 -56.5t-58 -23.5t-58 23.5t-24 56.5q0 34 24 57.5t59 23.5q34 0 57.5 -23.5t23.5 -57.5z" />
    <glyph glyph-name="Upsilondieresis" unicode="&#x3ab;" horiz-adv-x="627" 
d="M207 117l28 144l-93 322q-10 36 -23 48t-40 16l9 48h271l-9 -48q-65 -1 -48 -64l59 -238h5l148 239q14 23 14 37q0 25 -45 26l9 48h217l-8 -48q-31 -4 -48 -15.5t-41 -46.5l-219 -322l-28 -146q-8 -43 4.5 -57t58.5 -14l-8 -46h-312l8 46q46 0 65 14.5t26 56.5zM400 817
q0 -33 -24 -56.5t-58 -23.5t-58 23.5t-24 56.5q0 34 24 57.5t59 23.5q34 0 57.5 -23.5t23.5 -57.5zM623 817q0 -33 -24 -56.5t-58 -23.5t-58 23.5t-24 56.5q0 34 24 57.5t59 23.5q34 0 57.5 -23.5t23.5 -57.5z" />
    <glyph glyph-name="alphatonos" unicode="&#x3ac;" horiz-adv-x="575" 
d="M356 554l-86 4l54 207l131 -28zM567 473q-62 -121 -111 -200q4 -123 16.5 -166t50.5 -43q14 0 32 3l4 -41q-58 -35 -120 -35q-45 0 -67 28.5t-24 102.5h-4q-49 -75 -90.5 -105.5t-91.5 -30.5q-68 0 -102 41.5t-34 108.5q0 154 81.5 270t206.5 116q58 0 88.5 -34
t38.5 -105h4q34 68 52 137l67 -13zM214 81q21 0 48.5 30t79.5 115v65q0 91 -9.5 127t-33.5 36q-45 0 -83 -98t-38 -204q0 -71 36 -71z" />
    <glyph glyph-name="epsilontonos" unicode="&#x3ad;" horiz-adv-x="490" 
d="M337 554l-86 4l54 207l131 -28zM254 72q80 0 167 53l27 -41q-98 -96 -245 -96q-89 0 -145 33t-56 98q0 68 44.5 105t124.5 43v6q-47 8 -71 32t-24 57q0 78 65.5 119t171.5 41q110 0 179 -44l-22 -103h-102q2 18 2 26q0 59 -55 59q-45 0 -68.5 -33.5t-23.5 -82.5
q0 -48 62 -48h50l-13 -65h-46q-55 0 -84 -25.5t-29 -72.5q0 -61 91 -61z" />
    <glyph glyph-name="etatonos" unicode="&#x3ae;" horiz-adv-x="591" 
d="M390 554l-86 4l54 207l131 -28zM67 171l41 195q4 20 4 31q0 24 -16 34.5t-53 11.5l8 39q66 33 126 33q77 0 77 -95q0 -17 -2 -37q84 139 199 139q49 0 74 -28t25 -74q0 -28 -7 -54l-53 -228q-6 -24 -6 -40q0 -18 9.5 -25.5t33.5 -7.5q10 0 32 2l4 -41q-67 -35 -131 -35
q-96 0 -96 90q0 25 8 60l49 208q4 16 4 24q0 30 -31 30q-55 0 -128 -109q-52 -257 -64 -294h-148v30q21 43 41 141z" />
    <glyph glyph-name="iotatonos" unicode="&#x3af;" horiz-adv-x="299" 
d="M228 554l-86 4l54 207l131 -28zM39 141l47 221q16 75 23 136l132 20h27l-79 -363q-10 -44 -10 -57q0 -18 9.5 -25.5t32.5 -7.5q15 0 34 3l4 -41q-62 -36 -133 -36q-95 0 -95 90q0 20 8 60z" />
    <glyph glyph-name="upsilondieresistonos" unicode="&#x3b0;" horiz-adv-x="588" 
d="M248 631q0 -31 -22 -52.5t-54 -21.5q-31 0 -53 21.5t-22 52.5t22 53t54 22q31 0 53 -22t22 -53zM547 631q0 -31 -22 -52.5t-54 -21.5q-31 0 -53 21.5t-22 52.5t22 53t54 22t53.5 -21.5t21.5 -53.5zM338 561l-78 4l31 216l122 -34zM255 370l-49 -229q-6 -25 -6 -52
q0 -40 32 -40q53 0 93.5 60.5t57.5 133.5t17 134q0 55 -13 98l6 26l125 20q37 -51 37 -145q0 -169 -91.5 -279t-259.5 -110q-69 0 -109.5 30.5t-40.5 85.5q0 22 6 47l43 205q4 24 4 37q0 26 -14.5 38t-52.5 13l8 39q72 35 124 35q91 0 91 -87q0 -26 -8 -60z" />
    <glyph glyph-name="alpha" unicode="&#x3b1;" horiz-adv-x="575" 
d="M567 473q-62 -121 -111 -200q4 -123 16.5 -166t50.5 -43q14 0 32 3l4 -41q-58 -35 -120 -35q-45 0 -67 28.5t-24 102.5h-4q-49 -75 -90.5 -105.5t-91.5 -30.5q-68 0 -102 41.5t-34 108.5q0 154 81.5 270t206.5 116q58 0 88.5 -34t38.5 -105h4q34 68 52 137l67 -13z
M214 81q21 0 48.5 30t79.5 115v65q0 91 -9.5 127t-33.5 36q-45 0 -83 -98t-38 -204q0 -71 36 -71z" />
    <glyph glyph-name="beta" unicode="&#x3b2;" horiz-adv-x="567" 
d="M279 -13q-73 0 -119 35q-11 -74 -26 -146l-13 -57l-158 -24v30q30 73 54 186l108 514q23 108 82.5 159t164.5 51q91 0 140 -41.5t49 -108.5q0 -72 -42.5 -122.5t-121.5 -67.5v-5q58 -7 94.5 -47.5t36.5 -98.5q0 -116 -63.5 -186.5t-185.5 -70.5zM271 520l-95 -443
q30 -29 77 -29q34 0 59.5 23t38.5 58t19 69.5t6 66.5q0 51 -22.5 74.5t-68.5 23.5h-14l21 60h18q37 0 61.5 30.5t33.5 71.5t9 88q0 63 -44 63q-36 0 -57.5 -32t-41.5 -124z" />
    <glyph glyph-name="gamma" unicode="&#x3b3;" horiz-adv-x="513" 
d="M106 301q-11 68 -23 98.5t-25 38t-42 7.5l8 40q60 30 117 30q47 0 70 -33.5t33 -118.5q12 -104 12 -171q0 -82 -11 -133h5l50 95q64 123 83.5 192t19.5 170l124 -14l1 -43q-81 -231 -250 -464q-67 -94 -133.5 -146t-150.5 -67l-16 83v27q70 6 108 21.5t48.5 34t10.5 48.5
q0 45 -6 91.5t-33 213.5z" />
    <glyph glyph-name="delta" unicode="&#x3b4;" horiz-adv-x="563" 
d="M168 560q0 84 60 129.5t150 45.5q81 0 126 -29t45 -77q0 -33 -19 -69l-61 -15q-8 54 -35.5 82t-85.5 28q-31 0 -56.5 -13t-25.5 -40q0 -23 26.5 -45.5t97.5 -65.5q65 -39 102 -87t37 -116q0 -125 -76.5 -213t-209.5 -88q-106 0 -159 45.5t-53 127.5q0 194 195 292
q-58 48 -58 108zM185 126q0 -77 58 -77q49 0 79 55q20 37 33.5 89t13.5 86q0 46 -18.5 73.5t-65.5 57.5q-50 -49 -75 -126t-25 -158z" />
    <glyph glyph-name="epsilon" unicode="&#x3b5;" horiz-adv-x="490" 
d="M254 72q80 0 167 53l27 -41q-98 -96 -245 -96q-89 0 -145 33t-56 98q0 68 44.5 105t124.5 43v6q-47 8 -71 32t-24 57q0 78 65.5 119t171.5 41q110 0 179 -44l-22 -103h-102q2 18 2 26q0 59 -55 59q-45 0 -68.5 -33.5t-23.5 -82.5q0 -48 62 -48h50l-13 -65h-46
q-55 0 -84 -25.5t-29 -72.5q0 -61 91 -61z" />
    <glyph glyph-name="zeta" unicode="&#x3b6;" horiz-adv-x="440" 
d="M261 566q-29 17 -45.5 49t-16.5 68q0 19 6 37l56 21q17 -88 102 -101l146 90l59 -16l-4 -26q-26 -66 -83 -103t-128 -38q-64 -51 -113.5 -152t-49.5 -184q0 -41 23.5 -63.5t82.5 -42.5t84.5 -41t25.5 -60q0 -41 -26.5 -84t-54 -68t-73.5 -61l-73 46q70 70 70 112
q0 17 -13.5 27.5t-45.5 18.5q-161 45 -161 185q0 107 64.5 206t167.5 180z" />
    <glyph glyph-name="eta" unicode="&#x3b7;" horiz-adv-x="591" 
d="M67 171l41 195q4 20 4 31q0 24 -16 34.5t-53 11.5l8 39q66 33 126 33q77 0 77 -95q0 -17 -2 -37q84 139 199 139q49 0 74 -28t25 -74q0 -28 -7 -54l-53 -228q-6 -24 -6 -40q0 -18 9.5 -25.5t33.5 -7.5q10 0 32 2l4 -41q-67 -35 -131 -35q-96 0 -96 90q0 25 8 60l49 208
q4 16 4 24q0 30 -31 30q-55 0 -128 -109q-52 -257 -64 -294h-148v30q21 43 41 141z" />
    <glyph glyph-name="theta" unicode="&#x3b8;" horiz-adv-x="556" 
d="M553 513q0 -84 -19 -172.5t-55.5 -169.5t-100 -133t-142.5 -52q-91 0 -141.5 60t-50.5 169q0 85 18.5 172.5t55 167t100.5 130t145 50.5q87 0 138.5 -56.5t51.5 -165.5zM238 47q54 0 95 105q22 54 48 181h-176q-23 -126 -23 -191q0 -95 56 -95zM361 671q-51 0 -92 -93
q-30 -69 -52 -182h176q22 129 22 185q0 90 -54 90z" />
    <glyph glyph-name="iota" unicode="&#x3b9;" horiz-adv-x="299" 
d="M39 141l47 221q16 75 23 136l132 20h27l-79 -363q-10 -44 -10 -57q0 -18 9.5 -25.5t32.5 -7.5q15 0 34 3l4 -41q-62 -36 -133 -36q-95 0 -95 90q0 20 8 60z" />
    <glyph glyph-name="kappa" unicode="&#x3ba;" horiz-adv-x="564" 
d="M418 361l-37 -37l59 -175q11 -33 25 -44.5t50 -17.5l-27 -96q-56 0 -92 8.5t-56.5 29t-29.5 41t-19 58.5l-23 89l-44 -39q-26 -113 -43 -178h-155v22q26 38 55 173l36 171q4 19 4 31q0 24 -16 34.5t-53 11.5l8 39q66 33 128 33q38 0 60.5 -25t22.5 -74q0 -25 -7 -55
l-18 -82q80 77 140 148q30 36 48 52t51.5 29t81.5 14v-112l-52 -6q-39 -4 -57 -12.5t-40 -30.5z" />
    <glyph glyph-name="lambda" unicode="&#x3bb;" horiz-adv-x="527" 
d="M404 639l41 -500q4 -45 11 -59.5t28 -14.5q10 0 32 5l4 -51q-50 -30 -105 -30q-65 0 -88.5 38t-27.5 117l-17 297h-4l-207 -451h-30l-75 23q38 35 86 133l184 377l35 -6l-6 80q-3 36 -25.5 47t-75.5 11l8 51q55 29 114 29q30 0 52 -5.5t42.5 -28t23.5 -62.5z" />
    <glyph glyph-name="uni03BC" unicode="&#x3bc;" horiz-adv-x="590" 
d="M-24 -205v30q24 56 54 186l79 345q6 22 6 38q0 26 -16.5 37.5t-53.5 11.5l9 39q66 33 127 33q85 0 85 -85q0 -18 -7 -53l-50 -215q-6 -21 -6 -36q0 -35 33 -35q53 0 122 110l65 308h144l-77 -367q-6 -28 -6 -42q0 -19 10.5 -27t35.5 -8q9 0 29 2l3 -41q-62 -35 -131 -35
q-42 0 -62 19.5t-22 58.5q-1 10 1 34q-25 -55 -62 -85.5t-77 -30.5q-46 0 -60 35l-4 -2q10 -33 10 -66q0 -28 -10 -68l-16 -66z" />
    <glyph glyph-name="nu" unicode="&#x3bd;" horiz-adv-x="495" 
d="M127 0q-2 48 -30 244l-16 114q-8 56 -25.5 71.5t-56.5 15.5l8 40q62 30 117 30q46 0 66 -30t29 -104l14 -118q10 -80 10 -163h6l47 81q56 97 72 162.5t17 172.5l121 -14l1 -43q-85 -244 -246 -459h-134z" />
    <glyph glyph-name="xi" unicode="&#x3be;" horiz-adv-x="453" 
d="M245 576q-54 29 -54 101q0 22 6 43l56 21q16 -84 95 -96l157 84l60 -16l-5 -25q-33 -73 -89 -101.5t-141 -29.5q-68 -47 -68 -106q0 -74 123 -74h37l-14 -67h-33q-34 0 -66.5 -6t-64 -19t-50.5 -39t-19 -61q0 -32 29 -48t106 -33q57 -13 84 -36.5t27 -61.5
q0 -43 -26.5 -86.5t-55 -69.5t-72.5 -59l-73 46q72 74 72 113q0 33 -61 44q-94 18 -142.5 53t-48.5 95q0 84 68.5 135.5t161.5 64.5v6q-61 4 -89.5 27.5t-28.5 58.5q0 47 33 80t86 62z" />
    <glyph glyph-name="omicron" unicode="&#x3bf;" horiz-adv-x="552" 
d="M527 314q0 -137 -75.5 -232.5t-213.5 -95.5q-95 0 -151 56t-56 149q0 134 77 232.5t209 98.5q96 0 153 -53.5t57 -154.5zM376 364q0 93 -63 93q-52 0 -82 -66q-22 -50 -36 -121.5t-14 -135.5q0 -85 62 -85q53 0 80 62q22 43 37.5 114.5t15.5 138.5z" />
    <glyph glyph-name="pi" unicode="&#x3c0;" horiz-adv-x="634" 
d="M367 190l41 195h-135q-2 -10 -15.5 -69.5t-17 -74.5t-15.5 -61t-20 -68.5t-20.5 -54.5t-26.5 -57h-144l16 73q52 33 92.5 104t77.5 208q-37 -1 -61 -12.5t-51 -37.5l-25 29q30 74 81 111t136 37h247q82 0 147 27l-45 -133q-30 -16 -88 -21l-41 -200q-11 -50 -11 -78
q0 -53 48 -78l-20 -44q-157 15 -157 144q0 26 7 61z" />
    <glyph glyph-name="rho" unicode="&#x3c1;" horiz-adv-x="587" 
d="M255 50q53 0 87 58q29 49 47.5 130t18.5 138q0 82 -65 82q-45 0 -74 -38t-47 -124l-43 -201q9 -18 30 -31.5t46 -13.5zM134 -119l-14 -62l-158 -24v30q26 63 52 186l58 272q25 115 91 176.5t188 61.5q97 0 154 -49.5t57 -136.5t-29.5 -164t-95.5 -130.5t-158 -53.5
q-41 0 -73 14t-47 36l-4 -1q-2 -67 -21 -155z" />
    <glyph glyph-name="sigma1" unicode="&#x3c2;" horiz-adv-x="474" 
d="M287 100q60 -20 85.5 -40t25.5 -57q0 -42 -27 -85t-55.5 -69t-71.5 -58l-73 46q72 72 72 113q0 18 -12.5 27t-48.5 19q-73 20 -113.5 69.5t-40.5 119.5q0 140 81 238t218 98q101 0 161 -44l-24 -106h-106q1 46 -6.5 67t-35.5 21q-47 0 -82 -56q-50 -82 -50 -188
q0 -46 22 -70.5t81 -44.5z" />
    <glyph glyph-name="sigma" unicode="&#x3c3;" horiz-adv-x="587" 
d="M522 305q0 -62 -18 -118.5t-52 -101.5t-90 -72t-127 -27q-95 0 -149.5 55.5t-54.5 149.5q0 86 31 159.5t97 122.5t155 49q29 0 87.5 -6.5t99.5 -6.5q61 0 108 20l2 -71l-5 -28q-32 -14 -66 -14q-32 0 -72 23l-2 -5q56 -44 56 -129zM370 365q0 48 -14 70t-46 22
q-26 0 -44.5 -15t-34.5 -51q-21 -49 -35 -121.5t-14 -136.5q0 -42 13.5 -62.5t44.5 -20.5q48 0 78 62q21 44 36.5 115.5t15.5 137.5z" />
    <glyph glyph-name="tau" unicode="&#x3c4;" horiz-adv-x="529" 
d="M161 142q11 60 36 143q17 53 33 99h-74q-56 0 -112 -47l-29 28q34 73 84 108.5t135 35.5h194q68 0 109 13h27l-39 -118q-37 -20 -94 -20h-77l-48 -237q-8 -43 -8 -49q0 -33 43 -33q13 0 34 3l5 -41q-62 -36 -132 -36q-95 0 -95 90q0 23 8 61z" />
    <glyph glyph-name="upsilon" unicode="&#x3c5;" horiz-adv-x="588" 
d="M255 370l-49 -229q-6 -25 -6 -52q0 -40 32 -40q53 0 93.5 60.5t57.5 133.5t17 134q0 55 -13 98l6 26l125 20q37 -51 37 -145q0 -169 -91.5 -279t-259.5 -110q-69 0 -109.5 30.5t-40.5 85.5q0 22 6 47l43 205q4 24 4 37q0 26 -14.5 38t-52.5 13l8 39q72 35 124 35
q91 0 91 -87q0 -26 -8 -60z" />
    <glyph glyph-name="phi" unicode="&#x3c6;" horiz-adv-x="788" 
d="M763 347q0 -71 -18 -131.5t-57.5 -112.5t-112 -82t-171.5 -31l-36 -174l-155 -21v30q25 64 48 165q-107 6 -168.5 52t-61.5 130q0 102 53 191.5t144 154.5l112 -15q-73 -65 -117 -153.5t-44 -182.5q0 -108 95 -115l52 244q24 112 76.5 168.5t163.5 56.5q93 0 145 -45
t52 -129zM472 304l-54 -252q81 3 129 67q34 45 51 123t17 146q0 70 -53 70q-33 0 -52 -32t-38 -122z" />
    <glyph glyph-name="chi" unicode="&#x3c7;" horiz-adv-x="540" 
d="M88 120l120 139l-42 132q-10 32 -23.5 42.5t-40.5 10.5q-7 0 -21 -2l7 40q62 34 114 34q46 0 66 -19.5t36 -74.5l22 -73h4l136 167h31l77 -24q-47 -30 -114 -104l-101 -112l53 -154q11 -33 23 -44.5t34 -11.5q13 0 27 3l5 -41q-53 -39 -108 -39q-56 0 -80.5 25t-41.5 84
l-27 88h-5l-161 -197h-31l-73 24q48 31 114 107z" />
    <glyph glyph-name="psi" unicode="&#x3c8;" horiz-adv-x="794" 
d="M228 -205l1 30q27 69 49 165q-99 3 -156 46t-57 121q0 21 6 47l32 151q4 18 4 37q0 26 -14.5 38t-52.5 13l8 39q72 35 124 35q90 0 90 -87q0 -23 -6 -50l-40 -187q-7 -35 -7 -54q0 -79 82 -86l106 494q23 107 31 167l121 20h29l-145 -681q81 11 128.5 108t47.5 215
q0 56 -13 99l6 26l122 20q14 -20 26 -59.5t12 -85.5q0 -167 -87.5 -275t-255.5 -111l-37 -174z" />
    <glyph glyph-name="omega" unicode="&#x3c9;" horiz-adv-x="793" 
d="M497 382l-48 -223q-10 -50 -10 -68q0 -42 32 -42q46 0 80 64q58 111 58 249q0 58 -17 111l5 27l123 21q14 -23 28 -71t14 -99q0 -97 -35 -179t-104.5 -133.5t-159.5 -51.5q-52 0 -85 21t-44 53q-47 -74 -140 -74q-75 0 -119.5 41.5t-44.5 123.5q0 110 53 204.5t149 161.5
l115 -15q-87 -77 -128 -177t-41 -205q0 -69 43 -69q39 0 63 48t43 150q8 39 18 115l125 17h27z" />
    <glyph glyph-name="iotadieresis" unicode="&#x3ca;" horiz-adv-x="299" 
d="M184 646q0 -33 -24.5 -56.5t-58.5 -23.5t-58 23.5t-24 56.5q0 34 24.5 57.5t59.5 23.5q34 0 57.5 -23.5t23.5 -57.5zM407 646q0 -33 -24.5 -56.5t-58.5 -23.5t-58 23.5t-24 56.5q0 34 24.5 57.5t59.5 23.5q34 0 57.5 -23.5t23.5 -57.5zM39 141l47 221q16 75 23 136
l132 20h27l-79 -363q-10 -44 -10 -57q0 -18 9.5 -25.5t32.5 -7.5q15 0 34 3l4 -41q-62 -36 -133 -36q-95 0 -95 90q0 20 8 60z" />
    <glyph glyph-name="upsilondieresis" unicode="&#x3cb;" horiz-adv-x="588" 
d="M288 646q0 -33 -24.5 -56.5t-58.5 -23.5t-58 23.5t-24 56.5q0 34 24.5 57.5t59.5 23.5q34 0 57.5 -23.5t23.5 -57.5zM511 646q0 -33 -24.5 -56.5t-58.5 -23.5t-58 23.5t-24 56.5q0 34 24.5 57.5t59.5 23.5q34 0 57.5 -23.5t23.5 -57.5zM255 370l-49 -229q-6 -25 -6 -52
q0 -40 32 -40q53 0 93.5 60.5t57.5 133.5t17 134q0 55 -13 98l6 26l125 20q37 -51 37 -145q0 -169 -91.5 -279t-259.5 -110q-69 0 -109.5 30.5t-40.5 85.5q0 22 6 47l43 205q4 24 4 37q0 26 -14.5 38t-52.5 13l8 39q72 35 124 35q91 0 91 -87q0 -26 -8 -60z" />
    <glyph glyph-name="omicrontonos" unicode="&#x3cc;" horiz-adv-x="552" 
d="M366 554l-86 4l54 207l131 -28zM527 314q0 -137 -75.5 -232.5t-213.5 -95.5q-95 0 -151 56t-56 149q0 134 77 232.5t209 98.5q96 0 153 -53.5t57 -154.5zM376 364q0 93 -63 93q-52 0 -82 -66q-22 -50 -36 -121.5t-14 -135.5q0 -85 62 -85q53 0 80 62q22 43 37.5 114.5
t15.5 138.5z" />
    <glyph glyph-name="upsilontonos" unicode="&#x3cd;" horiz-adv-x="588" 
d="M358 554l-86 4l54 207l131 -28zM255 370l-49 -229q-6 -25 -6 -52q0 -40 32 -40q53 0 93.5 60.5t57.5 133.5t17 134q0 55 -13 98l6 26l125 20q37 -51 37 -145q0 -169 -91.5 -279t-259.5 -110q-69 0 -109.5 30.5t-40.5 85.5q0 22 6 47l43 205q4 24 4 37q0 26 -14.5 38
t-52.5 13l8 39q72 35 124 35q91 0 91 -87q0 -26 -8 -60z" />
    <glyph glyph-name="omegatonos" unicode="&#x3ce;" horiz-adv-x="793" 
d="M502 554l-86 4l54 207l131 -28zM497 382l-48 -223q-10 -50 -10 -68q0 -42 32 -42q46 0 80 64q58 111 58 249q0 58 -17 111l5 27l123 21q14 -23 28 -71t14 -99q0 -97 -35 -179t-104.5 -133.5t-159.5 -51.5q-52 0 -85 21t-44 53q-47 -74 -140 -74q-75 0 -119.5 41.5
t-44.5 123.5q0 110 53 204.5t149 161.5l115 -15q-87 -77 -128 -177t-41 -205q0 -69 43 -69q39 0 63 48t43 150q8 39 18 115l125 17h27z" />
    <glyph glyph-name="uni03D0" unicode="&#x3d0;" horiz-adv-x="573" 
d="M566 593q0 -139 -147 -202q112 -41 112 -138q0 -123 -74 -194.5t-208 -71.5q-97 0 -152.5 55.5t-55.5 164.5q0 51 15 122q25 117 58 197.5t74 125.5t85.5 64t100.5 19q88 0 140 -38.5t52 -103.5zM379 266q0 67 -47 98q-47 -10 -74 -13l3 62q157 26 157 197q0 66 -49 66
q-30 0 -52 -24t-48.5 -100t-56.5 -215q-27 -125 -27 -188q0 -101 63 -101q44 0 75 37.5t43.5 85t12.5 95.5z" />
    <glyph glyph-name="theta1" unicode="&#x3d1;" horiz-adv-x="583" 
d="M240 48q50 0 85 57t68 206q-138 26 -205 70.5t-67 121.5q0 105 68 168.5t184 63.5q92 0 146.5 -50.5t54.5 -161.5q0 -66 -23 -178q-39 -189 -112 -273.5t-199 -84.5q-102 0 -155.5 38t-53.5 111q0 20 7 60t7 61q0 27 -8 48l97 36q50 -36 50 -97q0 -19 -7 -59t-7 -63
q0 -40 17.5 -57t52.5 -17zM270 497q0 -50 31 -78t106 -43q28 136 28 214q0 50 -16.5 68t-47.5 18q-48 0 -74.5 -56.5t-26.5 -122.5z" />
    <glyph glyph-name="Upsilon1" unicode="&#x3d2;" horiz-adv-x="656" 
d="M406 226l-21 -110q-5 -25 -5 -35q0 -22 14.5 -28.5t52.5 -6.5l-9 -46h-309l8 46q47 0 64 11.5t25 52.5l24 125q10 55 10 98q0 100 -48 172t-144 96l26 104q70 1 121 -17.5t81.5 -49t47.5 -77.5t22.5 -96.5t3.5 -113.5h4q97 354 349 354l6 -80q-120 -17 -206 -126.5
t-117 -272.5z" />
    <glyph glyph-name="uni03D3" unicode="&#x3d3;" horiz-adv-x="656" 
d="M406 226l-21 -110q-5 -25 -5 -35q0 -22 14.5 -28.5t52.5 -6.5l-9 -46h-309l8 46q47 0 64 11.5t25 52.5l24 125q10 55 10 98q0 100 -48 172t-144 96l26 104q70 1 121 -17.5t81.5 -49t47.5 -77.5t22.5 -96.5t3.5 -113.5h4q97 354 349 354l6 -80q-120 -17 -206 -126.5
t-117 -272.5zM-32 501l-86 4l52 207l130 -28z" />
    <glyph glyph-name="uni03D4" unicode="&#x3d4;" horiz-adv-x="656" 
d="M406 226l-21 -110q-5 -25 -5 -35q0 -22 14.5 -28.5t52.5 -6.5l-9 -46h-309l8 46q47 0 64 11.5t25 52.5l24 125q10 55 10 98q0 100 -48 172t-144 96l26 104q70 1 121 -17.5t81.5 -49t47.5 -77.5t22.5 -96.5t3.5 -113.5h4q97 354 349 354l6 -80q-120 -17 -206 -126.5
t-117 -272.5zM389 817q0 -33 -24 -56.5t-58 -23.5t-58 23.5t-24 56.5q0 34 24 57.5t59 23.5q34 0 57.5 -23.5t23.5 -57.5zM612 817q0 -33 -24 -56.5t-58 -23.5t-58 23.5t-24 56.5q0 34 24 57.5t59 23.5q34 0 57.5 -23.5t23.5 -57.5z" />
    <glyph glyph-name="phi1" unicode="&#x3d5;" horiz-adv-x="807" 
d="M579 735l-46 -214q123 -5 186.5 -55t63.5 -137q0 -326 -363 -339l-37 -174l-153 -21v30q27 65 49 166q-121 5 -184.5 53t-63.5 137q0 165 93 249.5t268 90.5l6 26q18 82 32 168l121 20h28zM625 345q0 59 -26.5 84.5t-78.5 28.5l-86 -405q81 6 124 62q31 39 49 101t18 129
zM292 53l87 405q-90 -6 -132 -72q-26 -40 -42.5 -99.5t-16.5 -119.5q0 -59 26.5 -85t77.5 -29z" />
    <glyph glyph-name="uni0400" unicode="&#x400;" horiz-adv-x="593" 
d="M503 760l-23 -37l-247 72l65 130zM-18 0l8 46q41 0 58.5 14.5t25.5 56.5l89 458q4 20 4 31q0 23 -13.5 31.5t-45.5 9.5l9 48h500l-21 -169h-74q-6 61 -20 79.5t-65 18.5h-108l-46 -238h61q47 0 66 14t30 57h66l-41 -209h-66q2 14 2 23q0 27 -15 37.5t-54 10.5h-62
l-49 -252h123q51 0 76.5 24t44.5 92h76l-35 -183h-524z" />
    <glyph glyph-name="afii10023" unicode="&#x401;" horiz-adv-x="593" 
d="M-18 0l8 46q41 0 58.5 14.5t25.5 56.5l89 458q4 20 4 31q0 23 -13.5 31.5t-45.5 9.5l9 48h500l-21 -169h-74q-6 61 -20 79.5t-65 18.5h-108l-46 -238h61q47 0 66 14t30 57h66l-41 -209h-66q2 14 2 23q0 27 -15 37.5t-54 10.5h-62l-49 -252h123q51 0 76.5 24t44.5 92h76
l-35 -183h-524zM365 817q0 -33 -24 -56.5t-58 -23.5t-58 23.5t-24 56.5q0 34 24 57.5t59 23.5q34 0 57.5 -23.5t23.5 -57.5zM588 817q0 -33 -24 -56.5t-58 -23.5t-58 23.5t-24 56.5q0 34 24 57.5t59 23.5q34 0 57.5 -23.5t23.5 -57.5z" />
    <glyph glyph-name="afii10051" unicode="&#x402;" horiz-adv-x="814" 
d="M113 695h557l-27 -179h-75q-3 70 -13.5 89t-54.5 19h-43l-43 -216q92 55 179 55q91 0 139 -38t48 -106q0 -12 -6 -48l-9 -55q-21 -118 -90.5 -174.5t-204.5 -86.5l-13 50q54 24 82 49t40 55t24 91l11 56q4 24 4 37q0 39 -21 56t-63 17q-63 0 -134 -34l-41 -215
q-4 -21 -4 -33q0 -22 13.5 -30t46.5 -8l-9 -46h-305l8 46q46 0 65 14.5t27 56.5l98 507h-42q-46 0 -65.5 -22t-47.5 -93h-76z" />
    <glyph glyph-name="afii10052" unicode="&#x403;" horiz-adv-x="560" 
d="M262 760l205 165l65 -130l-247 -72zM428 624h-99l-98 -503q-5 -27 -5 -35q0 -22 17 -31t58 -9l-8 -46h-311l8 46q40 0 57.5 14.5t25.5 56.5l88 458q4 24 4 33q0 22 -13 30t-45 9l9 48h498l-22 -185h-76q-3 69 -18.5 91.5t-69.5 22.5z" />
    <glyph glyph-name="afii10053" unicode="&#x404;" horiz-adv-x="633" 
d="M318 -13q-129 0 -198.5 65.5t-69.5 186.5q0 202 106 334.5t275 132.5q133 0 224 -54l-26 -130h-107q-1 59 -22 86t-72 27q-46 0 -80 -26.5t-64 -85.5q-34 -69 -48 -134h231l-15 -75h-230q-9 -65 -9 -128q0 -130 105 -130q57 0 92 29t56 91h106l-25 -135q-85 -54 -229 -54
z" />
    <glyph glyph-name="afii10054" unicode="&#x405;" horiz-adv-x="537" 
d="M235 45q54 0 86.5 29.5t32.5 86.5q0 43 -20 68t-69 47l-64 29q-121 55 -121 180q0 102 70 161.5t184 59.5q130 0 210 -54l-26 -135h-98v8q0 60 -23.5 89t-76.5 29q-50 0 -79.5 -28t-29.5 -74q0 -38 21 -61.5t60 -41.5l66 -29q70 -31 106 -72.5t36 -116.5q0 -110 -75 -172
t-199 -62q-83 0 -141.5 18.5t-86.5 43.5l25 138h102v-9q0 -66 25.5 -99t84.5 -33z" />
    <glyph glyph-name="afii10055" unicode="&#x406;" horiz-adv-x="358" 
d="M320 575l-89 -458q-8 -42 3.5 -56.5t51.5 -14.5l-8 -46h-296l8 46q41 0 58.5 14.5t25.5 56.5l89 458q4 20 4 31q0 23 -13.5 31.5t-45.5 9.5l9 48h295l-9 -48q-40 -1 -57.5 -15.5t-25.5 -56.5z" />
    <glyph glyph-name="afii10056" unicode="&#x407;" horiz-adv-x="358" 
d="M320 575l-89 -458q-8 -42 3.5 -56.5t51.5 -14.5l-8 -46h-296l8 46q41 0 58.5 14.5t25.5 56.5l89 458q4 20 4 31q0 23 -13.5 31.5t-45.5 9.5l9 48h295l-9 -48q-40 -1 -57.5 -15.5t-25.5 -56.5zM257 817q0 -33 -24 -56.5t-58 -23.5t-58 23.5t-24 56.5q0 34 24 57.5t59 23.5
q34 0 57.5 -23.5t23.5 -57.5zM480 817q0 -33 -24 -56.5t-58 -23.5t-58 23.5t-24 56.5q0 34 24 57.5t59 23.5q34 0 57.5 -23.5t23.5 -57.5z" />
    <glyph glyph-name="afii10057" unicode="&#x408;" horiz-adv-x="357" 
d="M321 575l-93 -480q-24 -120 -93 -175t-205 -67l-15 47q79 25 108.5 66.5t47.5 133.5l93 475q4 18 4 31q0 23 -13.5 31.5t-45.5 9.5l9 48h295l-9 -48q-40 -1 -57.5 -15.5t-25.5 -56.5z" />
    <glyph glyph-name="afii10058" unicode="&#x409;" horiz-adv-x="941" 
d="M237 575q4 20 4 31q0 23 -13.5 31.5t-45.5 9.5l10 48h558l-9 -48q-41 -1 -58 -15.5t-25 -56.5l-30 -155h68q106 0 166.5 -41t60.5 -122q0 -120 -75 -188.5t-210 -68.5h-317l9 46q40 0 57 14.5t25 56.5l98 506h-181q-62 -313 -122 -455q-44 -104 -94 -143t-141 -39
l-11 101q79 15 127 63q44 45 78 143.5t71 281.5zM658 349h-44l-53 -276h59q39 0 67 17t42 46.5t20 60.5t6 66q0 46 -23 66t-74 20z" />
    <glyph glyph-name="afii10059" unicode="&#x40a;" horiz-adv-x="987" 
d="M701 575l-33 -167h71q107 0 168.5 -40.5t61.5 -120.5q0 -120 -75 -183.5t-210 -63.5h-317l8 46q40 0 55.5 14t23.5 57l43 216h-223l-43 -216q-4 -20 -4 -31q0 -23 12 -31.5t43 -8.5l-8 -46h-292l8 46q41 0 58.5 14.5t25.5 56.5l88 458q4 19 4 31q0 23 -13 31.5t-45 9.5
l9 48h292l-9 -48q-40 -1 -56 -15t-24 -57l-32 -168h223l32 168q4 21 4 31q0 24 -12 32t-43 9l9 48h292l-9 -48q-40 -1 -57.5 -15.5t-25.5 -56.5zM701 337h-46l-51 -264h61q51 0 83 28.5t42.5 65.5t10.5 85q0 45 -24 65t-76 20z" />
    <glyph glyph-name="afii10060" unicode="&#x40b;" horiz-adv-x="845" 
d="M579 117l27 143q4 20 4 34q0 73 -84 73q-61 0 -134 -33l-41 -217q-4 -21 -4 -33q0 -22 13.5 -30t46.5 -8l-9 -46h-305l8 46q46 0 65 14.5t27 56.5l98 507h-42q-46 0 -65.5 -22t-47.5 -93h-76l45 186h557l-27 -179h-75q-2 69 -13 88.5t-55 19.5h-43l-42 -215q91 54 179 54
q90 0 137.5 -38t47.5 -106q0 -19 -6 -50l-30 -152q-3 -18 -3 -31q0 -23 13 -31.5t45 -8.5l-8 -46h-286l9 46q36 0 51 14.5t23 56.5z" />
    <glyph glyph-name="afii10061" unicode="&#x40c;" horiz-adv-x="678" 
d="M72 117l89 458q3 18 3 31q0 23 -13 31.5t-45 9.5l8 48h294l-9 -48q-40 -1 -56 -15t-24 -57l-33 -171h28q71 0 111.5 28.5t73.5 122.5q28 80 75.5 114t140.5 37l6 -115l-54 -7q-40 -6 -65.5 -23.5t-40.5 -55.5q-23 -58 -50 -88t-77 -42v-5q67 -9 93 -46.5t28 -124.5
q1 -53 17.5 -80t63.5 -34l-25 -99q-107 0 -156.5 41.5t-53.5 141.5q-4 99 -19 131.5t-59 32.5h-52l-42 -216q-4 -20 -4 -32q0 -22 13 -30.5t44 -8.5l-8 -46h-292l8 46q40 0 57 14.5t25 56.5zM340 760l205 165l65 -130l-247 -72z" />
    <glyph glyph-name="uni040D" unicode="&#x40d;" horiz-adv-x="739" 
d="M-18 0l8 46q40 0 57.5 14.5t25.5 56.5l89 458q3 17 3 31q0 23 -13 31.5t-45 9.5l9 48h292l-8 -48q-39 -1 -56 -15.5t-25 -56.5l-43 -220q-14 -75 -37 -142h4q30 50 97 138l189 247q25 32 36 97h228l-9 -48q-40 -1 -57.5 -15.5t-25.5 -56.5l-89 -458q-4 -20 -4 -31
q0 -23 13.5 -31.5t45.5 -8.5l-8 -46h-293l8 46q39 0 56 14.5t25 56.5l44 224q16 79 38 142h-5q-24 -44 -97 -138l-190 -249q-23 -29 -36 -96h-227zM550 760l-23 -37l-247 72l65 130z" />
    <glyph glyph-name="afii10062" unicode="&#x40e;" horiz-adv-x="660" 
d="M439 731q-67 0 -106 40t-41 100l41 21q30 -65 119 -65q82 0 141 66l39 -23q-25 -61 -75 -100t-118 -39zM298 581l63 -270h18q7 21 68 117l98 155q12 19 12 36q0 29 -53 29l9 47h228l-9 -47q-33 -4 -48.5 -15.5t-39.5 -50.5l-256 -402q-56 -88 -88.5 -124.5t-75 -53
t-116.5 -16.5l-10 102q80 8 124.5 28t73.5 68l-42 -4l-115 404q-10 36 -21.5 48t-38.5 16l9 47h282l-9 -47q-66 0 -66 -47q0 -7 3 -20z" />
    <glyph glyph-name="afii10145" unicode="&#x40f;" horiz-adv-x="738" 
d="M701 575l-89 -458q-4 -21 -4 -31q0 -23 13 -31.5t45 -8.5l-9 -46h-234q-28 -1 -46.5 -41.5t-38.5 -138.5h-98q17 87 17 122q0 58 -33 58h-242l9 46q40 0 57.5 14.5t25.5 56.5l88 458q4 20 4 31q0 23 -13.5 31.5t-45.5 9.5l10 48h292l-9 -48q-41 -1 -57 -15t-24 -57
l-98 -503h225l98 503q4 21 4 32q0 22 -13 30.5t-44 9.5l9 48h292l-9 -48q-40 -1 -57 -15.5t-25 -56.5z" />
    <glyph glyph-name="afii10017" unicode="&#x410;" horiz-adv-x="648" 
d="M394 101l-10 86h-213l-39 -80q-10 -23 -10 -33q0 -27 55 -28l-9 -46h-221l8 46q35 4 52.5 16.5t37.5 50.5l300 582h125l87 -582q6 -38 16.5 -50.5t39.5 -16.5l-9 -46h-284l8 46q39 1 53 10t14 31q0 5 -1 14zM301 452l-94 -191h167l-21 183q-5 39 -5 84v15h-6
q-8 -23 -41 -91z" />
    <glyph glyph-name="afii10018" unicode="&#x411;" horiz-adv-x="616" 
d="M290 420h76q106 0 166 -41.5t60 -121.5q0 -120 -75 -188.5t-209 -68.5h-326l8 46q40 0 57.5 14.5t25.5 56.5l89 458q3 18 3 31q0 23 -13 31.5t-45 9.5l9 48h487l-20 -175h-74q-2 65 -19.5 86t-71.5 21h-89zM327 349h-51l-54 -276h67q39 0 67 17t42 46.5t20.5 60.5t6.5 66
q0 45 -23.5 65.5t-74.5 20.5z" />
    <glyph glyph-name="afii10019" unicode="&#x412;" horiz-adv-x="641" 
d="M117 695h307q211 0 211 -156q0 -79 -52 -127t-133 -54v-4q75 -7 115 -45.5t40 -97.5q0 -128 -118 -179q-47 -20 -91.5 -26t-116.5 -6h-297l8 46q41 0 58.5 14.5t25.5 56.5l89 458q4 20 4 31q0 23 -13.5 31.5t-45.5 9.5zM283 387h44q72 0 102 28q42 40 42 121
q0 52 -22.5 70t-74.5 18h-45zM343 318h-73l-49 -251h54q85 0 117 23q49 36 49 129q0 53 -22.5 76t-75.5 23z" />
    <glyph glyph-name="afii10020" unicode="&#x413;" horiz-adv-x="556" 
d="M428 624h-99l-98 -503q-5 -27 -5 -35q0 -22 17 -31t58 -9l-8 -46h-311l8 46q40 0 57.5 14.5t25.5 56.5l88 458q4 24 4 33q0 22 -13 30t-45 9l9 48h498l-22 -185h-76q-3 69 -18.5 91.5t-69.5 22.5z" />
    <glyph glyph-name="afii10021" unicode="&#x414;" horiz-adv-x="712" 
d="M-74 -180l49 252h39q44 25 86 82q44 61 75 152.5t66 268.5q3 18 3 31q0 23 -13 31.5t-45 9.5l9 48h564l-9 -48q-40 -1 -57 -15.5t-25 -56.5l-82 -422q-9 -36 -9 -49q0 -17 12 -24.5t40 -7.5h29l-14 -72l-62 -180h-84q19 100 19 134q0 46 -33 46h-358q-76 0 -111 -180h-89
zM148 72h263l108 551h-185q-67 -328 -112 -423q-37 -79 -73 -121z" />
    <glyph glyph-name="afii10022" unicode="&#x415;" horiz-adv-x="593" 
d="M-18 0l8 46q41 0 58.5 14.5t25.5 56.5l89 458q4 20 4 31q0 23 -13.5 31.5t-45.5 9.5l9 48h500l-21 -169h-74q-6 61 -20 79.5t-65 18.5h-108l-46 -238h61q47 0 66 14t30 57h66l-41 -209h-66q2 14 2 23q0 27 -15 37.5t-54 10.5h-62l-49 -252h123q51 0 76.5 24t44.5 92h76
l-35 -183h-524z" />
    <glyph glyph-name="afii10024" unicode="&#x416;" horiz-adv-x="976" 
d="M621 333h-40l-42 -216q-4 -20 -4 -32q0 -22 12.5 -30.5t44.5 -8.5l-8 -46h-290l8 46q40 0 56 14t24 57l42 216h-43q-43 0 -67.5 -31.5t-66.5 -132.5q-46 -110 -96 -146.5t-158 -36.5l-10 102q47 6 67 28.5t44 82.5q37 89 76.5 126t117.5 46v5q-76 37 -76 117q0 86 -82 97
l-39 5l25 111q103 -4 144 -66q25 -36 25 -93q0 -46 10 -76t31 -44t42.5 -18.5t54.5 -4.5h16l33 171q4 22 4 32q0 22 -13 30.5t-44 9.5l9 48h289l-8 -48q-41 -1 -57 -15t-24 -57l-33 -171h19q70 0 111.5 29t74.5 122q28 81 74.5 114.5t139.5 36.5l5 -115l-54 -7
q-40 -5 -64.5 -23t-40.5 -57q-23 -57 -50 -87t-77 -43v-4q66 -9 91 -46.5t27 -124.5q2 -54 18.5 -80.5t63.5 -33.5l-25 -99q-107 0 -157 42t-54 141q-4 100 -18 132t-58 32z" />
    <glyph glyph-name="afii10025" unicode="&#x417;" horiz-adv-x="586" 
d="M255 328h-63l14 74h71q62 0 98.5 44.5t36.5 108.5q0 79 -78 79q-50 0 -79.5 -26.5t-53.5 -84.5h-105l26 131q91 52 218 52q116 0 177 -41.5t61 -108.5q0 -79 -53.5 -127t-137.5 -57l-1 -4q73 -9 116 -44.5t43 -94.5q0 -118 -85 -179.5t-223 -61.5q-144 0 -238 63l25 131
h104q0 -64 22 -94.5t80 -30.5q71 0 108.5 52t37.5 126q0 93 -121 93z" />
    <glyph glyph-name="afii10026" unicode="&#x418;" horiz-adv-x="739" 
d="M-18 0l8 46q40 0 57.5 14.5t25.5 56.5l89 458q3 17 3 31q0 23 -13 31.5t-45 9.5l9 48h292l-8 -48q-39 -1 -56 -15.5t-25 -56.5l-43 -220q-14 -75 -37 -142h4q30 50 97 138l189 247q25 32 36 97h228l-9 -48q-40 -1 -57.5 -15.5t-25.5 -56.5l-89 -458q-4 -20 -4 -31
q0 -23 13.5 -31.5t45.5 -8.5l-8 -46h-293l8 46q39 0 56 14.5t25 56.5l44 224q16 79 38 142h-5q-24 -44 -97 -138l-190 -249q-23 -29 -36 -96h-227z" />
    <glyph glyph-name="afii10027" unicode="&#x419;" horiz-adv-x="739" 
d="M-18 0l8 46q40 0 57.5 14.5t25.5 56.5l89 458q3 17 3 31q0 23 -13 31.5t-45 9.5l9 48h292l-8 -48q-39 -1 -56 -15.5t-25 -56.5l-43 -220q-14 -75 -37 -142h4q30 50 97 138l189 247q25 32 36 97h228l-9 -48q-40 -1 -57.5 -15.5t-25.5 -56.5l-89 -458q-4 -20 -4 -31
q0 -23 13.5 -31.5t45.5 -8.5l-8 -46h-293l8 46q39 0 56 14.5t25 56.5l44 224q16 79 38 142h-5q-24 -44 -97 -138l-190 -249q-23 -29 -36 -96h-227zM472 731q-67 0 -106 40t-41 100l41 21q30 -65 119 -65q82 0 141 66l39 -23q-25 -61 -75 -100t-118 -39z" />
    <glyph glyph-name="afii10028" unicode="&#x41a;" horiz-adv-x="678" 
d="M72 117l89 458q3 18 3 31q0 23 -13 31.5t-45 9.5l8 48h294l-9 -48q-40 -1 -56 -15t-24 -57l-33 -171h28q71 0 111.5 28.5t73.5 122.5q28 80 75.5 114t140.5 37l6 -115l-54 -7q-40 -6 -65.5 -23.5t-40.5 -55.5q-23 -58 -50 -88t-77 -42v-5q67 -9 93 -46.5t28 -124.5
q1 -53 17.5 -80t63.5 -34l-25 -99q-107 0 -156.5 41.5t-53.5 141.5q-4 99 -19 131.5t-59 32.5h-52l-42 -216q-4 -20 -4 -32q0 -22 13 -30.5t44 -8.5l-8 -46h-292l8 46q40 0 57 14.5t25 56.5z" />
    <glyph glyph-name="afii10029" unicode="&#x41b;" horiz-adv-x="702" 
d="M237 575q4 19 4 31q0 23 -13.5 31.5t-45.5 9.5l10 48h564l-10 -48q-40 -1 -57 -15.5t-25 -56.5l-89 -458q-4 -20 -4 -31q0 -23 13.5 -31.5t45.5 -8.5l-9 -46h-294l9 46q40 0 56.5 14t24.5 57l98 506h-186q-62 -313 -122 -455q-43 -102 -96.5 -142t-138.5 -40l-11 101
q79 15 127 63q44 45 78.5 144t70.5 281z" />
    <glyph glyph-name="afii10030" unicode="&#x41c;" horiz-adv-x="889" 
d="M928 695l-9 -47q-51 -3 -66.5 -18.5t-21.5 -57.5l-57 -448q-5 -45 5 -61t51 -17l-8 -46h-293l8 46q47 1 61 14.5t20 56.5l43 315q9 70 22 137h-6q-22 -65 -56 -135l-217 -434h-92l-38 417q-4 44 -4 100q0 15 0.5 33t0.5 19h-6q-12 -78 -30 -142l-86 -309q-7 -26 -7 -37
q0 -19 14 -27t47 -8l-9 -46h-224l8 46q42 1 58.5 16.5t29.5 61.5l124 448q7 22 7 40t-14.5 26t-50.5 10l9 47h258l29 -353q5 -57 5 -103q0 -12 -0.5 -26t-0.5 -15h6q13 55 50 135l173 362h267z" />
    <glyph glyph-name="afii10031" unicode="&#x41d;" horiz-adv-x="750" 
d="M712 575l-89 -458q-8 -42 3.5 -56.5t51.5 -14.5l-8 -46h-295l8 46q40 0 57.5 14.5t25.5 56.5l39 202h-235l-39 -202q-8 -42 3.5 -56.5t51.5 -14.5l-8 -46h-296l8 46q41 0 58.5 14.5t25.5 56.5l89 458q8 42 -3.5 56.5t-51.5 15.5l9 48h295l-9 -48q-40 -1 -57.5 -15.5
t-25.5 -56.5l-36 -181h235l36 181q8 42 -3.5 56.5t-51.5 15.5l9 48h295l-9 -48q-40 -1 -57.5 -15.5t-25.5 -56.5z" />
    <glyph glyph-name="afii10032" unicode="&#x41e;" horiz-adv-x="703" 
d="M679 423q0 -63 -13 -124t-41.5 -118t-70 -100t-102 -69t-133.5 -26q-130 0 -199.5 77.5t-69.5 206.5q0 61 13.5 121.5t42.5 117.5t70.5 100.5t101.5 70t131 26.5q125 0 197.5 -74t72.5 -209zM513 472q0 85 -23.5 124.5t-80.5 39.5q-72 0 -111 -63q-42 -67 -62.5 -167
t-20.5 -194q0 -159 103 -159q72 0 113 63q40 60 61 162.5t21 193.5z" />
    <glyph glyph-name="afii10033" unicode="&#x41f;" horiz-adv-x="740" 
d="M328 623l-98 -506q-4 -21 -4 -34q0 -21 12 -29t43 -8l-8 -46h-291l8 46q40 0 57.5 14.5t25.5 56.5l88 458q4 26 4 31q0 23 -13 31.5t-45 9.5l9 48h678l-9 -48q-40 -1 -57.5 -15.5t-25.5 -56.5l-89 -458q-4 -17 -4 -31q0 -23 13.5 -31.5t45.5 -8.5l-8 -46h-291l8 46
q40 0 55.5 14t23.5 57l98 506h-226z" />
    <glyph glyph-name="afii10034" unicode="&#x420;" horiz-adv-x="610" 
d="M260 267l-29 -149q-3 -16 -3 -29q0 -25 16 -34t58 -9l-8 -46h-312l8 46q41 0 58.5 14.5t25.5 56.5l89 458q4 24 4 31q0 23 -13.5 31.5t-45.5 9.5l9 48h282q121 0 179 -43.5t58 -141.5q0 -74 -35.5 -131t-103.5 -86q-59 -26 -163 -26h-74zM475 513q0 58 -22.5 84.5
t-76.5 26.5h-47l-55 -283h47q68 0 101 28q53 45 53 144z" />
    <glyph glyph-name="afii10035" unicode="&#x421;" horiz-adv-x="617" 
d="M318 -14q-135 0 -201.5 70.5t-66.5 201.5q0 88 26.5 168t75.5 142.5t125.5 100t169.5 37.5q125 0 196 -51l-27 -135h-107q-2 63 -17.5 89.5t-60.5 26.5q-69 0 -119 -60.5t-73.5 -153.5t-23.5 -204q0 -89 28.5 -125.5t85.5 -36.5q53 0 84 29t53 92h108l-27 -138
q-35 -23 -99.5 -38t-129.5 -15z" />
    <glyph glyph-name="afii10036" unicode="&#x422;" horiz-adv-x="615" 
d="M113 695h557l-27 -186h-75q-3 71 -14 93t-54 22h-43l-98 -507q-4 -17 -4 -30q0 -23 15 -32t52 -9l-9 -46h-312l8 46q46 0 65 14.5t27 56.5l98 507h-42q-46 0 -65.5 -22t-47.5 -93h-76z" />
    <glyph glyph-name="afii10037" unicode="&#x423;" horiz-adv-x="660" 
d="M298 581l63 -270h18q7 21 68 117l98 155q12 19 12 36q0 29 -53 29l9 47h228l-9 -47q-33 -4 -48.5 -15.5t-39.5 -50.5l-256 -402q-56 -88 -88.5 -124.5t-75 -53t-116.5 -16.5l-10 102q80 8 124.5 28t73.5 68l-42 -4l-115 404q-10 36 -21.5 48t-38.5 16l9 47h282l-9 -47
q-66 0 -66 -47q0 -7 3 -20z" />
    <glyph glyph-name="afii10038" unicode="&#x424;" horiz-adv-x="849" 
d="M644 681q-36 -1 -53.5 -11.5t-24.5 -38.5q134 -2 206 -60t72 -155q0 -155 -98 -235.5t-283 -82.5q-5 -29 7.5 -40t49.5 -12l-8 -46h-289l8 46q36 0 52.5 10.5t25.5 41.5q-134 2 -204.5 59t-70.5 156q0 154 97.5 235t279.5 83q4 27 -9 38.5t-48 11.5l9 48h290zM193 293
q0 -62 30.5 -95t98.5 -36l78 404q-104 -5 -155.5 -77t-51.5 -196zM475 162q106 6 158.5 78.5t52.5 194.5q0 125 -134 132z" />
    <glyph glyph-name="afii10039" unicode="&#x425;" horiz-adv-x="671" 
d="M602 584l-178 -206l115 -267q15 -35 30.5 -48t44.5 -17l-8 -46h-291l8 46q56 0 56 35q0 13 -6 28l-68 166h-5l-127 -161q-51 -66 25 -68l-8 -46h-221l8 46q31 4 53 18t51 51l190 233l-101 238q-15 34 -28 45.5t-39 15.5l10 48h280l-9 -48q-56 -1 -56 -33q0 -11 6 -26
l56 -142h6l109 138q20 26 20 41q0 21 -41 22l9 48h218l-8 -48q-31 -4 -52 -17t-49 -46z" />
    <glyph glyph-name="afii10040" unicode="&#x426;" horiz-adv-x="748" 
d="M516 0h-534l9 46q40 0 57.5 14.5t25.5 56.5l88 458q4 20 4 31q0 23 -13.5 31.5t-45.5 9.5l10 48h293l-9 -48q-41 -1 -57 -15t-24 -57l-98 -503h223l98 503q4 19 4 32q0 22 -13 30.5t-44 9.5l9 48h293l-9 -48q-40 -1 -57 -15.5t-25 -56.5l-88 -451q-2 -12 -2 -20
q0 -31 48 -32h32l-13 -72l-62 -180h-84q19 100 19 134q0 25 -8 35.5t-27 10.5z" />
    <glyph glyph-name="afii10041" unicode="&#x427;" horiz-adv-x="721" 
d="M297 575l-30 -154q-7 -34 -7 -53q0 -39 20.5 -56t62.5 -17q65 0 134 31l48 249q4 21 4 33q0 21 -11.5 29.5t-39.5 9.5l9 48h288l-9 -48q-40 -1 -57.5 -15.5t-25.5 -56.5l-89 -458q-4 -21 -4 -31q0 -23 13.5 -31.5t45.5 -8.5l-8 -46h-296l8 46q41 0 58 14.5t25 56.5
l26 132q-86 -51 -173 -51q-90 0 -140.5 39t-50.5 107q0 22 5 46l34 175q5 26 5 41q0 23 -12.5 31.5t-45.5 9.5l9 48h287l-9 -48q-36 -1 -51 -15t-23 -57z" />
    <glyph glyph-name="afii10042" unicode="&#x428;" horiz-adv-x="1026" 
d="M460 695h276l-9 -48q-39 -1 -55.5 -15.5t-24.5 -56.5l-98 -505h185l98 505q4 21 4 34q0 21 -10.5 29t-35.5 9l8 48h282l-9 -48q-40 -1 -57.5 -15.5t-25.5 -56.5l-89 -458q-4 -19 -4 -31q0 -23 13 -31.5t45 -8.5l-8 -46h-963l8 46q40 0 57.5 14.5t25.5 56.5l89 458
q3 13 3 31q0 23 -13 31.5t-45 9.5l9 48h281l-8 -48q-33 -1 -48 -15.5t-23 -56.5l-98 -505h175l98 505q4 21 4 34q0 21 -10.5 29t-35.5 9z" />
    <glyph glyph-name="afii10043" unicode="&#x429;" horiz-adv-x="1033" 
d="M808 0h-826l8 46q40 0 57.5 14.5t25.5 56.5l89 458q3 18 3 31q0 23 -13 31.5t-45 9.5l9 48h281l-8 -48q-33 -1 -48 -15.5t-23 -56.5l-98 -505h175l98 505q4 21 4 34q0 21 -10.5 29t-35.5 9l9 48h276l-9 -48q-39 -1 -55.5 -15.5t-24.5 -56.5l-98 -505h185l98 505
q4 21 4 34q0 21 -10.5 29t-35.5 9l8 48h282l-9 -48q-40 -1 -57.5 -15.5t-25.5 -56.5l-87 -449q-3 -14 -3 -22q0 -17 12.5 -24t42.5 -8h26l-13 -72l-63 -180h-84q20 97 20 134q0 46 -31 46z" />
    <glyph glyph-name="afii10044" unicode="&#x42a;" horiz-adv-x="752" 
d="M461 575l-29 -155h75q106 0 166.5 -41t60.5 -122q0 -120 -75 -188.5t-209 -68.5h-326l8 46q40 0 57.5 14.5t25.5 56.5l98 507h-45q-54 0 -78 -22t-54 -92h-75l48 185h444l-9 -48q-40 -1 -57.5 -15t-25.5 -57zM469 349h-52l-53 -276h67q39 0 67 17t42 46.5t20 60.5t6 66
q0 46 -23 66t-74 20z" />
    <glyph glyph-name="afii10045" unicode="&#x42b;" horiz-adv-x="928" 
d="M317 349h-41l-54 -276h57q39 0 67 17t42 46.5t20 60.5t6 66q0 46 -23 66t-74 20zM320 575l-30 -155h65q106 0 166.5 -41t60.5 -122q0 -120 -75 -188.5t-209 -68.5h-316l8 46q40 0 57.5 14.5t25.5 56.5l88 455q4 19 4 34q0 23 -13 31.5t-45 9.5l9 48h295l-8 -48
q-40 -1 -57.5 -15t-25.5 -57zM890 575l-89 -458q-4 -26 -4 -31q0 -23 13.5 -31.5t45.5 -8.5l-8 -46h-296l9 46q40 0 57.5 14.5t25.5 56.5l88 455q4 19 4 34q0 23 -13 31.5t-45 9.5l9 48h295l-9 -48q-40 -1 -57.5 -15.5t-25.5 -56.5z" />
    <glyph glyph-name="afii10046" unicode="&#x42c;" horiz-adv-x="610" 
d="M327 349h-51l-54 -276h67q39 0 67 17t42 46.5t20.5 60.5t6.5 66q0 45 -23.5 65.5t-74.5 20.5zM320 575l-30 -155h76q106 0 166 -41.5t60 -121.5q0 -120 -75 -188.5t-209 -68.5h-326l8 46q40 0 57.5 14.5t25.5 56.5l88 455q4 20 4 34q0 23 -13 31.5t-45 9.5l9 48h295
l-8 -48q-40 -1 -57.5 -15t-25.5 -57z" />
    <glyph glyph-name="afii10047" unicode="&#x42d;" horiz-adv-x="640" 
d="M197 314l15 75h229q9 60 9 113q0 71 -25 102t-75 31q-52 0 -84 -26.5t-56 -85.5h-108l27 136q103 47 227 47q122 0 191 -64t69 -188q0 -94 -22 -176t-66 -148t-118.5 -104.5t-172.5 -38.5q-146 0 -231 62l25 128h100q0 -63 22 -92t79 -29q45 0 79 20.5t62 75.5
q36 72 54 162h-230z" />
    <glyph glyph-name="afii10048" unicode="&#x42e;" horiz-adv-x="1005" 
d="M981 422q0 -63 -12 -123.5t-39.5 -117.5t-67.5 -100t-100 -69t-132 -26q-129 0 -194 77.5t-65 206.5q0 32 2 49h-103l-39 -202q-4 -26 -4 -31q0 -23 13.5 -31.5t45.5 -8.5l-8 -46h-296l8 46q41 0 58.5 14.5t25.5 56.5l88 455q4 19 4 34q0 23 -13 31.5t-45 9.5l9 48h295
l-9 -48q-40 -1 -57.5 -15.5t-25.5 -56.5l-35 -181h99q29 133 115 222.5t222 89.5q124 0 192 -73.5t68 -210.5zM815 472q0 87 -19.5 125.5t-75.5 38.5q-63 0 -104 -65q-41 -66 -60.5 -164.5t-19.5 -194.5q0 -81 20.5 -119.5t72.5 -38.5q62 0 104 64q40 60 61 161t21 193z" />
    <glyph glyph-name="afii10049" unicode="&#x42f;" horiz-adv-x="644" 
d="M237 316q-60 5 -103.5 44.5t-43.5 100.5q0 115 75.5 174.5t200.5 59.5h332l-9 -48q-40 -1 -57 -15.5t-25 -56.5l-89 -458q-4 -21 -4 -31q0 -23 13 -31.5t45 -8.5l-8 -46h-290l9 46q35 0 52 15t25 56l34 177q-62 0 -84.5 -20t-63.5 -106q-55 -112 -108 -147t-162 -35
l-12 102q46 6 68 26t42 60q31 65 65 97.5t98 41.5v3zM394 624q-72 0 -105.5 -50t-33.5 -133q0 -43 19 -59t58 -16h76l50 258h-64z" />
    <glyph glyph-name="afii10065" unicode="&#x430;" horiz-adv-x="579" 
d="M344 522q82 0 97 -57q12 21 40 45h90q-25 -53 -43 -132l-54 -240q-6 -24 -6 -39q0 -19 10.5 -26.5t35.5 -7.5q7 0 29 2l3 -41q-62 -35 -130 -35q-92 0 -92 98v5.5v5.5l1 3q-74 -116 -176 -116q-59 0 -91.5 37.5t-32.5 106.5q0 152 97 271.5t222 119.5zM347 450
q-45 0 -85.5 -45.5t-63.5 -114.5t-23 -138q0 -71 39 -71q51 0 128 120l54 228q-15 21 -49 21z" />
    <glyph glyph-name="afii10066" unicode="&#x431;" horiz-adv-x="552" 
d="M470 601l-109 -28q-113 -29 -149.5 -66t-51.5 -130h7q67 130 184 130q84 0 130.5 -44t46.5 -126q0 -149 -73.5 -249.5t-212.5 -100.5q-99 0 -152.5 56t-53.5 151q1 198 76.5 324.5t203.5 163.5l114 33q28 8 40.5 16t25.5 24l82 -70q-38 -66 -108 -84zM319 439
q-46 0 -77 -44q-30 -44 -47.5 -118t-17.5 -137q0 -90 62 -90q47 0 81 58q25 43 39 117t14 131q0 43 -12 63t-42 20z" />
    <glyph glyph-name="afii10067" unicode="&#x432;" horiz-adv-x="529" 
d="M495 409q0 -80 -108 -129q117 -15 117 -103q0 -87 -81 -138.5t-182 -51.5q-98 0 -154 51.5t-56 144.5q0 145 86 242t210 97q79 0 123.5 -29.5t44.5 -83.5zM353 161q0 68 -52 86q-65 -17 -119 -20q-2 -36 -2 -56q0 -62 15 -91.5t53 -29.5q46 0 75.5 30.5t29.5 80.5z
M315 459q-37 0 -71.5 -47t-51.5 -123q78 8 121.5 40t43.5 80q0 50 -42 50z" />
    <glyph glyph-name="afii10068" unicode="&#x433;" horiz-adv-x="484" 
d="M227 -13q-103 0 -155.5 33t-52.5 93q0 72 41.5 108t146.5 66l33 9q45 13 65.5 37t20.5 64q0 63 -56 63q-32 0 -52 -18t-37 -57h-85l21 103q85 34 175 34q85 0 136.5 -29.5t51.5 -85.5q0 -70 -37.5 -104.5t-129.5 -63.5l-32 -10q-53 -17 -75 -41t-22 -69q0 -28 17 -48.5
t49 -20.5q36 0 60.5 19t40.5 68h91l-21 -106q-91 -44 -194 -44z" />
    <glyph glyph-name="afii10069" unicode="&#x434;" horiz-adv-x="554" 
d="M278 509q63 0 109 -36q0 57 -7 97q-8 42 -32 54t-98 12h-69l-14 75q50 24 110 24q69 0 110.5 -24t73.5 -89q63 -126 63 -254q0 -77 -15.5 -143.5t-47.5 -121t-86.5 -86t-126.5 -31.5q-97 0 -155 52.5t-58 148.5q0 128 71 225t172 97zM250 49q32 0 58.5 38t42.5 96
t25 116.5t11 110.5q-33 32 -75 32q-57 0 -92 -82.5t-35 -186.5q0 -65 15 -94.5t50 -29.5z" />
    <glyph glyph-name="afii10070" unicode="&#x435;" horiz-adv-x="515" 
d="M180 172q0 -98 92 -98q82 0 147 58l31 -43q-89 -103 -223 -103q-97 0 -146 51.5t-49 146.5q0 136 87 237t211 101q81 0 127 -33.5t46 -104.5q0 -47 -24 -80.5t-66.5 -52t-93.5 -27t-113 -8.5h-24q-2 -19 -2 -44zM367 403q0 25 -12.5 39.5t-33.5 14.5q-43 0 -77.5 -49.5
t-50.5 -130.5h4q170 0 170 126z" />
    <glyph glyph-name="afii10072" unicode="&#x436;" horiz-adv-x="913" 
d="M109 -13q-78 0 -118 52l21 86h76q0 -28 1 -40q1 -21 7.5 -29t20.5 -8q43 0 75 105t32 211q0 40 -9.5 60t-35.5 20q-32 0 -78 -49l-32 36q71 91 159 91q128 0 128 -160q0 -31 -4 -58h55l33 198l117 15h28l-56 -213h56q28 95 84 156.5t138 61.5q79 0 120 -53l-22 -86h-76
q1 11 1 33q-1 25 -7.5 34.5t-21.5 9.5q-45 0 -76.5 -105t-31.5 -212q0 -39 9 -59t35 -20q33 0 79 49l32 -35q-70 -92 -160 -92q-126 0 -126 159q0 45 7 88h-55l-34 -228l-117 -15h-28l57 243h-53q-24 -105 -82.5 -175.5t-147.5 -70.5z" />
    <glyph glyph-name="afii10073" unicode="&#x437;" horiz-adv-x="498" 
d="M271 460q-65 0 -88 -85h-103l22 108q84 39 186 39q191 0 191 -111q0 -121 -147 -143l-1 -5q121 -11 121 -97q0 -64 -39.5 -106t-95.5 -57.5t-127 -15.5q-117 0 -187 47l22 101h98q0 -43 13.5 -64t53.5 -21q50 0 75.5 34.5t25.5 86.5q0 57 -75 57h-37l14 64h38
q46 0 70.5 34.5t24.5 81.5q0 52 -55 52z" />
    <glyph glyph-name="afii10074" unicode="&#x438;" horiz-adv-x="575" 
d="M325 99q-74 -113 -183 -113q-52 0 -78 27.5t-26 75.5q0 24 6 51l51 216q5 19 5 38q0 27 -16 38t-52 11l8 39q66 33 127 33q85 0 85 -85q0 -23 -7 -53l-51 -221q-4 -17 -4 -32q0 -33 32 -33q53 0 122 110l65 308h143l-77 -371q-5 -25 -5 -38q0 -19 11 -27t36 -8q6 0 28 2
l3 -41q-62 -35 -131 -35q-93 0 -93 93v9z" />
    <glyph glyph-name="afii10075" unicode="&#x439;" horiz-adv-x="575" 
d="M325 99q-74 -113 -183 -113q-52 0 -78 27.5t-26 75.5q0 24 6 51l51 216q5 19 5 38q0 27 -16 38t-52 11l8 39q66 33 127 33q85 0 85 -85q0 -23 -7 -53l-51 -221q-4 -17 -4 -32q0 -33 32 -33q53 0 122 110l65 308h143l-77 -371q-5 -25 -5 -38q0 -19 11 -27t36 -8q6 0 28 2
l3 -41q-62 -35 -131 -35q-93 0 -93 93v9zM327 567q-65 0 -103.5 39.5t-40.5 99.5l41 22q30 -65 116 -65q79 0 138 66l39 -23q-25 -60 -75 -99.5t-115 -39.5z" />
    <glyph glyph-name="afii10076" unicode="&#x43a;" horiz-adv-x="570" 
d="M262 226h-31l-49 -226h-146l76 350q7 32 7 47q0 24 -15.5 34.5t-52.5 11.5l8 39q66 33 126 33q38 0 60.5 -23.5t22.5 -71.5q0 -21 -7 -51l-16 -76h10q50 0 75 21.5t48 78.5q25 63 52 93.5t81 30.5q45 0 81 -37l-51 -74q-22 14 -41 14t-30 -14t-31 -56q-18 -38 -35 -55
t-53 -28v-4q65 -4 89.5 -28.5t26.5 -74.5q2 -39 13 -57.5t42 -24.5l-15 -92q-99 0 -138 29.5t-43 99.5q-3 67 -15.5 89t-48.5 22z" />
    <glyph glyph-name="afii10077" unicode="&#x43b;" horiz-adv-x="607" 
d="M193 390q5 22 5 35q0 28 -25 28q-13 0 -33 -6l-11 43q48 19 130 19h325l-75 -363q-8 -40 -8 -50q0 -31 43 -31q10 0 32 2l4 -41q-67 -35 -131 -35q-96 0 -96 90q0 25 8 60l63 298h-141q-39 -187 -72 -281q-33 -95 -77 -133t-136 -38l-8 97q38 9 59.5 19t42.5 32
q38 38 59 97t42 158z" />
    <glyph glyph-name="afii10078" unicode="&#x43c;" horiz-adv-x="752" 
d="M378 145l148 303q17 36 42.5 51.5t67.5 15.5q38 0 87 -18l-58 -363q-4 -28 -4 -39q0 -30 42 -30q7 0 33 2l3 -41q-64 -35 -131 -35q-89 0 -89 86q0 18 5 53l17 111q11 82 30 130h-5l-176 -363l-98 -16h-26l-28 379h-5q-9 -77 -44 -204q-25 -88 -66.5 -134.5t-125.5 -46.5
l-8 98q59 16 92 55q51 61 91 252q4 18 4 32q0 30 -25 30q-17 0 -30 -6l-11 44q57 25 136 25q105 0 110 -94l17 -277h5z" />
    <glyph glyph-name="afii10079" unicode="&#x43d;" horiz-adv-x="606" 
d="M438 509h146l-75 -363q-7 -35 -7 -48q0 -18 9.5 -25.5t33.5 -7.5q10 0 32 2l4 -41q-68 -35 -132 -35q-95 0 -95 90q0 25 8 60l17 82h-149l-48 -223h-146l80 370q3 15 3 27q0 24 -16 34.5t-53 11.5l9 39q66 33 126 33q38 0 60.5 -23.5t22.5 -71.5q0 -21 -7 -51l-16 -76
h148z" />
    <glyph glyph-name="afii10080" unicode="&#x43e;" horiz-adv-x="552" 
d="M527 314q0 -137 -75.5 -232.5t-213.5 -95.5q-95 0 -151 56t-56 149q0 134 77 232.5t209 98.5q96 0 153 -53.5t57 -154.5zM376 364q0 93 -63 93q-52 0 -82 -66q-22 -50 -36 -121.5t-14 -135.5q0 -85 62 -85q53 0 80 62q22 43 37.5 114.5t15.5 138.5z" />
    <glyph glyph-name="afii10081" unicode="&#x43f;" horiz-adv-x="592" 
d="M345 141l49 208q3 13 3 24q0 31 -30 31q-56 0 -129 -110l-63 -294h-145l79 369q3 15 3 26q0 25 -16 36t-53 12l9 39q66 33 126 33q76 0 76 -94q0 -17 -3 -38q86 139 200 139q49 0 74 -28t25 -74q0 -25 -5 -45l-54 -237q-6 -25 -6 -41q0 -17 9.5 -24.5t32.5 -7.5q7 0 33 2
l3 -41q-67 -35 -131 -35q-95 0 -95 90q0 25 8 60z" />
    <glyph glyph-name="afii10082" unicode="&#x440;" horiz-adv-x="595" 
d="M246 318l-52 -248q13 -23 48 -23q53 0 93 49.5t58 115.5t18 131q0 73 -46 73q-27 0 -60 -28t-59 -70zM178 -4l-17 -77q-5 -23 -5 -35q0 -20 12 -27t43 -8l-11 -45h-272l10 45q38 1 52 14t23 56l96 450q3 15 3 27q0 24 -15.5 35t-52.5 12l8 39q66 33 126 33q81 0 81 -97
q0 -14 -1 -21q80 124 186 124q57 0 91.5 -41t34.5 -114q0 -158 -93 -269t-232 -111q-44 0 -67 10z" />
    <glyph glyph-name="afii10083" unicode="&#x441;" horiz-adv-x="475" 
d="M333 522q99 0 149 -42l-21 -109h-100v17q0 36 -9 53t-35 17q-58 0 -96 -82.5t-38 -192.5t89 -110q36 0 62 11.5t59 36.5l32 -46q-74 -89 -200 -89q-92 0 -142.5 54t-50.5 152q0 80 35 154.5t105.5 125t160.5 50.5z" />
    <glyph glyph-name="afii10084" unicode="&#x442;" horiz-adv-x="861" 
d="M701 -9q-95 0 -95 90q0 25 8 60l48 205q3 14 3 24q0 31 -30 31q-45 0 -118 -105l-61 -296h-146l73 345q3 13 3 26q0 30 -30 30q-47 0 -118 -107l-63 -294h-145l79 369q3 15 3 26q0 25 -16 36t-53 12l9 39q66 33 126 33q76 0 76 -94q0 -17 -3 -38q86 139 186 139
q48 0 73 -31t25 -79q0 -8 -2 -26q90 136 187 136q49 0 74 -28t25 -74q0 -25 -5 -45l-55 -237q-6 -25 -6 -41q0 -18 9.5 -25t33.5 -7q19 0 33 2l3 -41q-67 -35 -131 -35z" />
    <glyph glyph-name="afii10085" unicode="&#x443;" horiz-adv-x="494" 
d="M182 13l-61 -3q-4 100 -20 214l-20 144q-7 50 -20.5 63.5t-52.5 13.5l7 40q62 30 118 30q45 0 62.5 -29t27.5 -105l14 -110q6 -52 6 -92q0 -42 -6 -81h6l43 88q95 194 97 330l128 -14v-43l-254 -470q-49 -91 -108 -137.5t-137 -58.5l-55 98q88 15 142 39.5t83 82.5z" />
    <glyph glyph-name="afii10086" unicode="&#x444;" horiz-adv-x="789" 
d="M291 522q55 0 87 -36l13 61q23 107 31 167l119 20h28l-56 -263q50 50 118 50q64 0 99 -45t35 -128q0 -86 -27.5 -166.5t-89 -138t-144.5 -57.5q-57 0 -87 36l-43 -206l-152 -21l1 30q31 76 54 187l5 26q-51 -51 -118 -51q-65 0 -99.5 45t-34.5 129q0 86 27.5 166
t89 137.5t144.5 57.5zM220 73q39 0 77 33l66 311q-19 40 -54 40q-37 0 -69 -51t-48 -118.5t-16 -127.5q0 -87 44 -87zM575 435q-41 0 -77 -33l-66 -311q18 -40 54 -40q37 0 69 51t48 119t16 128q0 48 -11 67t-33 19z" />
    </font>
</defs>
</svg>
